<?xml version="1.0" encoding="UTF-8"?>
<svg xmlns="http://www.w3.org/2000/svg" id="a" width="865.76" height="682.89" viewBox="0 0 865.76 682.89">
  <g>
    <g>
      <rect x="22.78" y="88.51" width="380.78" height="437.04" rx="7.87" ry="7.87" fill="#fff"></rect>
      <path d="M395.69,89c4.06,0,7.37,3.31,7.37,7.37v421.31c0,4.06-3.3,7.37-7.37,7.37H30.65c-4.06,0-7.37-3.31-7.37-7.37V96.37c0-4.06,3.31-7.37,7.37-7.37H395.69m0-1H30.65c-4.62,0-8.37,3.75-8.37,8.37v421.31c0,4.62,3.75,8.37,8.37,8.37H395.69c4.62,0,8.37-3.75,8.37-8.37V96.37c0-4.62-3.75-8.37-8.37-8.37h0Z" fill="#35374e"></path>
    </g>
    <g>
      <rect x="84.86" y="179.73" width="256.62" height="43.68" fill="#fff"></rect>
      <path d="M340.98,180.23v42.68H85.36v-42.68h255.62m1-1H84.36v44.68H341.98v-44.68h0Z" fill="#35374e"></path>
    </g>
    <g>
      <rect x="84.86" y="240.96" width="256.62" height="43.68" fill="#fff"></rect>
      <path d="M340.98,241.46v42.68H85.36v-42.68h255.62m1-1H84.36v44.68H341.98v-44.68h0Z" fill="#35374e"></path>
    </g>
    <g>
      <rect x="84.86" y="299.44" width="256.62" height="43.68" fill="#fff"></rect>
      <path d="M340.98,299.94v42.68H85.36v-42.68h255.62m1-1H84.36v44.68H341.98v-44.68h0Z" fill="#35374e"></path>
    </g>
    <g>
      <rect x="84.86" y="361.77" width="256.62" height="43.68" fill="#fff"></rect>
      <path d="M340.98,362.27v42.68H85.36v-42.68h255.62m1-1H84.36v44.68H341.98v-44.68h0Z" fill="#35374e"></path>
    </g>
    <g>
      <rect x="84.36" y="446.23" width="257.62" height="44.68" fill="#d36466"></rect>
      <path d="M342.48,491.41H83.86v-45.68H342.48v45.68Zm-257.62-1H341.48v-43.68H84.86v43.68h0Z" fill="#35374e"></path>
    </g>
    <g>
      <path d="M175.45,137.37h1.67c.05,.65,.24,1.23,.58,1.74s.81,.91,1.4,1.21c.59,.29,1.29,.44,2.1,.44,.7,0,1.28-.1,1.75-.31,.47-.21,.83-.5,1.07-.87s.36-.8,.36-1.3-.12-.92-.37-1.23-.6-.57-1.07-.79c-.46-.22-1.01-.42-1.64-.62-.6-.19-1.21-.4-1.83-.65s-1.19-.55-1.73-.9-.96-.78-1.29-1.29-.49-1.11-.49-1.82,.19-1.35,.57-1.96,.93-1.1,1.67-1.48c.73-.38,1.62-.57,2.65-.57,1.62,0,2.83,.44,3.64,1.32,.8,.88,1.19,2.05,1.16,3.5h-1.67c-.03-1.1-.34-1.88-.93-2.36s-1.35-.72-2.29-.72c-.79,0-1.47,.18-2.06,.54s-.88,.93-.88,1.7c0,.34,.07,.64,.2,.89,.13,.25,.35,.49,.65,.71,.3,.22,.71,.43,1.23,.64,.52,.21,1.16,.44,1.91,.68,.49,.16,1,.34,1.52,.56s1,.49,1.44,.81,.79,.74,1.07,1.24,.41,1.13,.41,1.89-.17,1.4-.52,2.03-.89,1.13-1.62,1.52-1.68,.58-2.84,.58c-.99,0-1.83-.13-2.54-.41-.7-.27-1.28-.62-1.73-1.05s-.79-.88-1.03-1.36c-.24-.47-.4-.92-.47-1.33s-.08-.74-.02-.97h-.03Z" fill="#35374e"></path>
      <path d="M190.95,126.04v2.25h-2.41v-2.25s2.41,0,2.41,0Zm-2.13,4.63h1.85v11.58h-1.85v-11.58Z" fill="#35374e"></path>
      <path d="M197.99,140.43c-.82,0-1.59-.2-2.33-.59-.73-.39-1.33-.96-1.78-1.7-.46-.74-.68-1.63-.68-2.66s.22-1.93,.67-2.68,1.03-1.33,1.76-1.74,1.51-.61,2.36-.61c.26,0,.51,.02,.75,.06s.47,.1,.68,.17h4.7v1.99c-.66,0-1.32-.12-1.98-.37-.66-.25-1.22-.5-1.68-.76l-.09-.09c.54,.29,.98,.64,1.33,1.04s.61,.85,.79,1.36c.18,.5,.27,1.05,.27,1.63,0,1.03-.22,1.92-.66,2.66s-1.02,1.31-1.75,1.7-1.51,.59-2.36,.59h0Zm3.41,6.46v-.51c0-.82-.21-1.41-.64-1.78-.42-.37-1.06-.56-1.91-.56h-2.32c-.51,0-.95-.04-1.33-.13-.38-.08-.69-.21-.94-.38s-.43-.38-.56-.63c-.12-.25-.19-.53-.19-.83,0-.59,.18-1.03,.53-1.33s.79-.49,1.32-.57,1.03-.08,1.51,0l1.11,.25c-.83,.05-1.48,.13-1.93,.25-.46,.12-.68,.39-.68,.79,0,.23,.09,.42,.27,.57,.18,.15,.44,.22,.8,.22h2.41c.8,0,1.54,.11,2.2,.34,.66,.22,1.2,.6,1.6,1.14,.4,.53,.6,1.26,.6,2.19v.97h-1.85Zm-3.41-8.2c.51,0,.98-.12,1.42-.37s.8-.61,1.08-1.09,.42-1.07,.42-1.76-.13-1.29-.41-1.77c-.27-.49-.63-.86-1.08-1.11s-.93-.38-1.44-.38-.99,.13-1.44,.38-.81,.62-1.09,1.1-.42,1.07-.42,1.78,.14,1.28,.42,1.76,.64,.84,1.09,1.09,.93,.37,1.44,.37h.01Z" fill="#35374e"></path>
      <path d="M206.31,130.67h1.85v11.58h-1.85v-11.58Zm5.84-.23c.62,0,1.17,.09,1.67,.28s.91,.46,1.25,.81c.34,.36,.6,.78,.79,1.29s.28,1.07,.28,1.7v7.74h-1.85v-7.28c0-.9-.21-1.57-.63-2.02s-1.04-.67-1.88-.67c-.63,0-1.22,.16-1.76,.49s-.98,.77-1.33,1.33-.56,1.22-.64,1.96l-.02-1.34c.08-.65,.24-1.24,.47-1.76,.24-.52,.54-.98,.9-1.36s.78-.67,1.25-.87,.97-.3,1.49-.3h.01Z" fill="#35374e"></path>
      <path d="M234.9,136.46v-9.27h1.85v9.27c0,.85-.1,1.6-.3,2.26-.2,.66-.48,1.22-.85,1.7-.36,.48-.8,.87-1.31,1.17s-1.08,.53-1.7,.67c-.62,.15-1.29,.22-2,.22s-1.41-.07-2.04-.22c-.63-.15-1.21-.37-1.73-.67-.52-.3-.96-.69-1.32-1.17s-.64-1.05-.85-1.7c-.2-.66-.3-1.41-.3-2.26v-9.27h1.85v9.27c0,1.16,.2,2.05,.6,2.66,.4,.62,.93,1.04,1.6,1.27s1.39,.35,2.18,.35,1.48-.12,2.13-.35,1.17-.66,1.58-1.27c.4-.62,.6-1.51,.6-2.66h0Z" fill="#35374e"></path>
      <path d="M240.11,130.67h1.78l.07,2.43v13.79h-1.85v-16.22h0Zm5.79,11.82c-.85,0-1.54-.2-2.08-.59-.54-.39-.96-.9-1.26-1.53-.3-.62-.51-1.28-.64-1.97-.12-.69-.19-1.32-.19-1.91,0-.83,.06-1.61,.17-2.34,.12-.73,.32-1.37,.61-1.92,.29-.56,.71-.99,1.26-1.31,.55-.32,1.25-.47,2.12-.47,.93,0,1.77,.26,2.53,.79s1.36,1.24,1.82,2.15c.46,.91,.68,1.95,.68,3.1s-.23,2.19-.7,3.09c-.46,.9-1.08,1.61-1.84,2.13s-1.59,.78-2.49,.78h.01Zm-.46-1.76c.71,0,1.34-.18,1.89-.54s.98-.87,1.29-1.51,.46-1.37,.46-2.19c0-1.24-.32-2.26-.95-3.07-.63-.81-1.53-1.22-2.69-1.22-.68,0-1.28,.18-1.81,.54s-.93,.87-1.23,1.51c-.29,.64-.44,1.39-.44,2.24,0,.77,.13,1.48,.38,2.12s.64,1.16,1.15,1.54c.51,.39,1.16,.58,1.95,.58h0Z" fill="#35374e"></path>
    </g>
    <rect x="94.73" y="168.96" width="76.54" height="20.23" fill="#fff"></rect>
    <g>
      <path d="M106.43,175.05v1.01h-5.14v2.89h4.2v1.01h-4.2v3.87h-1.08v-8.79h6.22Z" fill="#35374e"></path>
      <path d="M108.98,174.37v1.31h-1.41v-1.31h1.41Zm-1.24,2.7h1.08v6.76h-1.08v-6.76Z" fill="#35374e"></path>
      <path d="M110.67,177.08h1.08v6.76h-1.08v-6.76Zm3.24,1.01c-.46,0-.84,.12-1.16,.34s-.55,.51-.73,.84c-.17,.33-.29,.65-.34,.95v-.78c-.01-.08,0-.22,.04-.41s.1-.4,.2-.64,.23-.47,.4-.69,.38-.4,.64-.55c.26-.14,.58-.22,.95-.22v1.15h0Z" fill="#35374e"></path>
      <path d="M114.81,181.66h1c.03,.39,.17,.7,.44,.95,.27,.24,.65,.36,1.16,.36,.31,0,.55-.04,.72-.12s.3-.19,.39-.33c.08-.14,.12-.29,.12-.47,0-.21-.05-.37-.16-.49s-.24-.22-.42-.3-.38-.16-.6-.23c-.26-.1-.53-.2-.8-.32-.28-.11-.53-.25-.77-.41s-.43-.35-.58-.58c-.14-.23-.22-.51-.22-.83,0-.27,.05-.53,.16-.76,.11-.24,.26-.45,.47-.62,.2-.18,.44-.31,.72-.41,.27-.1,.58-.15,.91-.15,.45,0,.83,.09,1.14,.27,.31,.18,.55,.43,.72,.76s.25,.71,.26,1.14h-.93c-.06-.41-.19-.7-.38-.89-.19-.18-.47-.28-.83-.28s-.65,.08-.85,.24-.3,.38-.3,.65c0,.2,.07,.36,.22,.49,.14,.13,.33,.25,.56,.35s.48,.21,.74,.32c.26,.11,.51,.22,.76,.33,.24,.11,.46,.23,.65,.38,.19,.14,.34,.32,.45,.53,.11,.21,.17,.47,.17,.79,0,.38-.09,.71-.26,1.01-.18,.29-.43,.52-.77,.68s-.75,.24-1.24,.24c-.44,0-.82-.06-1.13-.17s-.57-.26-.78-.45c-.21-.18-.37-.38-.48-.59-.11-.21-.19-.41-.22-.61s-.04-.37-.03-.5v.02Z" fill="#35374e"></path>
      <path d="M120.62,177.08h3.97v1.01h-3.97v-1.01Zm1.45-1.76h1.08v8.51h-1.08v-8.51Z" fill="#35374e"></path>
      <path d="M135.7,182.55l-.3,.09v-7.6h1.08v8.79h-1.08l-5.7-7.49,.3-.09v7.58h-1.08v-8.79h1.08l5.7,7.5h0Z" fill="#35374e"></path>
      <path d="M141,183.97c-.53,0-1.02-.15-1.47-.45s-.8-.72-1.07-1.24c-.27-.53-.4-1.13-.4-1.8s.13-1.28,.41-1.81c.27-.53,.64-.95,1.1-1.26s.98-.46,1.56-.46c.63,0,1.11,.16,1.44,.48,.33,.32,.55,.75,.68,1.28,.12,.53,.18,1.12,.18,1.77,0,.34-.04,.71-.11,1.12-.07,.4-.2,.78-.37,1.15s-.42,.66-.74,.89-.72,.34-1.22,.34h.01Zm.27-1.04c.46,0,.84-.11,1.14-.34s.52-.53,.67-.9c.14-.37,.22-.79,.22-1.24,0-.5-.07-.93-.22-1.3-.15-.37-.37-.67-.68-.88-.3-.21-.68-.32-1.13-.32-.68,0-1.2,.24-1.57,.71-.37,.47-.55,1.07-.55,1.79,0,.48,.09,.9,.28,1.28s.44,.67,.76,.88c.32,.21,.68,.32,1.09,.32h0Zm2.03-5.87h1.08v6.76h-.99c-.03-.32-.05-.59-.07-.81s-.03-.4-.03-.54v-5.41h.01Z" fill="#35374e"></path>
      <path d="M146.14,177.08h1.08v6.76h-1.08v-6.76Zm3.41-.13c.36,0,.68,.05,.97,.16,.29,.11,.53,.27,.73,.47,.2,.21,.35,.46,.46,.75s.16,.62,.16,.99v4.51h-1.08v-4.24c0-.52-.12-.91-.36-1.18-.24-.26-.61-.39-1.09-.39-.37,0-.71,.09-1.03,.28-.32,.19-.57,.45-.78,.78-.2,.33-.33,.71-.37,1.14v-.78c.03-.38,.12-.72,.26-1.03s.32-.57,.53-.79,.46-.39,.73-.51c.27-.12,.56-.18,.87-.18v.02Zm4.54,0c.36,0,.68,.05,.97,.16,.29,.11,.53,.27,.73,.47,.2,.21,.35,.46,.46,.75s.16,.62,.16,.99v4.51h-1.08v-4.24c0-.52-.12-.91-.37-1.18-.24-.26-.61-.39-1.09-.39-.37,0-.71,.09-1.03,.28-.32,.19-.57,.45-.78,.78-.2,.33-.33,.71-.37,1.14v-.78c.03-.38,.12-.72,.26-1.03s.31-.57,.53-.79,.46-.39,.73-.51c.27-.12,.57-.18,.87-.18v.02Z" fill="#35374e"></path>
      <path d="M162.95,181.66h1.01c-.07,.44-.23,.84-.48,1.18-.25,.35-.57,.62-.97,.82-.4,.2-.86,.3-1.39,.3-.63,0-1.2-.15-1.7-.45s-.9-.72-1.2-1.24c-.29-.53-.44-1.13-.44-1.8s.14-1.28,.43-1.81c.28-.53,.67-.95,1.17-1.26s1.05-.46,1.68-.46,1.21,.15,1.67,.44c.46,.29,.79,.72,1.01,1.28s.31,1.25,.26,2.08h-5.14c.04,.44,.17,.83,.37,1.16s.46,.59,.78,.78c.32,.18,.69,.28,1.11,.28,.46,0,.85-.12,1.17-.36,.32-.24,.54-.55,.66-.94h0Zm-1.85-3.7c-.56,0-1.03,.16-1.41,.49-.38,.32-.63,.77-.76,1.32h3.96c-.04-.59-.23-1.04-.57-1.35-.35-.31-.75-.46-1.22-.46Z" fill="#35374e"></path>
    </g>
    <rect x="94.73" y="227.51" width="76.54" height="20.23" fill="#fff"></rect>
    <g>
      <path d="M101.29,233.59v7.77h4.87v1.01h-5.95v-8.79h1.08Z" fill="#35374e"></path>
      <path d="M110,242.51c-.53,0-1.02-.15-1.47-.45-.45-.3-.8-.72-1.07-1.24-.27-.53-.4-1.13-.4-1.8s.13-1.28,.41-1.81c.27-.53,.64-.95,1.1-1.26s.98-.46,1.56-.46c.63,0,1.11,.16,1.44,.48,.33,.32,.55,.75,.68,1.28,.12,.53,.18,1.12,.18,1.77,0,.34-.04,.71-.11,1.12-.07,.4-.2,.78-.37,1.15s-.42,.66-.74,.89-.72,.34-1.22,.34h.01Zm.27-1.04c.46,0,.84-.11,1.14-.34s.52-.53,.67-.9c.14-.37,.22-.79,.22-1.24,0-.5-.07-.93-.22-1.3-.15-.37-.37-.67-.68-.88-.3-.21-.68-.32-1.13-.32-.68,0-1.2,.24-1.57,.71s-.55,1.07-.55,1.79c0,.48,.09,.9,.28,1.28s.44,.67,.76,.88,.68,.32,1.09,.32h0Zm2.03-5.87h1.08v6.76h-.99c-.03-.32-.05-.59-.07-.81s-.03-.4-.03-.54v-5.41h0Z" fill="#35374e"></path>
      <path d="M114.81,240.2h1c.03,.39,.17,.7,.44,.95,.27,.24,.65,.36,1.16,.36,.31,0,.55-.04,.72-.12s.3-.19,.39-.33c.08-.14,.12-.29,.12-.47,0-.21-.05-.37-.16-.49s-.24-.22-.42-.3-.38-.16-.6-.23c-.26-.1-.53-.2-.8-.32-.28-.11-.53-.25-.77-.41s-.43-.35-.58-.58c-.14-.23-.22-.51-.22-.83,0-.27,.05-.53,.16-.76,.11-.24,.26-.45,.47-.62,.2-.18,.44-.31,.72-.41,.27-.1,.58-.15,.91-.15,.45,0,.83,.09,1.14,.27,.31,.18,.55,.43,.72,.76s.25,.71,.26,1.14h-.93c-.06-.41-.19-.7-.38-.89-.19-.18-.47-.28-.83-.28s-.65,.08-.85,.24-.3,.38-.3,.65c0,.2,.07,.36,.22,.49,.14,.13,.33,.25,.56,.35s.48,.21,.74,.32c.26,.11,.51,.22,.76,.33,.24,.11,.46,.23,.65,.38,.19,.14,.34,.32,.45,.53,.11,.21,.17,.47,.17,.79,0,.38-.09,.71-.26,1.01-.18,.29-.43,.52-.77,.68s-.75,.24-1.24,.24c-.44,0-.82-.06-1.13-.17s-.57-.26-.78-.45c-.21-.18-.37-.38-.48-.59-.11-.21-.19-.41-.22-.61s-.04-.37-.03-.5v.02Z" fill="#35374e"></path>
      <path d="M120.62,235.62h3.97v1.01h-3.97v-1.01Zm1.45-1.76h1.08v8.51h-1.08v-8.51Z" fill="#35374e"></path>
      <path d="M135.7,241.09l-.3,.09v-7.6h1.08v8.79h-1.08l-5.7-7.49,.3-.09v7.58h-1.08v-8.79h1.08l5.7,7.5h0Z" fill="#35374e"></path>
      <path d="M141,242.51c-.53,0-1.02-.15-1.47-.45s-.8-.72-1.07-1.24c-.27-.53-.4-1.13-.4-1.8s.13-1.28,.41-1.81c.27-.53,.64-.95,1.1-1.26s.98-.46,1.56-.46c.63,0,1.11,.16,1.44,.48,.33,.32,.55,.75,.68,1.28,.12,.53,.18,1.12,.18,1.77,0,.34-.04,.71-.11,1.12-.07,.4-.2,.78-.37,1.15s-.42,.66-.74,.89-.72,.34-1.22,.34h.01Zm.27-1.04c.46,0,.84-.11,1.14-.34s.52-.53,.67-.9c.14-.37,.22-.79,.22-1.24,0-.5-.07-.93-.22-1.3-.15-.37-.37-.67-.68-.88-.3-.21-.68-.32-1.13-.32-.68,0-1.2,.24-1.57,.71-.37,.47-.55,1.07-.55,1.79,0,.48,.09,.9,.28,1.28s.44,.67,.76,.88c.32,.21,.68,.32,1.09,.32h0Zm2.03-5.87h1.08v6.76h-.99c-.03-.32-.05-.59-.07-.81s-.03-.4-.03-.54v-5.41h.01Z" fill="#35374e"></path>
      <path d="M146.14,235.62h1.08v6.76h-1.08v-6.76Zm3.41-.13c.36,0,.68,.05,.97,.16,.29,.11,.53,.27,.73,.47,.2,.21,.35,.46,.46,.75s.16,.62,.16,.99v4.51h-1.08v-4.24c0-.52-.12-.91-.36-1.18-.24-.26-.61-.39-1.09-.39-.37,0-.71,.09-1.03,.28-.32,.19-.57,.45-.78,.78-.2,.33-.33,.71-.37,1.14v-.78c.03-.38,.12-.72,.26-1.03s.32-.57,.53-.79,.46-.39,.73-.51c.27-.12,.56-.18,.87-.18v.02Zm4.54,0c.36,0,.68,.05,.97,.16,.29,.11,.53,.27,.73,.47,.2,.21,.35,.46,.46,.75s.16,.62,.16,.99v4.51h-1.08v-4.24c0-.52-.12-.91-.37-1.18-.24-.26-.61-.39-1.09-.39-.37,0-.71,.09-1.03,.28-.32,.19-.57,.45-.78,.78-.2,.33-.33,.71-.37,1.14v-.78c.03-.38,.12-.72,.26-1.03s.31-.57,.53-.79,.46-.39,.73-.51c.27-.12,.57-.18,.87-.18v.02Z" fill="#35374e"></path>
      <path d="M162.95,240.2h1.01c-.07,.44-.23,.84-.48,1.18-.25,.35-.57,.62-.97,.82-.4,.2-.86,.3-1.39,.3-.63,0-1.2-.15-1.7-.45s-.9-.72-1.2-1.24c-.29-.53-.44-1.13-.44-1.8s.14-1.28,.43-1.81c.28-.53,.67-.95,1.17-1.26s1.05-.46,1.68-.46,1.21,.15,1.67,.44c.46,.29,.79,.72,1.01,1.28s.31,1.25,.26,2.08h-5.14c.04,.44,.17,.83,.37,1.16s.46,.59,.78,.78c.32,.18,.69,.28,1.11,.28,.46,0,.85-.12,1.17-.36,.32-.24,.54-.55,.66-.94h0Zm-1.85-3.7c-.56,0-1.03,.16-1.41,.49-.38,.32-.63,.77-.76,1.32h3.96c-.04-.59-.23-1.04-.57-1.35-.35-.31-.75-.46-1.22-.46Z" fill="#35374e"></path>
    </g>
    <rect x="94.73" y="288.82" width="49.62" height="20.23" fill="#fff"></rect>
    <g>
      <path d="M101.29,299.83v2.85h5.15v1.01h-6.23v-8.79h6.22v1.01h-5.14v2.89h4.2v1.01h-4.2v.02Z" fill="#35374e"></path>
      <path d="M108.07,299.54h3.92v1h-3.92v-1Z" fill="#35374e"></path>
      <path d="M113.95,296.93h1.08v6.76h-1.08v-6.76Zm3.41-.13c.36,0,.68,.05,.97,.16,.29,.11,.53,.27,.73,.47,.2,.21,.35,.46,.46,.75s.16,.62,.16,.99v4.51h-1.08v-4.24c0-.52-.12-.91-.36-1.18-.24-.26-.61-.39-1.09-.39-.37,0-.71,.09-1.03,.28s-.57,.45-.78,.78c-.2,.33-.33,.71-.37,1.14v-.78c.03-.38,.12-.72,.26-1.03s.32-.57,.53-.79,.46-.39,.73-.51c.27-.12,.56-.18,.87-.18v.02Zm4.54,0c.36,0,.68,.05,.97,.16,.29,.11,.53,.27,.73,.47,.2,.21,.35,.46,.46,.75s.16,.62,.16,.99v4.51h-1.08v-4.24c0-.52-.12-.91-.37-1.18-.24-.26-.61-.39-1.09-.39-.37,0-.71,.09-1.03,.28s-.57,.45-.78,.78c-.2,.33-.33,.71-.37,1.14v-.78c.03-.38,.12-.72,.26-1.03s.31-.57,.53-.79,.46-.39,.73-.51c.27-.12,.57-.18,.87-.18v.02Z" fill="#35374e"></path>
      <path d="M128.53,303.83c-.53,0-1.02-.15-1.47-.45-.45-.3-.8-.72-1.07-1.24-.27-.53-.4-1.13-.4-1.8s.13-1.28,.41-1.81c.27-.53,.64-.95,1.1-1.26s.98-.46,1.56-.46c.63,0,1.11,.16,1.44,.48s.55,.75,.68,1.28c.12,.53,.18,1.12,.18,1.77,0,.34-.04,.71-.11,1.12-.07,.4-.2,.78-.37,1.15s-.42,.66-.74,.89-.72,.34-1.22,.34h.01Zm.27-1.04c.46,0,.84-.11,1.14-.34s.52-.53,.67-.9c.14-.37,.22-.79,.22-1.24,0-.5-.07-.93-.22-1.3s-.37-.67-.68-.88c-.3-.21-.68-.32-1.13-.32-.68,0-1.2,.24-1.57,.71s-.55,1.07-.55,1.79c0,.48,.09,.9,.28,1.28s.44,.67,.76,.88c.32,.21,.68,.32,1.09,.32h0Zm2.03-5.87h1.08v6.76h-.99c-.03-.32-.05-.59-.07-.81s-.03-.4-.03-.54v-5.41h.01Z" fill="#35374e"></path>
      <path d="M135,294.23v1.31h-1.41v-1.31h1.41Zm-1.24,2.7h1.08v6.76h-1.08v-6.76Z" fill="#35374e"></path>
      <path d="M136.83,294.23h1.08v9.46h-1.08v-9.46Z" fill="#35374e"></path>
    </g>
    <rect x="94.73" y="351.16" width="66.58" height="20.23" fill="#fff"></rect>
    <g>
      <path d="M101.05,362.92v-1.01h2.76c.54,0,.98-.17,1.32-.51s.51-.78,.51-1.32-.17-1-.51-1.33c-.34-.33-.78-.49-1.32-.49h-2.54v7.77h-1.08v-8.79h3.62c.41,0,.78,.06,1.13,.19s.66,.31,.93,.55,.47,.54,.62,.89,.22,.75,.22,1.2-.07,.85-.22,1.2-.36,.65-.62,.89-.57,.43-.93,.55-.73,.19-1.13,.19h-2.76v.02Z" fill="#35374e"></path>
      <path d="M110.48,366.16c-.53,0-1.02-.15-1.47-.45-.45-.3-.8-.72-1.07-1.24-.27-.53-.4-1.13-.4-1.8s.13-1.28,.41-1.81c.27-.53,.64-.95,1.1-1.26s.98-.46,1.56-.46c.63,0,1.11,.16,1.44,.48s.55,.75,.68,1.28c.12,.53,.18,1.12,.18,1.77,0,.34-.04,.71-.11,1.12-.07,.4-.2,.78-.37,1.15s-.42,.66-.74,.89-.72,.34-1.22,.34h.01Zm.27-1.04c.46,0,.84-.11,1.14-.34s.52-.53,.67-.9c.14-.37,.22-.79,.22-1.24,0-.5-.07-.93-.22-1.3s-.37-.67-.68-.88c-.3-.21-.68-.32-1.13-.32-.68,0-1.2,.24-1.57,.71s-.55,1.07-.55,1.79c0,.48,.09,.9,.28,1.28s.44,.67,.76,.88,.68,.32,1.09,.32h0Zm2.03-5.87h1.08v6.76h-.99c-.03-.32-.05-.59-.07-.81s-.03-.4-.03-.54v-5.41h0Z" fill="#35374e"></path>
      <path d="M115.3,363.85h1c.03,.39,.17,.7,.44,.95,.27,.24,.65,.36,1.16,.36,.31,0,.55-.04,.72-.12s.3-.19,.39-.33c.08-.14,.12-.29,.12-.47,0-.21-.05-.37-.16-.49s-.24-.22-.42-.3-.38-.16-.6-.23c-.26-.1-.53-.2-.8-.32-.28-.11-.53-.25-.77-.41s-.43-.35-.58-.58c-.14-.23-.22-.51-.22-.83,0-.27,.05-.53,.16-.76,.11-.24,.26-.45,.47-.62,.2-.18,.44-.31,.72-.41,.27-.1,.58-.15,.91-.15,.45,0,.83,.09,1.14,.27s.55,.43,.72,.76c.17,.33,.25,.71,.26,1.14h-.93c-.06-.41-.19-.7-.38-.89-.19-.18-.47-.28-.83-.28s-.65,.08-.85,.24-.3,.38-.3,.65c0,.2,.07,.36,.22,.49,.14,.13,.33,.25,.56,.35s.48,.21,.74,.32c.26,.11,.51,.22,.76,.33,.24,.11,.46,.23,.65,.38,.19,.14,.34,.32,.45,.53s.17,.47,.17,.79c0,.38-.09,.71-.26,1.01-.18,.29-.43,.52-.77,.68s-.75,.24-1.24,.24c-.44,0-.82-.06-1.13-.17-.31-.11-.57-.26-.78-.45-.21-.18-.37-.38-.48-.59s-.19-.41-.22-.61-.04-.37-.03-.5v.02Z" fill="#35374e"></path>
      <path d="M121.26,363.85h1c.03,.39,.17,.7,.44,.95,.27,.24,.65,.36,1.16,.36,.31,0,.55-.04,.72-.12s.3-.19,.39-.33c.08-.14,.12-.29,.12-.47,0-.21-.05-.37-.16-.49s-.24-.22-.42-.3-.38-.16-.6-.23c-.26-.1-.53-.2-.8-.32-.28-.11-.53-.25-.77-.41s-.43-.35-.58-.58c-.14-.23-.22-.51-.22-.83,0-.27,.05-.53,.16-.76,.11-.24,.26-.45,.47-.62,.2-.18,.44-.31,.72-.41,.27-.1,.58-.15,.91-.15,.45,0,.83,.09,1.14,.27s.55,.43,.72,.76c.17,.33,.25,.71,.26,1.14h-.93c-.06-.41-.19-.7-.38-.89-.19-.18-.47-.28-.83-.28s-.65,.08-.85,.24-.3,.38-.3,.65c0,.2,.07,.36,.22,.49,.14,.13,.33,.25,.56,.35s.48,.21,.74,.32c.26,.11,.51,.22,.76,.33,.24,.11,.46,.23,.65,.38,.19,.14,.34,.32,.45,.53s.17,.47,.17,.79c0,.38-.09,.71-.26,1.01-.18,.29-.43,.52-.77,.68s-.75,.24-1.24,.24c-.44,0-.82-.06-1.13-.17-.31-.11-.57-.26-.78-.45-.21-.18-.37-.38-.48-.59s-.19-.41-.22-.61-.04-.37-.03-.5v.02Z" fill="#35374e"></path>
      <path d="M134.19,365.04h-.27l1.58-5.77h1.18l-2.07,6.76h-1.01l-2-5.92h.27l-2,5.92h-1.01l-2.05-6.76h1.18l1.55,5.76h-.27l1.82-5.76h1.31l1.8,5.77h0Z" fill="#35374e"></path>
      <path d="M140.56,366.16c-.58,0-1.12-.14-1.62-.42s-.91-.68-1.22-1.21-.47-1.15-.47-1.87,.16-1.34,.47-1.87,.72-.93,1.22-1.22,1.04-.43,1.62-.43,1.12,.14,1.62,.43c.5,.29,.9,.7,1.21,1.22,.31,.53,.46,1.15,.46,1.87s-.15,1.34-.46,1.87c-.31,.53-.71,.93-1.21,1.21s-1.04,.42-1.62,.42Zm0-1.01c.38,0,.73-.09,1.07-.28s.61-.47,.82-.84,.32-.83,.32-1.36-.11-.98-.32-1.36c-.21-.37-.48-.66-.82-.86s-.69-.3-1.07-.3-.74,.1-1.07,.29c-.34,.19-.62,.48-.83,.85-.22,.37-.32,.83-.32,1.37s.11,.98,.32,1.36c.21,.37,.49,.66,.83,.84,.34,.19,.7,.28,1.08,.28h0Z" fill="#35374e"></path>
      <path d="M145.22,359.27h1.08v6.76h-1.08v-6.76Zm3.24,1.01c-.46,0-.84,.12-1.16,.34s-.55,.51-.73,.84c-.17,.33-.29,.65-.34,.95v-.78c0-.08,0-.22,.04-.41s.1-.4,.2-.64c.1-.24,.23-.47,.4-.69s.38-.4,.64-.55c.26-.14,.58-.22,.95-.22v1.15h0Z" fill="#35374e"></path>
      <path d="M152.23,366.16c-.54,0-1.03-.15-1.48-.45s-.8-.72-1.06-1.24c-.26-.53-.39-1.13-.39-1.8s.13-1.28,.38-1.81,.6-.95,1.04-1.26c.44-.31,.95-.46,1.51-.46,.5,0,.92,.09,1.24,.28s.57,.44,.74,.76c.17,.33,.29,.7,.36,1.12,.07,.42,.1,.88,.1,1.37,0,.34-.04,.71-.11,1.12-.07,.4-.2,.78-.37,1.15s-.42,.66-.74,.89-.72,.34-1.22,.34h0Zm.27-1.04c.46,0,.84-.11,1.14-.34s.52-.53,.67-.9c.14-.37,.22-.79,.22-1.24,0-.5-.07-.93-.22-1.3s-.37-.67-.68-.88c-.3-.21-.68-.32-1.13-.32-.68,0-1.2,.24-1.57,.71-.37,.47-.55,1.07-.55,1.79,0,.48,.09,.9,.28,1.28s.44,.67,.76,.88c.32,.21,.68,.32,1.09,.32h0Zm2.03-8.57h1.08v9.46h-.99c-.02-.2-.04-.43-.06-.7-.02-.27-.03-.49-.03-.65v-8.11Z" fill="#35374e"></path>
    </g>
    <g>
      <path d="M189.63,473.23v-8.79h3.88c.61,0,1.14,.09,1.57,.28,.43,.18,.76,.46,.99,.83s.34,.83,.34,1.39c0,.38-.06,.7-.18,.97s-.29,.5-.51,.68-.47,.33-.76,.43-.61,.16-.95,.19l-.04-.07c.48,.02,.89,.08,1.23,.18s.61,.28,.8,.54,.28,.65,.28,1.18v2.19h-1.08v-2.19c0-.36-.06-.64-.18-.84-.12-.2-.32-.35-.61-.43-.28-.08-.67-.13-1.17-.13h-2.53v3.59h-1.08Zm1.08-4.61h2.8c.61,0,1.07-.16,1.37-.47s.45-.71,.45-1.21-.15-.84-.45-1.1-.76-.39-1.37-.39h-2.8v3.16h0Z" fill="#35374e"></path>
      <path d="M202.88,471.06h1.01c-.07,.44-.23,.84-.48,1.18-.25,.35-.57,.62-.97,.82s-.86,.3-1.39,.3c-.63,0-1.2-.15-1.7-.45-.5-.3-.9-.72-1.2-1.24-.29-.53-.44-1.13-.44-1.8s.14-1.28,.43-1.81c.28-.53,.67-.95,1.17-1.26s1.05-.46,1.68-.46,1.21,.15,1.67,.44c.46,.29,.79,.72,1.01,1.28s.31,1.25,.26,2.08h-5.14c.04,.44,.17,.83,.37,1.16s.46,.59,.78,.78c.32,.18,.69,.28,1.11,.28,.46,0,.85-.12,1.17-.36,.32-.24,.54-.55,.66-.94h0Zm-1.85-3.7c-.56,0-1.03,.16-1.41,.49-.38,.32-.63,.77-.76,1.32h3.96c-.04-.59-.23-1.04-.57-1.35-.35-.31-.75-.46-1.22-.46Z" fill="#35374e"></path>
      <path d="M207.75,472.16c-.48,0-.93-.12-1.36-.34-.43-.23-.78-.56-1.04-.99-.27-.43-.4-.95-.4-1.55s.13-1.12,.39-1.56,.6-.77,1.03-1.01c.42-.24,.88-.36,1.38-.36,.15,0,.3,.01,.44,.03s.27,.06,.4,.1h2.74v1.16c-.39,0-.77-.07-1.16-.22s-.71-.29-.98-.45l-.05-.05c.32,.17,.58,.37,.78,.61,.2,.23,.36,.5,.46,.79s.16,.61,.16,.95c0,.6-.13,1.12-.39,1.55s-.6,.76-1.02,.99c-.42,.23-.88,.34-1.38,.34h0Zm1.99,3.78v-.3c0-.48-.12-.82-.37-1.04s-.62-.32-1.12-.32h-1.35c-.3,0-.56-.03-.78-.07-.22-.05-.4-.12-.55-.22-.14-.1-.25-.22-.32-.36-.07-.14-.11-.31-.11-.49,0-.34,.1-.6,.31-.78,.21-.17,.46-.29,.77-.33,.31-.04,.6-.04,.88,0l.65,.15c-.49,.03-.86,.08-1.13,.15s-.4,.23-.4,.46c0,.14,.05,.25,.16,.33,.1,.08,.26,.13,.47,.13h1.41c.47,0,.9,.07,1.28,.2,.39,.13,.7,.35,.93,.66s.35,.74,.35,1.28v.57h-1.08v-.02Zm-1.99-4.78c.3,0,.57-.07,.83-.22,.26-.14,.47-.36,.63-.63s.24-.62,.24-1.03-.08-.75-.24-1.03-.37-.5-.63-.65c-.26-.15-.54-.22-.84-.22s-.58,.07-.84,.22-.47,.36-.64,.64-.24,.63-.24,1.04,.08,.75,.24,1.03,.37,.49,.64,.63c.26,.14,.54,.22,.84,.22h0Z" fill="#35374e"></path>
      <path d="M213.94,463.77v1.31h-1.41v-1.31h1.41Zm-1.24,2.7h1.08v6.76h-1.08v-6.76Z" fill="#35374e"></path>
      <path d="M215.3,471.06h1c.03,.39,.17,.7,.44,.95,.27,.24,.65,.36,1.16,.36,.31,0,.55-.04,.72-.12s.3-.19,.39-.33c.08-.14,.12-.29,.12-.47,0-.21-.05-.37-.16-.49s-.24-.22-.42-.3-.38-.16-.6-.23c-.26-.1-.53-.2-.8-.32-.28-.11-.53-.25-.77-.41s-.43-.35-.58-.58c-.14-.23-.22-.51-.22-.83,0-.27,.05-.53,.16-.76,.11-.24,.26-.45,.47-.62,.2-.18,.44-.31,.72-.41,.27-.1,.58-.15,.91-.15,.45,0,.83,.09,1.14,.27s.55,.43,.72,.76c.17,.33,.25,.71,.26,1.14h-.93c-.06-.41-.19-.7-.38-.89-.19-.18-.47-.28-.83-.28s-.65,.08-.85,.24-.3,.38-.3,.65c0,.2,.07,.36,.22,.49,.14,.13,.33,.25,.56,.35s.48,.21,.74,.32c.26,.11,.51,.22,.76,.33,.24,.11,.46,.23,.65,.38,.19,.14,.34,.32,.45,.53s.17,.47,.17,.79c0,.38-.09,.71-.26,1.01-.18,.29-.43,.52-.77,.68s-.75,.24-1.24,.24c-.44,0-.82-.06-1.13-.17-.31-.11-.57-.26-.78-.45-.21-.18-.37-.38-.48-.59s-.19-.41-.22-.61-.04-.37-.03-.5v.02Z" fill="#35374e"></path>
      <path d="M221.12,466.47h3.97v1.01h-3.97v-1.01Zm1.45-1.76h1.08v8.51h-1.08v-8.51Z" fill="#35374e"></path>
      <path d="M231.02,471.06h1.01c-.07,.44-.23,.84-.48,1.18-.25,.35-.57,.62-.97,.82s-.86,.3-1.39,.3c-.63,0-1.2-.15-1.7-.45-.5-.3-.9-.72-1.2-1.24-.29-.53-.44-1.13-.44-1.8s.14-1.28,.43-1.81c.28-.53,.67-.95,1.17-1.26s1.05-.46,1.68-.46,1.21,.15,1.67,.44c.46,.29,.79,.72,1.01,1.28s.31,1.25,.26,2.08h-5.14c.04,.44,.17,.83,.37,1.16s.46,.59,.78,.78c.32,.18,.69,.28,1.11,.28,.46,0,.85-.12,1.17-.36,.32-.24,.54-.55,.66-.94h0Zm-1.85-3.7c-.56,0-1.03,.16-1.41,.49-.38,.32-.63,.77-.76,1.32h3.96c-.04-.59-.23-1.04-.57-1.35-.35-.31-.75-.46-1.22-.46Z" fill="#35374e"></path>
      <path d="M233.47,466.47h1.08v6.76h-1.08v-6.76Zm3.24,1.01c-.46,0-.84,.12-1.16,.34s-.55,.51-.73,.84c-.17,.33-.29,.65-.34,.95v-.78c0-.08,0-.22,.04-.41s.1-.4,.2-.64c.1-.24,.23-.47,.4-.69s.38-.4,.64-.55c.26-.14,.58-.22,.95-.22v1.15h0Z" fill="#35374e"></path>
    </g>
    <g>
      <path d="M168.87,423.77l1.91-5.02h.65l1.92,5.02h-.66l-1.68-4.54h.19l-1.68,4.54h-.65Zm1.02-1.31v-.58h2.41v.58h-2.41Z" fill="#35374e"></path>
      <path d="M174.08,418.37h.62v5.41h-.62v-5.41Z" fill="#35374e"></path>
      <path d="M175.78,419.91h.62v3.86h-.62v-3.86Zm1.85,.58c-.26,0-.48,.07-.66,.2-.18,.13-.32,.29-.42,.48s-.17,.37-.2,.54v-.45s0-.12,.02-.23c.02-.11,.06-.23,.12-.37,.06-.14,.13-.27,.23-.39,.09-.13,.22-.23,.37-.31s.33-.12,.54-.12v.66h0Z" fill="#35374e"></path>
      <path d="M181.07,422.53h.58c-.04,.25-.13,.48-.27,.68s-.33,.36-.56,.47c-.23,.12-.49,.17-.79,.17-.36,0-.68-.09-.97-.26-.29-.17-.52-.41-.68-.71-.17-.3-.25-.65-.25-1.03s.08-.73,.24-1.04,.38-.54,.67-.72c.28-.18,.6-.26,.96-.26,.38,0,.69,.08,.95,.25s.45,.41,.58,.73,.18,.72,.15,1.19h-2.93c.03,.25,.1,.47,.21,.66s.26,.34,.45,.44c.19,.11,.4,.16,.63,.16,.26,0,.49-.07,.67-.21,.18-.14,.31-.32,.38-.54l-.02,.02Zm-1.06-2.12c-.32,0-.59,.09-.8,.28-.22,.18-.36,.44-.43,.76h2.26c-.02-.34-.13-.6-.33-.77s-.43-.26-.7-.26h0Z" fill="#35374e"></path>
      <path d="M183.92,423.85c-.3,0-.58-.09-.84-.26-.25-.17-.46-.41-.61-.71s-.23-.65-.23-1.03,.08-.73,.23-1.04,.36-.54,.63-.72,.56-.26,.89-.26c.36,0,.63,.09,.82,.27s.32,.43,.39,.73c.07,.3,.1,.64,.1,1.01,0,.2-.02,.41-.06,.64s-.11,.45-.21,.66-.24,.38-.42,.51-.41,.2-.69,.2h0Zm.15-.59c.26,0,.48-.06,.65-.19s.3-.3,.38-.51c.08-.21,.12-.45,.12-.71,0-.28-.04-.53-.13-.75-.08-.21-.21-.38-.39-.5-.17-.12-.39-.18-.64-.18-.39,0-.68,.13-.9,.41-.21,.27-.32,.61-.32,1.02,0,.27,.05,.52,.16,.73s.25,.38,.43,.5,.39,.18,.62,.18h.02Zm1.16-3.35h.62v3.86h-.56c-.02-.19-.03-.34-.04-.46s-.02-.23-.02-.31v-3.09Z" fill="#35374e"></path>
      <path d="M188.32,423.85c-.31,0-.59-.09-.85-.26-.25-.17-.46-.41-.61-.71s-.22-.65-.22-1.03,.07-.73,.22-1.04,.34-.54,.59-.72,.54-.26,.87-.26c.29,0,.52,.05,.71,.16s.32,.25,.42,.44c.1,.18,.17,.4,.21,.64,.04,.24,.06,.5,.06,.78,0,.2-.02,.41-.06,.64s-.11,.45-.21,.66-.24,.38-.42,.51-.41,.2-.69,.2h-.02Zm.15-.6c.26,0,.48-.06,.65-.19s.3-.3,.38-.51c.08-.21,.12-.45,.12-.71,0-.28-.04-.53-.13-.75-.08-.21-.21-.38-.39-.5-.17-.12-.39-.18-.64-.18-.39,0-.68,.13-.9,.41-.21,.27-.32,.61-.32,1.02,0,.27,.05,.52,.16,.73s.25,.38,.43,.5,.39,.18,.62,.18h.02Zm1.16-4.9h.62v5.41h-.56c0-.11-.02-.25-.04-.4s-.02-.28-.02-.37v-4.63h0Z" fill="#35374e"></path>
      <path d="M191.02,419.91h.66l1.38,3.71-.54,.15-1.51-3.86h0Zm3.59,0l-2.16,5.41h-.67l.93-2.09,1.24-3.32h.66Z" fill="#35374e"></path>
      <path d="M198.35,423.85c-.3,0-.58-.09-.84-.26-.25-.17-.46-.41-.61-.71s-.23-.65-.23-1.03,.08-.73,.23-1.04,.36-.54,.63-.72,.56-.26,.89-.26c.36,0,.63,.09,.82,.27s.32,.43,.39,.73c.07,.3,.1,.64,.1,1.01,0,.2-.02,.41-.06,.64s-.11,.45-.21,.66-.24,.38-.42,.51-.41,.2-.69,.2h0Zm.15-.59c.26,0,.48-.06,.65-.19s.3-.3,.38-.51c.08-.21,.12-.45,.12-.71,0-.28-.04-.53-.13-.75-.08-.21-.21-.38-.39-.5-.17-.12-.39-.18-.64-.18-.39,0-.68,.13-.9,.41-.21,.27-.32,.61-.32,1.02,0,.27,.05,.52,.16,.73s.25,.38,.43,.5,.39,.18,.62,.18h.02Zm1.16-3.35h.62v3.86h-.56c-.02-.19-.03-.34-.04-.46s-.02-.23-.02-.31v-3.09Z" fill="#35374e"></path>
      <path d="M202.91,419.91h.62v3.86h-.62v-3.86Zm1.95-.08c.21,0,.39,.03,.56,.09s.3,.15,.42,.27c.11,.12,.2,.26,.26,.43,.06,.17,.09,.36,.09,.57v2.58h-.62v-2.42c0-.3-.07-.52-.21-.67s-.35-.22-.63-.22c-.21,0-.41,.05-.59,.16-.18,.11-.33,.26-.44,.44-.12,.19-.19,.41-.21,.65v-.45c.02-.22,.07-.41,.15-.59,.08-.17,.18-.33,.3-.45s.26-.22,.42-.29,.32-.1,.5-.1h0Zm2.59,0c.21,0,.39,.03,.56,.09,.16,.06,.3,.15,.42,.27,.11,.12,.2,.26,.26,.43,.06,.17,.09,.36,.09,.57v2.58h-.62v-2.42c0-.3-.07-.52-.21-.67-.14-.15-.35-.22-.62-.22-.21,0-.41,.05-.59,.16-.18,.11-.33,.26-.44,.44-.12,.19-.19,.41-.21,.65v-.45c.02-.22,.07-.41,.15-.59,.08-.17,.18-.33,.3-.45s.26-.22,.42-.29,.32-.1,.5-.1h0Z" fill="#35374e"></path>
      <path d="M212.51,422.53h.58c-.04,.25-.13,.48-.27,.68s-.33,.36-.56,.47c-.23,.12-.49,.17-.79,.17-.36,0-.68-.09-.97-.26-.29-.17-.52-.41-.68-.71-.17-.3-.25-.65-.25-1.03s.08-.73,.24-1.04,.38-.54,.67-.72c.28-.18,.6-.26,.96-.26,.38,0,.69,.08,.95,.25s.45,.41,.58,.73,.18,.72,.15,1.19h-2.93c.03,.25,.1,.47,.21,.66s.26,.34,.45,.44c.19,.11,.4,.16,.63,.16,.26,0,.49-.07,.67-.21,.18-.14,.31-.32,.38-.54l-.02,.02Zm-1.06-2.12c-.32,0-.59,.09-.8,.28-.22,.18-.36,.44-.43,.76h2.26c-.02-.34-.13-.6-.33-.77s-.43-.26-.7-.26h0Z" fill="#35374e"></path>
      <path d="M213.91,419.91h.62v3.86h-.62v-3.86Zm1.95-.08c.21,0,.39,.03,.56,.09s.3,.15,.42,.27c.11,.12,.2,.26,.26,.43,.06,.17,.09,.36,.09,.57v2.58h-.62v-2.42c0-.3-.07-.52-.21-.67s-.35-.22-.63-.22c-.21,0-.41,.05-.59,.16-.18,.11-.33,.26-.44,.44-.12,.19-.19,.41-.21,.65v-.45c.02-.22,.07-.41,.15-.59,.08-.17,.18-.33,.3-.45s.26-.22,.42-.29,.32-.1,.5-.1h0Zm2.59,0c.21,0,.39,.03,.56,.09,.16,.06,.3,.15,.42,.27,.11,.12,.2,.26,.26,.43,.06,.17,.09,.36,.09,.57v2.58h-.62v-2.42c0-.3-.07-.52-.21-.67-.14-.15-.35-.22-.62-.22-.21,0-.41,.05-.59,.16-.18,.11-.33,.26-.44,.44-.12,.19-.19,.41-.21,.65v-.45c.02-.22,.07-.41,.15-.59,.08-.17,.18-.33,.3-.45s.26-.22,.42-.29,.32-.1,.5-.1h0Z" fill="#35374e"></path>
      <path d="M221.52,418.37v4.63c0,.09,0,.22-.02,.37,0,.15-.03,.29-.04,.4h-.56v-5.41h.62Zm1.31,5.49c-.28,0-.51-.07-.7-.2-.18-.13-.32-.3-.42-.51-.1-.21-.17-.43-.21-.66-.04-.23-.06-.44-.06-.64,0-.28,.02-.54,.06-.78s.11-.46,.2-.64c.1-.19,.24-.33,.42-.44s.42-.16,.71-.16c.32,0,.61,.09,.87,.26,.25,.17,.45,.41,.59,.72,.14,.3,.22,.65,.22,1.04s-.08,.73-.22,1.03c-.15,.3-.35,.54-.6,.71-.25,.17-.54,.26-.85,.26h0Zm-.15-.58c.24,0,.45-.06,.62-.18,.18-.12,.32-.29,.43-.5s.16-.46,.16-.73c0-.41-.11-.75-.32-1.02s-.51-.41-.9-.41c-.26,0-.47,.06-.65,.18-.17,.12-.3,.29-.39,.5-.08,.21-.13,.46-.13,.75,0,.26,.04,.49,.13,.71,.08,.21,.21,.39,.38,.51,.17,.13,.39,.19,.65,.19h.02Z" fill="#35374e"></path>
      <path d="M228.03,422.53h.58c-.04,.25-.13,.48-.27,.68s-.33,.36-.56,.47c-.23,.12-.49,.17-.79,.17-.36,0-.68-.09-.97-.26-.29-.17-.52-.41-.68-.71-.17-.3-.25-.65-.25-1.03s.08-.73,.24-1.04,.38-.54,.67-.72c.28-.18,.6-.26,.96-.26,.38,0,.69,.08,.95,.25s.45,.41,.58,.73,.18,.72,.15,1.19h-2.93c.03,.25,.1,.47,.21,.66s.26,.34,.45,.44c.19,.11,.4,.16,.63,.16,.26,0,.49-.07,.67-.21,.18-.14,.31-.32,.38-.54l-.02,.02Zm-1.06-2.12c-.32,0-.59,.09-.8,.28-.22,.18-.36,.44-.43,.76h2.26c-.02-.34-.13-.6-.33-.77s-.43-.26-.7-.26h0Z" fill="#35374e"></path>
      <path d="M229.43,419.91h.62v3.86h-.62v-3.86Zm1.85,.58c-.26,0-.48,.07-.66,.2-.18,.13-.32,.29-.42,.48s-.17,.37-.2,.54v-.45s0-.12,.02-.23c.02-.11,.06-.23,.12-.37,.06-.14,.13-.27,.23-.39,.09-.13,.22-.23,.37-.31s.33-.12,.54-.12v.66h0Z" fill="#35374e"></path>
      <path d="M233.04,422.22v-1.34h.19c.41,0,.72-.09,.92-.27s.31-.44,.31-.76c0-.3-.09-.54-.27-.72-.18-.17-.41-.26-.69-.26-.18,0-.34,.04-.49,.12-.14,.08-.26,.19-.34,.32-.08,.14-.12,.3-.12,.49h-.62c0-.17,.02-.33,.07-.48,.05-.15,.12-.29,.22-.42s.21-.23,.34-.32c.13-.09,.28-.16,.44-.21s.34-.08,.53-.08c.24,0,.45,.04,.64,.12s.35,.19,.48,.33,.24,.31,.31,.49c.07,.19,.11,.39,.11,.61,0,.31-.06,.57-.18,.79s-.29,.39-.51,.51c-.21,.12-.46,.2-.72,.23v.85h-.62Zm-.09,1.55v-.76h.79v.76h-.79Z" fill="#35374e"></path>
      <path d="M238.51,418.76v4.35h2.95v.66h-3.69v-5.01h.74Z" fill="#35374e"></path>
      <path d="M244.03,423.86c-.38,0-.72-.08-1.04-.24-.31-.16-.56-.39-.75-.69-.18-.3-.28-.66-.28-1.07s.09-.78,.28-1.08,.44-.53,.75-.69,.66-.24,1.04-.24,.72,.08,1.03,.24,.56,.39,.74,.69c.19,.3,.28,.66,.28,1.08s-.09,.77-.28,1.07-.43,.53-.74,.69c-.31,.16-.65,.24-1.03,.24Zm0-.64c.23,0,.45-.05,.65-.16,.2-.11,.36-.26,.48-.46s.18-.45,.18-.74-.06-.54-.18-.75-.28-.36-.48-.47c-.2-.11-.41-.16-.65-.16s-.45,.05-.65,.16c-.2,.11-.36,.26-.49,.47-.12,.21-.19,.46-.19,.76s.06,.53,.18,.74c.12,.2,.28,.36,.48,.46,.2,.11,.42,.16,.66,.16h.01Z" fill="#35374e"></path>
      <path d="M248.4,423.17c-.32,0-.61-.06-.88-.19s-.48-.32-.64-.56-.24-.55-.24-.9,.08-.64,.23-.89,.36-.44,.63-.58c.27-.14,.56-.2,.89-.2,.1,0,.19,0,.28,.02,.09,.01,.17,.03,.25,.06h1.68v.69c-.23,0-.46-.04-.7-.12s-.44-.16-.61-.25l-.02-.04c.18,.09,.33,.21,.46,.34s.23,.28,.3,.44,.1,.34,.1,.54c0,.34-.08,.63-.23,.88s-.36,.44-.63,.56c-.26,.13-.56,.19-.88,.19h.01Zm1.18,2.17v-.18c0-.26-.07-.45-.22-.56-.14-.11-.35-.17-.63-.17h-.9c-.19,0-.35-.02-.49-.05-.13-.03-.24-.08-.33-.14-.09-.06-.15-.13-.19-.22-.04-.08-.06-.18-.06-.28,0-.2,.06-.35,.19-.46,.12-.1,.28-.17,.47-.2s.38-.03,.58,0l.41,.08c-.29,.02-.52,.04-.67,.08s-.23,.13-.23,.26c0,.08,.03,.14,.09,.19s.15,.07,.26,.07h.94c.29,0,.55,.04,.78,.11,.23,.07,.41,.2,.54,.38,.13,.18,.2,.42,.2,.73v.34h-.73v.02Zm-1.19-2.79c.19,0,.35-.04,.51-.12,.15-.08,.27-.2,.37-.35,.09-.15,.14-.34,.14-.55s-.04-.41-.14-.57c-.09-.16-.21-.28-.37-.35-.15-.08-.32-.12-.51-.12s-.36,.04-.51,.12c-.16,.08-.28,.2-.38,.35-.09,.16-.14,.35-.14,.57s.05,.4,.14,.55,.22,.27,.37,.35,.33,.12,.52,.12Z" fill="#35374e"></path>
      <path d="M253.3,418.76h.74v5.01h-.74v-5.01Z" fill="#35374e"></path>
      <path d="M255.29,419.92h.74v3.85h-.74v-3.85Zm2.21-.08c.22,0,.41,.03,.59,.09,.17,.06,.32,.15,.45,.27,.12,.12,.22,.27,.29,.45,.07,.18,.1,.38,.1,.61v2.51h-.73v-2.35c0-.3-.07-.53-.22-.68s-.37-.23-.67-.23c-.23,0-.44,.05-.63,.16-.19,.11-.35,.25-.47,.43s-.19,.38-.22,.6v-.42c.02-.21,.07-.4,.16-.57,.08-.17,.19-.33,.32-.46s.29-.23,.46-.3c.17-.07,.37-.1,.57-.1h0Z" fill="#35374e"></path>
    </g>
    <g>
      <path d="M496.05,563.5h0c-14.61-2.95-23.98-17.25-20.93-31.95l40.31-194.08c3.05-14.7,17.37-24.22,31.98-21.28h0c14.61,2.95,23.98,17.25,20.93,31.95l-40.31,194.08c-3.05,14.7-17.37,24.22-31.98,21.28h0Z" fill="#d36466"></path>
      <path d="M501.37,564.54c-1.79,0-3.6-.18-5.41-.54h0c-7.16-1.44-13.33-5.6-17.36-11.7-4.07-6.16-5.48-13.56-3.96-20.83l40.31-194.08c3.1-14.94,17.71-24.67,32.57-21.67,7.16,1.44,13.33,5.6,17.36,11.7,4.07,6.16,5.48,13.56,3.96,20.83l-40.31,194.08c-2.72,13.12-14.32,22.21-27.16,22.21h0Zm-5.22-1.52c14.32,2.89,28.4-6.48,31.4-20.89l40.31-194.08c1.46-7.01,.1-14.14-3.82-20.08-3.88-5.88-9.82-9.88-16.72-11.27-14.32-2.89-28.4,6.48-31.4,20.89l-40.31,194.08c-1.46,7.01-.1,14.14,3.82,20.08,3.88,5.88,9.82,9.88,16.72,11.27h0Z" fill="#35374e"></path>
    </g>
    <g opacity=".2">
      <path d="M522.13,375.26s-7.81,125.35-42.53,177.61c0,0,12.03,18.92,35.75,7.26l6.78-184.87Z"></path>
    </g>
    <path d="M611.1,273.09s-.25,6.91-3.2,13.69c0,0-3.24,16.7,11.57,16.52,0,0,10.04,.5,15.84,2.88,0,0-7.02-31.12-11.19-42.01h-10.4l-2.63,8.92h.01Z" fill="#35374e"></path>
    <g opacity=".4">
      <path d="M611.1,273.09s-.25,6.91-3.2,13.69c0,0-3.24,16.7,11.57,16.52,0,0,10.04,.5,15.84,2.88,0,0-7.02-31.12-11.19-42.01h-10.4l-2.63,8.92h.01Z"></path>
    </g>
    <g>
      <path d="M554.3,306.64s-.2,.03-.56,.1c-17.53,3.24-30.4,18.32-31.01,36.14l-7.95,234.21h224.23l-55.63-230.99c-2.54-10.56-9.12-19.69-18.31-25.47-12.51-7.86-30.79-17.43-45.6-17.34l-65.17,3.35h0Z" fill="#d36466"></path>
      <path d="M739.64,577.59h-225.38l7.97-234.72c.61-17.96,13.82-33.37,31.42-36.62,.37-.07,.58-.1,.58-.1h.05l65.17-3.36h.21c14.85,0,33.02,9.46,45.67,17.41,9.36,5.89,15.94,15.04,18.53,25.78l55.78,231.61Zm-224.35-1h223.08l-55.49-230.38c-2.52-10.48-8.95-19.42-18.09-25.17-12.54-7.88-30.53-17.26-45.12-17.26h-.21l-65.12,3.35c-.06,0-.24,.04-.52,.09-17.14,3.17-30.01,18.17-30.6,35.67l-7.94,233.69h.01Z" fill="#35374e"></path>
    </g>
    <g opacity=".2">
      <path d="M514.78,577.09h224.23l-77.89-189.1s-2.59,19.2,8.33,60.15c0,0,7.51,49.82-2.05,47.78l-81.02-10.73s-9.74-6.18-69.13,23.43l-2.47,68.47h0Z"></path>
    </g>
    <g>
      <path d="M581.74,493.53s-50.31-.54-66.96,8.09l-19.72,19.25,19.72,29.9,14.58-23.93c1.75-2.88,4.86-4.65,8.23-4.7,7.14-.09,19.66-.53,26.72-2.37,0,0,5.29-1.89,10.5-1.6,0,0-2.96-14.04,6.93-24.62v-.02Z" fill="#fff"></path>
      <path d="M514.79,551.7l-20.38-30.9,20.13-19.62c16.57-8.59,65.14-8.16,67.2-8.14h1.13l-.77,.84c-9.59,10.26-6.84,24.04-6.81,24.18l.13,.64-.65-.04c-5.06-.27-10.26,1.56-10.31,1.58-7.18,1.88-19.92,2.31-26.88,2.4-3.22,.04-6.14,1.71-7.81,4.46l-14.99,24.61h.01Zm-19.09-30.77l19.05,28.89,14.17-23.26c1.85-3.05,5.09-4.89,8.65-4.94,6.91-.09,19.56-.52,26.6-2.36,.17-.06,4.96-1.77,10.04-1.64-.41-2.79-1.53-14.35,6.41-23.6-7.5,.01-50.5,.27-65.55,8l-19.37,18.91h0Z" fill="#35374e"></path>
    </g>
    <path d="M534.92,522.54s2.79-2.73,20.53-5.46c0,0,12.82,1.37,21.08-15.35,0,0-4.22,9.32-1.73,16.43,0,0,2.44-.49-10.5,1.6,0,0-13.74,3.47-29.38,2.78h0Z" fill="#35374e"></path>
    <g>
      <polygon points="417.19 417.43 428.79 417.43 534.92 577.09 525.14 577.09 417.19 417.43" fill="#9fb6df"></polygon>
      <path d="M535.86,577.59h-10.98l-.15-.22-108.48-160.44h12.81l.15,.22,106.65,160.44h0Zm-10.45-1h8.58l-105.47-158.66h-10.4l107.28,158.66h0Z" fill="#35374e"></path>
    </g>
    <g>
      <path d="M658.69,576.46v-15.16l-133.55,1.08,9.78,14.71s123.77-1.85,123.77-.63h0Z" fill="#9fb6df"></path>
      <path d="M534.66,577.59l-10.44-15.71,134.98-1.09v15.67h-.5l-.23,.42c-2.75-.89-90.11,.21-123.53,.71h-.28Zm-8.59-14.72l9.12,13.72c35.15-.53,113.93-1.59,123.01-.67v-14.12l-132.12,1.07h-.01Z" fill="#35374e"></path>
    </g>
    <g>
      <path d="M607.89,286.77s-3.59,16.36,11.57,16.52c0,0,10.38,9.03-27.84,28.82,0,0-27.3,16.38-31.4-5.46,0,0-2.05-8.76,0-17.69,0,0,31.85,10.28,47.66-22.19h.01Z" fill="#fff"></path>
      <path d="M573.09,338.52c-2.14,0-4.22-.34-6.1-1.19-3.81-1.71-6.25-5.28-7.25-10.59-.02-.07-2.05-8.96,0-17.89l.12-.53,.52,.17c.32,.1,31.62,9.76,47.06-21.93l1.83-3.75-.89,4.08c-.02,.08-1.6,7.59,2.09,12.23,1.92,2.41,4.94,3.65,9,3.69h.18l.14,.12c.07,.06,1.77,1.58,1.41,4.66-.57,4.76-6.12,12.96-29.34,24.98-.48,.29-10.06,5.96-18.76,5.96h-.01Zm-12.49-28.94c-1.81,8.53,.09,16.87,.11,16.95,.94,4.99,3.18,8.31,6.68,9.88,9.08,4.08,23.82-4.65,23.97-4.73,24.06-12.46,28.4-20.53,28.84-24.23,.25-2.11-.63-3.3-.95-3.67-4.27-.08-7.48-1.45-9.57-4.06-2.53-3.18-2.8-7.46-2.64-10.24-15.03,27.34-42.31,21.22-46.45,20.1h.01Z" fill="#35374e"></path>
    </g>
    <path d="M560.23,308.96s-5.74,30.16,12.83,29.04c0,0,6.28,.93,18.57-5.89,0,0,35.88-17.37,27.84-28.82,0,0-1.29,0-2.96-.27,0,0,1.74,7.25-10.55,15.44,0,0-27.3,22.52-36.17,17.06,0,0-6.83-2.73-8.19-19.11,0,0,14.81,13.64,46.31-21.85,0,0-.81-3.99-.01-7.79,0,0-12.85,31.12-47.66,22.19h-.01Z" fill="#35374e"></path>
    <g>
      <path d="M585.88,307.96c-20.37,7.89-43.27-2.22-51.16-22.59l-9.02-23.27-.89-2.3c-7.89-20.37,2.23-43.27,22.59-51.16,4.7-1.82,9.53-2.68,14.28-2.68,15.85,0,30.81,9.6,36.88,25.27l7.91,20.41,2,5.17c7.88,20.37-2.23,43.27-22.59,51.16h0Z" fill="#fff"></path>
      <path d="M571.58,311.15c-5.5,0-10.98-1.15-16.16-3.43-9.79-4.32-17.3-12.19-21.17-22.17l-9.9-25.58c-3.86-9.97-3.61-20.86,.71-30.64,4.32-9.79,12.19-17.3,22.17-21.17,4.64-1.8,9.51-2.72,14.46-2.72,16.41,0,31.42,10.29,37.34,25.59l9.91,25.58c7.97,20.59-2.29,43.83-22.88,51.8-4.69,1.82-9.59,2.73-14.48,2.73h0Zm-9.9-104.69c-4.83,0-9.57,.89-14.1,2.65-9.73,3.77-17.4,11.1-21.62,20.64-4.21,9.54-4.46,20.15-.69,29.88l9.9,25.58c3.77,9.73,11.1,17.4,20.64,21.62s20.15,4.46,29.88,.69h0c20.07-7.77,30.08-30.43,22.31-50.51l-9.91-25.58c-5.78-14.93-20.41-24.96-36.41-24.96h0Z" fill="#35374e"></path>
    </g>
    <ellipse cx="538.39" cy="269.66" rx="2.73" ry="5.12" transform="translate(-62.7 305.32) rotate(-30)" fill="#35374e"></ellipse>
    <ellipse cx="573.2" cy="263.56" rx="2.73" ry="5.12" transform="translate(-41.78 122.79) rotate(-11.8)" fill="#35374e"></ellipse>
    <g opacity=".5">
      <ellipse cx="573.88" cy="276.83" rx="12.29" ry="10.92" fill="#eaeaea"></ellipse>
    </g>
    <g opacity=".5">
      <ellipse cx="539.41" cy="282.29" rx="13.31" ry="10.92" fill="#eaeaea"></ellipse>
    </g>
    <polygon points="584.64 271.34 584.1 270.84 605.76 253.96 606.3 254.45 584.64 271.34" fill="#d36466"></polygon>
    <path d="M529.14,223.02c.06,.07-.12,.13-.17,.21-3.21,4.8-4.43,9.99-2.71,15.2,5.05,15.29-3.04,22.76-3.04,22.76-2.2-10.17-7.35-28.73-7.35-28.73-4.78-20.48,8.53-29.01,8.53-29.01,0,0-3.14,10.81,4.74,19.57h0Z" fill="#35374e"></path>
    <g opacity=".2">
      <path d="M529.14,223.02c.06,.07-.12,.13-.17,.21-3.21,4.8-4.43,9.99-2.71,15.2,5.05,15.29-3.04,22.76-3.04,22.76-2.2-10.17-7.35-28.73-7.35-28.73-4.78-20.48,8.53-29.01,8.53-29.01,0,0-3.14,10.81,4.74,19.57h0Z"></path>
    </g>
    <path d="M647.6,311.63s-5.46-3.41-12.29-5.46c0,0-7.35-32.15-11.19-42.01l-17.65-12.53s-38.12,16.16-50.15-7.7c-.45-.9-.83-1.82-1.19-2.76-2.06-5.38-13.92-34.16-25.99-18.15h0c-.17-.18-2.33-2.4-3.99-6q-1.11-2.4,0,0c-2.01-4.36-3.29-10.74,.59-17.93,1.49-2.76,3.58-5.15,6.03-7.13,9.73-7.85,44.61-32.8,70.79-10.69,0,0,14.33,11.6,20.48,32.76,0,0,2.05,10.24,12.97,18.43,0,0,.55,.07,1.3,.31,3.09,.96,9.56,4.54-4.72,16.07,0,0,7.51,16.38,15.02,62.79h-.01Z" fill="#35374e"></path>
    <g opacity=".2">
      <path d="M647.6,311.63s-5.46-3.41-12.29-5.46c0,0-7.35-32.15-11.19-42.01l-17.65-12.53s-38.12,16.16-50.15-7.7c-.45-.9-.83-1.82-1.19-2.76-2.06-5.38-13.92-34.16-25.99-18.15h0c-.18-.15-2.95-2.46-3.99-6q-.69-2.36,0,0c1.04,3.53,11.88-11.17,20.07,1.79l13.65,20.48s9.56,21.16,36.17,6.83c0,0,11.6-9.56,28.67-8.19,0,0,10.27,2.28,13.59-5.15,3.09,.96,9.56,4.54-4.72,16.07,0,0,7.51,16.38,15.02,62.79h0Z"></path>
    </g>
    <g>
      <path d="M756.85,573.29h0c-13.55,6.2-29.71-.24-36.09-14.4l-84.24-186.92c-6.38-14.15-.56-30.66,12.99-36.86h0c13.55-6.2,29.71,.24,36.09,14.4l84.24,186.92c6.38,14.15,.56,30.66-12.99,36.86Z" fill="#d36466"></path>
      <path d="M746.04,576.16c-3.21,0-6.45-.58-9.57-1.76-7.19-2.7-12.93-8.13-16.16-15.3l-84.24-186.92c-6.48-14.38-.54-31.21,13.24-37.52,6.49-2.97,13.8-3.2,20.59-.65,7.19,2.7,12.93,8.13,16.16,15.3l84.24,186.92c6.48,14.38,.54,31.21-13.24,37.52h0c-3.5,1.6-7.25,2.41-11.02,2.41Zm-85.71-242.9c-3.63,0-7.24,.78-10.61,2.32-13.28,6.08-19,22.32-12.74,36.2l84.24,186.92c3.12,6.92,8.66,12.17,15.6,14.77,6.54,2.45,13.58,2.23,19.83-.63h0c13.28-6.08,19-22.32,12.74-36.2l-84.24-186.92c-3.12-6.92-8.66-12.17-15.6-14.77-3.01-1.13-6.12-1.69-9.22-1.69h0Z" fill="#35374e"></path>
    </g>
    <g>
      <path d="M773.69,556.23h0c-3.63,14.57-18.29,23.41-32.73,19.74l-146.38-37.18c-14.44-3.67-23.2-18.45-19.56-33.03h0c3.63-14.57,18.29-23.41,32.73-19.74l146.38,37.18c14.44,3.67,23.2,18.45,19.56,33.03Z" fill="#d36466"></path>
      <path d="M747.59,577.3c-2.25,0-4.51-.28-6.75-.85l-146.38-37.18c-14.68-3.73-23.62-18.82-19.93-33.63,1.8-7.22,6.29-13.28,12.63-17.08,6.28-3.75,13.63-4.83,20.7-3.03l146.38,37.18c14.68,3.73,23.62,18.82,19.93,33.63h0c-1.8,7.22-6.29,13.28-12.63,17.08-4.29,2.57-9.09,3.88-13.95,3.88h0Zm-146.47-91.62c-4.69,0-9.31,1.27-13.44,3.74-6.12,3.66-10.44,9.5-12.18,16.46-3.56,14.28,5.05,28.83,19.2,32.42l146.38,37.18c6.81,1.73,13.9,.69,19.94-2.92,6.12-3.66,10.44-9.5,12.18-16.46l.49,.12-.49-.12c3.56-14.28-5.05-28.83-19.2-32.42l-146.38-37.18c-2.15-.55-4.33-.82-6.5-.82Z" fill="#35374e"></path>
    </g>
    <g opacity=".2">
      <path d="M535.2,204.14c9.57-2.78,18.97,3.71,24.88,10.74,5.13,6.55,9.42,13.7,13.81,20.76-5.2-6.45-9.7-13.41-14.84-19.89-5.86-6.83-14.36-13.2-23.84-11.61h0Z"></path>
    </g>
    <g opacity=".2">
      <path d="M566.37,209.26c5.62,9.62,14.58,16.72,24,22.37,1.37,.81,2.77,1.55,4.14,2.39-11.62-4.23-23.56-12.92-28.14-24.76h0Z"></path>
    </g>
    <g>
      <rect x="270.16" y="576.46" width="573.33" height="18.43" fill="#fff"></rect>
      <path d="M843.98,595.38H269.66v-19.43H843.98v19.43Zm-573.33-1H842.98v-17.43H270.66v17.43h-.01Z" fill="#35374e"></path>
    </g>
    <path d="M576.05,345.22c-1.13,0-2.15-.08-3.08-.21-6.43-.92-8.96-4.42-9.07-4.56-.16-.22-.11-.54,.12-.7,.22-.16,.54-.11,.7,.12,.02,.03,2.44,3.32,8.45,4.16,7.15,1,20.13-1.37,41.36-18.3,.22-.17,.53-.14,.7,.08s.14,.53-.08,.7c-18.82,15.01-31.34,18.71-39.1,18.71Z" fill="#35374e"></path>
    <g>
      <ellipse cx="613.45" cy="257.73" rx="11.76" ry="15.05" transform="translate(-44.06 155.6) rotate(-13.96)" fill="#fff"></ellipse>
      <path d="M614.85,273.09c-5.81,0-11.47-5.09-13.29-12.42-2.07-8.32,1.59-16.41,8.15-18.05,6.57-1.64,13.58,3.81,15.65,12.13,2.07,8.32-1.59,16.42-8.15,18.05-.78,.19-1.58,.29-2.36,.29h0Zm-2.77-29.75c-.71,0-1.43,.08-2.13,.26-6.03,1.5-9.35,9.05-7.42,16.83,1.94,7.78,8.41,12.9,14.44,11.4s9.35-9.05,7.42-16.83c-1.71-6.87-6.95-11.66-12.31-11.66h0Z" fill="#35374e"></path>
    </g>
    <path d="M502.37,528.62c-.12,0-.25-.04-.34-.13-.2-.19-.21-.5-.02-.71l12.4-13.28c.19-.2,.51-.21,.71-.02s.21,.5,.02,.71l-12.4,13.28c-.1,.11-.23,.16-.37,.16h0Z" fill="#35374e"></path>
    <path d="M510.62,541.02c-.1,0-.2-.03-.29-.09-.22-.16-.27-.47-.11-.7l11.12-15.39c.16-.22,.47-.27,.7-.11,.22,.16,.27,.47,.11,.7l-11.12,15.39c-.1,.13-.25,.21-.41,.21h0Z" fill="#35374e"></path>
    <g>
      <polygon points="236.71 417.43 341.76 577.09 525.14 577.09 417.19 417.43 236.71 417.43" fill="#9fb6df"></polygon>
      <path d="M526.08,577.59h-184.59l-105.71-160.66h181.67l.15,.22,108.48,160.44Zm-184.05-1h182.17l-107.28-158.66H237.64l104.39,158.66h0Z" fill="#35374e"></path>
    </g>
    <g>
      <ellipse cx="369.81" cy="496.26" rx="21.84" ry="9.21" fill="#fff"></ellipse>
      <path d="M369.81,505.97c-12.53,0-22.34-4.27-22.34-9.71s9.81-9.71,22.34-9.71,22.34,4.27,22.34,9.71-9.81,9.71-22.34,9.71Zm0-18.43c-11.57,0-21.34,3.99-21.34,8.71s9.77,8.71,21.34,8.71,21.34-3.99,21.34-8.71-9.77-8.71-21.34-8.71Z" fill="#35374e"></path>
    </g>
    <g opacity=".2">
      <polygon points="236.71 417.43 317.7 540.52 412.07 417.43 236.71 417.43" fill="#fff"></polygon>
    </g>
    <path d="M531.23,266.06c-.06,0-.12,0-.17-.03-.26-.1-.39-.38-.3-.64,.02-.05,2.07-5.37,8.8-3.22,.26,.08,.41,.37,.32,.63-.08,.26-.37,.41-.63,.32-5.81-1.86-7.49,2.43-7.56,2.61-.08,.2-.27,.33-.47,.33h0Z" fill="#35374e"></path>
    <path d="M562.8,300.51c-4.77,0-8.51-2.96-8.57-3.01-.21-.17-.25-.49-.07-.7,.17-.21,.49-.25,.7-.07,.36,.29,8.87,6.99,16.29-1.32,.18-.21,.5-.22,.71-.04s.22,.5,.04,.71c-3.02,3.38-6.24,4.44-9.09,4.44h0Z" fill="#35374e"></path>
    <path d="M556.49,287.9c-.12,0-.24-.04-.33-.13-.11-.09-.17-.23-.17-.37v-17.75c0-.28,.22-.5,.5-.5s.5,.22,.5,.5v17.18l4.89-.57c.27-.02,.52,.17,.55,.44,.03,.27-.17,.52-.44,.55l-5.44,.63h-.06v.02Z" fill="#35374e"></path>
    <path d="M539.41,293.55c-7.53,0-13.65-5.05-13.65-11.26s6.12-11.26,13.65-11.26,13.65,5.05,13.65,11.26-6.12,11.26-13.65,11.26Zm0-21.84c-7.15,0-12.97,4.75-12.97,10.58s5.82,10.58,12.97,10.58,12.97-4.75,12.97-10.58-5.82-10.58-12.97-10.58Z" fill="#d36466"></path>
    <path d="M573.88,288.09c-6.96,0-12.63-5.05-12.63-11.26s5.66-11.26,12.63-11.26,12.63,5.05,12.63,11.26-5.66,11.26-12.63,11.26Zm0-21.84c-6.59,0-11.94,4.75-11.94,10.58s5.36,10.58,11.94,10.58,11.94-4.75,11.94-10.58-5.36-10.58-11.94-10.58Z" fill="#d36466"></path>
    <path d="M551.7,277.81l-.53-.44s4.39-5.18,10.64-1.95l-.31,.61c-5.76-2.97-9.64,1.58-9.8,1.78h0Z" fill="#d36466"></path>
  </g>
  <path d="M615.45,266.06h-.03c-.28-.01-.49-.25-.47-.53,.5-9.62-4.9-12.61-4.96-12.63-.24-.13-.34-.43-.21-.68,.13-.24,.44-.34,.68-.21,.25,.13,6.02,3.32,5.49,13.57-.01,.27-.23,.47-.5,.47h0Z" fill="#35374e"></path>
</svg>
