<?xml version="1.0" encoding="UTF-8"?>
<svg xmlns="http://www.w3.org/2000/svg" id="a" width="865.76" height="682.89" viewBox="0 0 865.76 682.89">
  <rect x="424.21" y="38.56" width="324.22" height="456.15" rx="13.64" ry="13.64" fill="#35374e"></rect>
  <g>
    <rect x="439.53" y="87.46" width="293.57" height="358.21" rx="6.04" ry="6.04" fill="#fff"></rect>
    <path d="M727.06,446.17H445.57c-3.61,0-6.54-2.93-6.54-6.54V93.5c0-3.61,2.93-6.54,6.54-6.54h281.49c3.61,0,6.54,2.93,6.54,6.54V439.63c0,3.61-2.93,6.54-6.54,6.54ZM445.57,87.96c-3.06,0-5.54,2.49-5.54,5.54V439.63c0,3.06,2.49,5.54,5.54,5.54h281.49c3.06,0,5.54-2.49,5.54-5.54V93.5c0-3.06-2.49-5.54-5.54-5.54H445.57Z" fill="#35374e"></path>
  </g>
  <g>
    <rect x="537.94" y="56.28" width="96.75" height="10.95" rx="5.11" ry="5.11" fill="#fff"></rect>
    <path d="M629.58,67.73h-86.52c-3.09,0-5.61-2.52-5.61-5.61v-.73c0-3.09,2.52-5.61,5.61-5.61h86.52c3.09,0,5.61,2.52,5.61,5.61v.73c0,3.09-2.52,5.61-5.61,5.61Zm-86.52-10.95c-2.54,0-4.61,2.07-4.61,4.61v.73c0,2.54,2.07,4.61,4.61,4.61h86.52c2.54,0,4.61-2.07,4.61-4.61v-.73c0-2.54-2.07-4.61-4.61-4.61h-86.52Z" fill="#35374e"></path>
  </g>
  <g>
    <circle cx="586.32" cy="470.2" r="13.92" fill="#fff"></circle>
    <path d="M586.32,484.62c-7.95,0-14.42-6.47-14.42-14.42s6.47-14.42,14.42-14.42,14.42,6.47,14.42,14.42-6.47,14.42-14.42,14.42Zm0-27.84c-7.4,0-13.42,6.02-13.42,13.42s6.02,13.42,13.42,13.42,13.42-6.02,13.42-13.42-6.02-13.42-13.42-13.42Z" fill="#35374e"></path>
  </g>
  <g>
    <g>
      <g>
        <rect x="470.35" y="190.1" width="231.94" height="33.19" fill="#fff"></rect>
        <path d="M702.79,223.79h-232.94v-34.19h232.94v34.19Zm-231.94-1h230.94v-32.19h-230.94v32.19Z" fill="#35374e"></path>
      </g>
      <rect x="483.21" y="179.27" width="106.14" height="21.67" fill="#fff"></rect>
      <g>
        <path d="M490.24,191.05v3.05h5.52v1.09h-6.67v-9.41h6.66v1.08h-5.5v3.1h4.5v1.08h-4.51Z" fill="#35374e"></path>
        <path d="M497.56,187.96h1.16v7.24h-1.16v-7.24Zm3.65-.14c.39,0,.73,.06,1.04,.17,.31,.12,.57,.28,.78,.51,.21,.22,.38,.49,.49,.8,.12,.31,.17,.67,.17,1.06v4.83h-1.16v-4.55c0-.56-.13-.98-.39-1.26s-.65-.42-1.17-.42c-.4,0-.76,.1-1.1,.3s-.62,.48-.83,.83c-.22,.35-.35,.76-.4,1.22v-.84c.03-.41,.13-.77,.28-1.1s.34-.61,.56-.85c.23-.24,.49-.42,.78-.54,.29-.13,.61-.19,.93-.19l.02,.03Zm4.86,0c.39,0,.73,.06,1.04,.17,.31,.12,.57,.28,.78,.51,.21,.22,.38,.49,.49,.8,.12,.31,.17,.67,.17,1.06v4.83h-1.16v-4.55c0-.56-.13-.98-.39-1.26s-.65-.42-1.17-.42c-.4,0-.76,.1-1.1,.3s-.62,.48-.83,.83c-.22,.35-.35,.76-.4,1.22v-.84c.03-.41,.13-.77,.28-1.1s.34-.61,.56-.85,.49-.42,.78-.54c.29-.13,.61-.19,.93-.19l.02,.03Z" fill="#35374e"></path>
        <path d="M513.18,195.34c-.57,0-1.09-.16-1.57-.48s-.86-.77-1.14-1.33c-.29-.56-.43-1.21-.43-1.93s.15-1.37,.43-1.94c.29-.57,.68-1.02,1.18-1.35s1.05-.49,1.67-.49c.68,0,1.19,.17,1.54,.51s.59,.8,.72,1.37c.13,.57,.2,1.2,.2,1.9,0,.37-.04,.76-.12,1.19s-.21,.84-.4,1.23-.45,.71-.79,.96-.77,.37-1.3,.37h.01Zm.29-1.11c.49,0,.9-.12,1.22-.36s.56-.56,.72-.96,.23-.84,.23-1.32c0-.53-.08-1-.24-1.4s-.4-.71-.72-.94-.73-.34-1.21-.34c-.72,0-1.28,.25-1.68,.76s-.59,1.15-.59,1.92c0,.51,.1,.97,.3,1.37,.2,.4,.47,.71,.81,.94s.73,.34,1.17,.34h0Zm2.17-6.29h1.16v7.24h-1.06c-.03-.35-.05-.64-.07-.87s-.03-.42-.03-.58v-5.79h0Z" fill="#35374e"></path>
        <path d="M520.11,185.06v1.4h-1.51v-1.4h1.51Zm-1.33,2.9h1.16v7.24h-1.16v-7.24Z" fill="#35374e"></path>
        <path d="M522.07,185.06h1.16v10.13h-1.16v-10.13Z" fill="#35374e"></path>
        <path d="M531.43,195.34c-.62,0-1.2-.15-1.74-.45s-.98-.73-1.31-1.3-.5-1.23-.5-2,.17-1.44,.5-2,.77-1,1.31-1.31,1.12-.46,1.74-.46,1.19,.15,1.73,.46c.54,.31,.97,.75,1.29,1.31s.49,1.23,.49,2-.16,1.44-.49,2-.76,1-1.29,1.3c-.54,.3-1.11,.45-1.73,.45Zm0-1.09c.41,0,.79-.1,1.14-.3,.36-.2,.65-.5,.88-.9s.34-.89,.34-1.46-.11-1.05-.34-1.46-.52-.71-.88-.92c-.36-.21-.74-.32-1.14-.32s-.79,.1-1.15,.31c-.36,.21-.66,.51-.89,.91-.23,.4-.35,.89-.35,1.47s.11,1.05,.34,1.46c.23,.4,.52,.7,.89,.9s.75,.3,1.16,.3h0Z" fill="#35374e"></path>
        <path d="M536.43,187.96h1.16v7.24h-1.16v-7.24Zm3.47,1.09c-.49,0-.9,.12-1.24,.37s-.59,.54-.78,.9c-.19,.35-.31,.69-.37,1.02v-.84c-.01-.09,0-.23,.04-.43s.11-.43,.22-.69c.11-.25,.25-.5,.43-.74s.41-.43,.69-.59c.28-.15,.62-.23,1.01-.23v1.23h0Z" fill="#35374e"></path>
        <path d="M545.36,191.87v-1.09h2.95c.58,0,1.05-.18,1.41-.54s.54-.83,.54-1.41-.18-1.07-.54-1.43c-.36-.35-.83-.53-1.41-.53h-2.72v8.32h-1.16v-9.41h3.88c.43,0,.84,.07,1.22,.2,.38,.14,.71,.33,.99,.59,.28,.26,.51,.58,.67,.96s.24,.81,.24,1.29-.08,.91-.24,1.29c-.16,.38-.38,.69-.67,.96-.29,.26-.62,.46-.99,.59-.38,.14-.78,.2-1.22,.2h-2.95Z" fill="#35374e"></path>
        <path d="M553.19,195.2v-10.13h1.16v10.13h-1.16Zm4.98,0v-4.55c0-.38-.06-.69-.17-.93-.12-.25-.29-.43-.52-.56-.23-.13-.52-.19-.87-.19-.4,0-.76,.1-1.1,.3-.34,.2-.62,.48-.83,.83-.22,.35-.35,.76-.4,1.22v-.84c.03-.41,.13-.77,.28-1.1s.34-.61,.56-.85,.49-.42,.78-.54c.29-.13,.61-.19,.93-.19,.39,0,.73,.06,1.04,.17,.31,.12,.57,.28,.78,.51,.21,.22,.38,.49,.49,.8,.12,.31,.17,.67,.17,1.06v4.83h-1.16l.02,.03Z" fill="#35374e"></path>
        <path d="M564.35,195.34c-.62,0-1.2-.15-1.74-.45s-.98-.73-1.31-1.3-.5-1.23-.5-2,.17-1.44,.5-2,.77-1,1.31-1.31,1.12-.46,1.74-.46,1.19,.15,1.73,.46c.54,.31,.97,.75,1.29,1.31s.49,1.23,.49,2-.16,1.44-.49,2-.76,1-1.29,1.3c-.54,.3-1.11,.45-1.73,.45Zm0-1.09c.41,0,.79-.1,1.14-.3,.36-.2,.65-.5,.88-.9s.34-.89,.34-1.46-.11-1.05-.34-1.46-.52-.71-.88-.92c-.36-.21-.74-.32-1.14-.32s-.79,.1-1.15,.31c-.36,.21-.66,.51-.89,.91-.23,.4-.35,.89-.35,1.47s.11,1.05,.34,1.46c.23,.4,.52,.7,.89,.9s.75,.3,1.16,.3h0Z" fill="#35374e"></path>
        <path d="M569.35,187.96h1.16v7.24h-1.16v-7.24Zm3.65-.14c.39,0,.73,.06,1.04,.17,.31,.12,.57,.28,.78,.51,.21,.22,.38,.49,.49,.8,.12,.31,.17,.67,.17,1.06v4.83h-1.16v-4.55c0-.56-.13-.98-.39-1.26s-.65-.42-1.17-.42c-.4,0-.76,.1-1.1,.3-.34,.2-.62,.48-.83,.83-.22,.35-.35,.76-.4,1.22v-.84c.03-.41,.13-.77,.28-1.1s.34-.61,.56-.85c.23-.24,.49-.42,.78-.54,.29-.13,.61-.19,.93-.19l.02,.03Z" fill="#35374e"></path>
        <path d="M582.49,192.86h1.09c-.08,.47-.25,.9-.51,1.27-.27,.37-.61,.67-1.04,.88-.43,.22-.92,.33-1.48,.33-.68,0-1.28-.16-1.82-.48s-.97-.77-1.28-1.33-.47-1.21-.47-1.93,.15-1.37,.46-1.94c.3-.57,.72-1.02,1.25-1.35s1.13-.49,1.79-.49c.7,0,1.3,.16,1.79,.47s.85,.77,1.08,1.38,.33,1.34,.28,2.22h-5.5c.05,.47,.18,.89,.39,1.25s.49,.63,.84,.83c.35,.2,.74,.3,1.19,.3,.49,0,.91-.13,1.25-.38s.58-.59,.7-1.01v-.02Zm-1.99-3.97c-.6,0-1.1,.17-1.5,.52-.41,.35-.68,.82-.81,1.42h4.24c-.04-.64-.24-1.12-.62-1.45-.37-.33-.81-.49-1.31-.49Z" fill="#35374e"></path>
      </g>
    </g>
    <g>
      <rect x="470.35" y="245.71" width="231.94" height="33.19" fill="#fff"></rect>
      <path d="M702.79,279.4h-232.94v-34.19h232.94v34.19Zm-231.94-1h230.94v-32.19h-230.94v32.19Z" fill="#35374e"></path>
    </g>
    <g>
      <rect x="470.35" y="319.48" width="231.94" height="33.19" fill="#df7273"></rect>
      <path d="M702.79,353.17h-232.94v-34.19h232.94v34.19Zm-231.94-1h230.94v-32.19h-230.94v32.19Z" fill="#35374e"></path>
    </g>
    <rect x="483.21" y="234.87" width="71.25" height="21.67" fill="#fff"></rect>
    <g>
      <path d="M489.97,247.47v-1.09h2.95c.58,0,1.05-.18,1.41-.54,.36-.36,.54-.83,.54-1.41s-.18-1.07-.54-1.43c-.36-.35-.83-.53-1.41-.53h-2.72v8.32h-1.16v-9.41h3.88c.43,0,.84,.07,1.22,.2,.38,.14,.71,.33,.99,.59s.51,.58,.67,.96,.24,.81,.24,1.29-.08,.91-.24,1.29c-.16,.38-.38,.69-.67,.96-.29,.26-.62,.46-.99,.59-.38,.14-.78,.2-1.22,.2h-2.95Z" fill="#35374e"></path>
      <path d="M500.08,250.95c-.57,0-1.09-.16-1.57-.48s-.86-.77-1.14-1.33c-.29-.56-.43-1.21-.43-1.93s.15-1.37,.43-1.94c.29-.57,.68-1.02,1.18-1.35s1.05-.49,1.67-.49c.68,0,1.19,.17,1.54,.51s.59,.8,.72,1.37c.13,.57,.2,1.2,.2,1.9,0,.37-.04,.76-.12,1.19s-.21,.84-.4,1.23-.45,.71-.79,.96-.77,.37-1.3,.37h0Zm.29-1.11c.49,0,.9-.12,1.22-.36s.56-.56,.72-.96,.23-.84,.23-1.32c0-.53-.08-1-.24-1.4s-.4-.71-.72-.94-.73-.34-1.21-.34c-.72,0-1.28,.25-1.68,.76s-.59,1.15-.59,1.92c0,.51,.1,.97,.3,1.37,.2,.4,.47,.71,.81,.94s.73,.34,1.17,.34h-.01Zm2.17-6.29h1.16v7.24h-1.06c-.03-.35-.05-.64-.07-.87-.02-.23-.03-.42-.03-.58v-5.79h0Z" fill="#35374e"></path>
      <path d="M505.23,248.47h1.07c.03,.42,.19,.75,.47,1.01,.29,.26,.7,.39,1.24,.39,.33,0,.59-.04,.77-.13s.33-.21,.41-.35,.13-.32,.13-.5c0-.22-.06-.4-.17-.53-.11-.13-.26-.24-.45-.33s-.4-.17-.64-.25c-.28-.11-.57-.22-.86-.34-.29-.12-.57-.26-.83-.43s-.46-.38-.62-.62-.23-.54-.23-.89c0-.29,.06-.56,.17-.82s.28-.48,.5-.67,.47-.33,.77-.44c.29-.11,.62-.16,.98-.16,.48,0,.89,.1,1.22,.29,.33,.19,.59,.47,.77,.82s.27,.76,.28,1.22h-1c-.07-.43-.21-.75-.41-.95-.21-.2-.5-.3-.89-.3s-.7,.09-.91,.26-.32,.41-.32,.69c0,.21,.08,.39,.23,.53,.15,.14,.35,.27,.6,.38s.51,.22,.79,.34,.55,.23,.81,.35c.26,.12,.49,.25,.7,.41,.2,.15,.36,.34,.48,.57,.12,.23,.18,.51,.18,.85,0,.41-.09,.77-.28,1.08s-.46,.56-.83,.73c-.36,.17-.8,.26-1.33,.26-.47,0-.88-.06-1.21-.18s-.61-.28-.83-.48-.39-.41-.51-.63-.2-.44-.24-.65c-.04-.21-.05-.39-.03-.54h.02Z" fill="#35374e"></path>
      <path d="M511.62,248.47h1.07c.03,.42,.19,.75,.47,1.01,.29,.26,.7,.39,1.24,.39,.33,0,.59-.04,.77-.13s.33-.21,.41-.35,.13-.32,.13-.5c0-.22-.06-.4-.17-.53s-.26-.24-.45-.33-.4-.17-.64-.25c-.28-.11-.57-.22-.86-.34s-.57-.26-.83-.43-.46-.38-.62-.62-.23-.54-.23-.89c0-.29,.06-.56,.17-.82,.11-.26,.28-.48,.5-.67s.47-.33,.77-.44c.29-.11,.62-.16,.98-.16,.48,0,.89,.1,1.22,.29,.33,.19,.59,.47,.77,.82s.27,.76,.28,1.22h-1c-.07-.43-.21-.75-.41-.95-.21-.2-.5-.3-.89-.3s-.7,.09-.91,.26c-.21,.17-.32,.41-.32,.69,0,.21,.08,.39,.23,.53,.15,.14,.35,.27,.6,.38s.51,.22,.79,.34,.55,.23,.81,.35c.26,.12,.49,.25,.7,.41,.2,.15,.36,.34,.48,.57,.12,.23,.18,.51,.18,.85,0,.41-.09,.77-.28,1.08s-.46,.56-.83,.73c-.36,.17-.8,.26-1.33,.26-.47,0-.88-.06-1.21-.18s-.61-.28-.83-.48c-.22-.2-.39-.41-.51-.63s-.2-.44-.24-.65c-.04-.21-.05-.39-.03-.54h.02Z" fill="#35374e"></path>
      <path d="M525.47,249.75h-.29l1.69-6.18h1.26l-2.21,7.24h-1.09l-2.14-6.34h.29l-2.14,6.34h-1.08l-2.2-7.24h1.26l1.67,6.17h-.29l1.96-6.17h1.4l1.93,6.18h-.02Z" fill="#35374e"></path>
      <path d="M532.29,250.95c-.62,0-1.2-.15-1.74-.45s-.98-.73-1.31-1.3-.5-1.23-.5-2,.17-1.44,.5-2,.77-1,1.31-1.31,1.12-.46,1.74-.46,1.19,.15,1.73,.46c.54,.31,.97,.75,1.29,1.31s.49,1.23,.49,2-.16,1.44-.49,2-.76,1-1.29,1.3c-.54,.3-1.11,.45-1.73,.45Zm0-1.09c.41,0,.79-.1,1.14-.3,.36-.2,.65-.5,.88-.9s.34-.89,.34-1.46-.11-1.05-.34-1.46-.52-.71-.88-.92c-.36-.21-.74-.32-1.14-.32s-.79,.1-1.15,.31c-.36,.21-.66,.51-.89,.91-.23,.4-.35,.89-.35,1.47s.11,1.05,.34,1.46c.23,.4,.52,.7,.89,.9s.75,.3,1.16,.3h0Z" fill="#35374e"></path>
      <path d="M537.28,243.56h1.16v7.24h-1.16v-7.24Zm3.47,1.09c-.49,0-.9,.12-1.24,.37s-.59,.54-.78,.9c-.19,.35-.31,.69-.37,1.02v-.84c-.01-.09,0-.23,.04-.43s.11-.43,.22-.69c.11-.25,.25-.5,.43-.74s.41-.43,.69-.59c.28-.15,.62-.23,1.01-.23v1.23h0Z" fill="#35374e"></path>
      <path d="M544.79,250.95c-.58,0-1.11-.16-1.58-.48s-.86-.77-1.14-1.33-.42-1.21-.42-1.93,.14-1.37,.41-1.94c.27-.57,.64-1.02,1.11-1.35s1.01-.49,1.62-.49c.54,0,.98,.1,1.33,.3,.34,.2,.61,.47,.79,.82s.31,.75,.38,1.2,.11,.94,.11,1.46c0,.37-.04,.76-.12,1.19s-.21,.84-.4,1.23-.45,.71-.79,.96-.77,.37-1.3,.37h0Zm.29-1.11c.49,0,.9-.12,1.22-.36s.56-.56,.72-.96,.23-.84,.23-1.32c0-.53-.08-1-.24-1.4s-.4-.71-.72-.94-.73-.34-1.21-.34c-.72,0-1.28,.25-1.68,.76s-.59,1.15-.59,1.92c0,.51,.1,.97,.3,1.37s.47,.71,.81,.94,.73,.34,1.17,.34h0Zm2.17-9.19h1.16v10.13h-1.06c-.02-.21-.04-.46-.07-.75-.02-.29-.04-.52-.04-.69v-8.69h.01Z" fill="#35374e"></path>
    </g>
    <g>
      <path d="M471.58,154.1h.77c.02,.3,.11,.57,.27,.8,.16,.24,.37,.42,.65,.56s.6,.2,.97,.2c.32,0,.59-.05,.81-.14s.38-.23,.49-.4,.17-.37,.17-.6-.06-.42-.17-.57c-.11-.14-.28-.26-.49-.36s-.47-.2-.76-.29c-.28-.09-.56-.19-.85-.3s-.55-.25-.8-.42c-.25-.16-.44-.36-.59-.59s-.22-.51-.22-.84,.09-.62,.26-.91,.43-.51,.77-.69c.34-.17,.75-.26,1.23-.26,.75,0,1.31,.2,1.68,.61s.55,.95,.54,1.62h-.77c-.01-.51-.16-.87-.43-1.09s-.62-.33-1.06-.33c-.36,0-.68,.08-.95,.25-.27,.17-.41,.43-.41,.79,0,.16,.03,.29,.09,.41s.16,.23,.3,.33c.14,.1,.33,.2,.57,.29s.53,.2,.88,.32c.23,.07,.46,.16,.7,.26s.46,.22,.66,.38c.2,.15,.37,.34,.49,.57,.12,.23,.19,.52,.19,.87s-.08,.65-.24,.94c-.16,.29-.41,.52-.75,.7s-.78,.27-1.31,.27c-.46,0-.85-.06-1.17-.19-.33-.12-.59-.29-.8-.49-.21-.2-.37-.41-.48-.63-.11-.22-.18-.42-.22-.62-.04-.19-.04-.34-.01-.45h0Z" fill="#35374e"></path>
      <path d="M477.31,151.01h3.15v.8h-3.15v-.8Zm1.15-1.39h.86v6.75h-.86v-6.75Z" fill="#35374e"></path>
      <path d="M483.39,156.47c-.42,0-.81-.12-1.16-.36s-.64-.57-.85-.99-.32-.89-.32-1.43,.11-1.01,.32-1.44c.21-.42,.5-.75,.87-1,.37-.24,.78-.36,1.24-.36,.5,0,.88,.13,1.14,.38s.44,.59,.54,1.01,.14,.89,.14,1.4c0,.27-.03,.57-.09,.88-.06,.32-.16,.62-.29,.91-.14,.29-.33,.53-.58,.71s-.57,.27-.96,.27v.02Zm.21-.81c.36,0,.67-.09,.91-.27s.42-.42,.53-.71c.11-.3,.17-.62,.17-.98,0-.39-.06-.74-.18-1.03-.12-.3-.3-.53-.54-.7s-.54-.25-.89-.25c-.54,0-.95,.19-1.24,.56s-.44,.85-.44,1.42c0,.38,.07,.72,.22,1.01,.15,.3,.35,.53,.6,.7s.54,.25,.86,.25h0Zm1.61-4.65h.86v5.36h-.78c-.02-.26-.04-.47-.05-.64-.01-.17-.02-.31-.02-.43v-4.28h-.01Z" fill="#35374e"></path>
      <path d="M486.98,151.01h.92l1.92,5.14-.75,.21-2.09-5.36h0Zm4.98,0l-2.99,7.5h-.93l1.3-2.89,1.71-4.61h.91Z" fill="#35374e"></path>
      <path d="M498.86,153.86v.3c0,.08-.02,.22-.05,.4s-.08,.38-.16,.59-.18,.43-.32,.63c-.14,.2-.32,.36-.54,.49s-.49,.19-.81,.19c-.21,0-.42-.03-.64-.09s-.42-.16-.61-.3c-.19-.14-.34-.33-.45-.58s-.17-.56-.17-.93v-3.56h.86v3.34c0,.32,.05,.57,.16,.75,.1,.18,.25,.31,.42,.39,.18,.08,.38,.12,.6,.12,.36,0,.67-.09,.91-.28s.43-.41,.56-.69c.13-.27,.21-.53,.24-.78h0Zm.8,2.51h-.86v-5.36h.86v5.36Z" fill="#35374e"></path>
      <path d="M501.06,151.01h.82l.03,1.12v6.37h-.86v-7.5h0Zm2.68,5.47c-.39,0-.71-.09-.96-.27s-.44-.42-.58-.71-.24-.59-.29-.91c-.06-.32-.08-.61-.08-.88,0-.39,.03-.75,.08-1.08s.15-.63,.28-.89,.33-.46,.58-.61,.58-.22,.98-.22c.43,0,.82,.12,1.17,.36s.63,.58,.84,1,.32,.9,.32,1.44-.11,1.01-.32,1.43-.5,.75-.85,.99-.74,.36-1.15,.36h-.02Zm-.21-.82c.33,0,.62-.08,.87-.25s.45-.4,.59-.7c.14-.3,.21-.63,.21-1.01,0-.57-.15-1.04-.44-1.42s-.71-.56-1.24-.56c-.31,0-.59,.08-.84,.25s-.43,.4-.57,.7-.2,.64-.2,1.03c0,.36,.06,.68,.18,.98s.29,.53,.53,.71c.24,.18,.54,.27,.9,.27h.01Z" fill="#35374e"></path>
      <path d="M509.17,156.47c-.43,0-.82-.12-1.17-.36s-.63-.57-.84-.99-.31-.89-.31-1.43,.1-1.01,.3-1.44c.2-.42,.47-.75,.82-1,.35-.24,.75-.36,1.2-.36,.4,0,.73,.07,.98,.22s.45,.35,.58,.61,.23,.55,.28,.89,.08,.7,.08,1.08c0,.27-.03,.57-.09,.88-.06,.32-.16,.62-.29,.91-.14,.29-.33,.53-.58,.71s-.57,.27-.96,.27h0Zm.21-.8c.36,0,.67-.09,.91-.27s.42-.42,.53-.71c.11-.3,.17-.62,.17-.98,0-.39-.06-.74-.18-1.03-.12-.3-.3-.53-.54-.7s-.54-.25-.89-.25c-.54,0-.95,.19-1.24,.56s-.44,.85-.44,1.42c0,.38,.07,.72,.22,1.01,.15,.3,.35,.53,.6,.7s.54,.25,.86,.25h0Zm1.61-6.79h.86v7.5h-.78c-.01-.16-.03-.34-.05-.56-.02-.21-.03-.39-.03-.51v-6.43h0Z" fill="#35374e"></path>
      <path d="M515.43,156.47c-.42,0-.81-.12-1.16-.36s-.64-.57-.85-.99c-.21-.42-.32-.89-.32-1.43s.11-1.01,.32-1.44c.21-.42,.5-.75,.87-1,.37-.24,.78-.36,1.24-.36,.5,0,.88,.13,1.14,.38s.44,.59,.54,1.01,.14,.89,.14,1.4c0,.27-.03,.57-.09,.88-.06,.32-.16,.62-.29,.91-.14,.29-.33,.53-.58,.71s-.57,.27-.96,.27v.02Zm.21-.81c.36,0,.67-.09,.91-.27s.42-.42,.53-.71c.11-.3,.17-.62,.17-.98,0-.39-.06-.74-.18-1.03-.12-.3-.3-.53-.54-.7s-.54-.25-.89-.25c-.54,0-.95,.19-1.24,.56s-.44,.85-.44,1.42c0,.38,.07,.72,.22,1.01,.15,.3,.35,.53,.6,.7s.54,.25,.86,.25h0Zm1.61-4.65h.86v5.36h-.78c-.02-.26-.04-.47-.05-.64s-.02-.31-.02-.43v-4.28h0Z" fill="#35374e"></path>
      <path d="M519.12,151.01h3.15v.8h-3.15v-.8Zm1.15-1.39h.86v6.75h-.86v-6.75Z" fill="#35374e"></path>
      <path d="M526.98,154.64h.8c-.06,.35-.18,.66-.38,.94-.2,.27-.45,.49-.77,.65-.32,.16-.68,.24-1.1,.24-.5,0-.95-.12-1.35-.36-.4-.24-.72-.57-.95-.99-.23-.42-.35-.89-.35-1.43s.11-1.01,.34-1.44c.23-.42,.53-.75,.93-1,.39-.24,.84-.36,1.33-.36,.52,0,.96,.12,1.32,.35,.36,.23,.63,.57,.8,1.02s.25,.99,.21,1.64h-4.07c.04,.35,.13,.66,.29,.92s.36,.47,.62,.62,.55,.22,.88,.22c.36,0,.67-.09,.93-.28,.25-.19,.43-.44,.52-.74h0Zm-1.47-2.93c-.44,0-.81,.13-1.11,.39s-.5,.61-.6,1.05h3.14c-.03-.47-.18-.83-.46-1.07s-.6-.36-.97-.36h0Z" fill="#35374e"></path>
      <path d="M530.94,156.47c-.43,0-.82-.12-1.17-.36s-.63-.57-.84-.99-.31-.89-.31-1.43,.1-1.01,.3-1.44c.2-.42,.47-.75,.82-1,.35-.24,.75-.36,1.2-.36,.4,0,.73,.07,.98,.22s.45,.35,.58,.61,.23,.55,.28,.89c.05,.34,.08,.7,.08,1.08,0,.27-.03,.57-.09,.88-.06,.32-.16,.62-.29,.91-.14,.29-.33,.53-.58,.71s-.57,.27-.96,.27h0Zm.21-.8c.36,0,.67-.09,.91-.27s.42-.42,.53-.71c.11-.3,.17-.62,.17-.98,0-.39-.06-.74-.18-1.03-.12-.3-.3-.53-.54-.7s-.54-.25-.89-.25c-.54,0-.95,.19-1.24,.56s-.44,.85-.44,1.42c0,.38,.07,.72,.22,1.01,.15,.3,.35,.53,.6,.7s.54,.25,.86,.25h0Zm1.61-6.79h.86v7.5h-.78c-.01-.16-.03-.34-.05-.56-.02-.21-.03-.39-.03-.51v-6.43h0Z" fill="#35374e"></path>
      <path d="M539.74,156.47c-.46,0-.89-.11-1.29-.33-.4-.22-.72-.54-.97-.96s-.37-.91-.37-1.48,.12-1.07,.37-1.48,.57-.74,.97-.97c.4-.23,.83-.34,1.29-.34s.88,.11,1.28,.34,.72,.55,.96,.97c.24,.42,.36,.91,.36,1.48s-.12,1.07-.36,1.48c-.24,.42-.56,.74-.96,.96s-.82,.33-1.28,.33Zm0-.8c.3,0,.58-.08,.85-.22,.26-.15,.48-.37,.65-.67,.17-.3,.25-.66,.25-1.08s-.08-.78-.25-1.08-.38-.52-.65-.68c-.26-.16-.55-.24-.85-.24s-.58,.08-.85,.23-.49,.38-.66,.67c-.17,.3-.26,.66-.26,1.09s.08,.78,.25,1.08,.39,.52,.66,.67c.27,.15,.56,.22,.86,.22h0Z" fill="#35374e"></path>
      <path d="M543.44,151.01h.86v5.36h-.86v-5.36Zm2.7-.11c.29,0,.54,.04,.77,.13,.23,.09,.42,.21,.58,.38s.28,.36,.36,.59c.08,.23,.13,.49,.13,.79v3.58h-.86v-3.36c0-.41-.1-.72-.29-.93-.19-.21-.48-.31-.87-.31-.29,0-.56,.08-.81,.22-.25,.15-.46,.36-.62,.62s-.26,.56-.29,.91v-.62c.02-.3,.1-.57,.21-.81,.11-.24,.25-.45,.42-.63s.36-.31,.58-.4,.45-.14,.69-.14v-.02Z" fill="#35374e"></path>
      <path d="M551.14,151.01h.92l1.92,5.14-.75,.21-2.09-5.36h0Zm4.98,0l-2.99,7.5h-.93l1.3-2.89,1.71-4.61h.91Z" fill="#35374e"></path>
      <path d="M559.19,156.47c-.46,0-.89-.11-1.29-.33-.4-.22-.72-.54-.97-.96s-.37-.91-.37-1.48,.12-1.07,.37-1.48,.57-.74,.97-.97c.4-.23,.83-.34,1.29-.34s.88,.11,1.28,.34,.72,.55,.96,.97c.24,.42,.36,.91,.36,1.48s-.12,1.07-.36,1.48c-.24,.42-.56,.74-.96,.96s-.82,.33-1.28,.33Zm0-.8c.3,0,.58-.08,.85-.22,.26-.15,.48-.37,.65-.67,.17-.3,.25-.66,.25-1.08s-.08-.78-.25-1.08-.38-.52-.65-.68c-.26-.16-.55-.24-.85-.24s-.58,.08-.85,.23-.49,.38-.66,.67c-.17,.3-.26,.66-.26,1.09s.08,.78,.25,1.08,.39,.52,.66,.67c.27,.15,.56,.22,.86,.22h0Z" fill="#35374e"></path>
      <path d="M566.63,153.86v.3c0,.08-.02,.22-.05,.4-.03,.18-.08,.38-.16,.59s-.18,.43-.32,.63c-.14,.2-.32,.36-.54,.49s-.49,.19-.81,.19c-.21,0-.42-.03-.64-.09s-.42-.16-.61-.3-.34-.33-.45-.58-.17-.56-.17-.93v-3.56h.86v3.34c0,.32,.05,.57,.16,.75,.1,.18,.25,.31,.42,.39,.18,.08,.38,.12,.6,.12,.36,0,.67-.09,.91-.28s.43-.41,.56-.69c.13-.27,.21-.53,.24-.78h0Zm.8,2.51h-.86v-5.36h.86v5.36Z" fill="#35374e"></path>
      <path d="M568.82,151.01h.86v5.36h-.86v-5.36Zm2.57,.8c-.36,0-.67,.09-.92,.27-.25,.18-.44,.4-.58,.66-.14,.26-.23,.51-.27,.76v-.62c-.01-.06,0-.17,.03-.32,.03-.15,.08-.32,.16-.51,.08-.19,.18-.37,.32-.55,.13-.17,.3-.32,.51-.43s.46-.17,.75-.17v.91h0Z" fill="#35374e"></path>
      <path d="M574.61,151.01h.82l.03,1.12v6.37h-.86v-7.5h0Zm2.68,5.47c-.39,0-.71-.09-.96-.27s-.44-.42-.58-.71-.24-.59-.29-.91c-.06-.32-.08-.61-.08-.88,0-.39,.03-.75,.08-1.08s.15-.63,.28-.89,.33-.46,.58-.61,.58-.22,.98-.22c.43,0,.82,.12,1.17,.36s.63,.58,.84,1,.32,.9,.32,1.44-.11,1.01-.32,1.43-.5,.75-.85,.99-.74,.36-1.15,.36h-.02Zm-.21-.82c.33,0,.62-.08,.87-.25s.45-.4,.59-.7,.21-.63,.21-1.01c0-.57-.15-1.04-.44-1.42s-.71-.56-1.24-.56c-.31,0-.59,.08-.84,.25s-.43,.4-.57,.7-.2,.64-.2,1.03c0,.36,.06,.68,.18,.98s.29,.53,.53,.71c.24,.18,.54,.27,.9,.27h0Z" fill="#35374e"></path>
      <path d="M580.7,151.01h.86v5.36h-.86v-5.36Zm2.57,.8c-.36,0-.67,.09-.92,.27-.25,.18-.44,.4-.58,.66-.14,.26-.23,.51-.27,.76v-.62c-.01-.06,0-.17,.03-.32,.03-.15,.08-.32,.16-.51,.08-.19,.18-.37,.32-.55,.13-.17,.3-.32,.51-.43s.46-.17,.75-.17v.91h0Z" fill="#35374e"></path>
      <path d="M586.56,156.47c-.46,0-.89-.11-1.29-.33-.4-.22-.72-.54-.97-.96s-.37-.91-.37-1.48,.12-1.07,.37-1.48,.57-.74,.97-.97c.4-.23,.83-.34,1.29-.34s.88,.11,1.28,.34,.72,.55,.96,.97c.24,.42,.36,.91,.36,1.48s-.12,1.07-.36,1.48c-.24,.42-.56,.74-.96,.96s-.82,.33-1.28,.33Zm0-.8c.3,0,.58-.08,.85-.22,.26-.15,.48-.37,.65-.67,.17-.3,.25-.66,.25-1.08s-.08-.78-.25-1.08-.38-.52-.65-.68c-.26-.16-.55-.24-.85-.24s-.58,.08-.85,.23-.49,.38-.66,.67c-.17,.3-.26,.66-.26,1.09s.08,.78,.25,1.08,.39,.52,.66,.67c.27,.15,.56,.22,.86,.22h0Z" fill="#35374e"></path>
      <path d="M589.77,151.01h3.15v.8h-3.15v-.8Zm2.77-2.14h.49v.86h-.49c-.18,0-.34,.02-.49,.08-.15,.06-.26,.16-.35,.29-.08,.14-.13,.34-.13,.59v5.68h-.86v-5.68c0-.43,.08-.78,.23-1.04,.15-.27,.37-.46,.64-.59,.27-.12,.59-.19,.95-.19h0Z" fill="#35374e"></path>
      <path d="M597.55,154.64h.8c-.06,.35-.18,.66-.38,.94-.2,.27-.45,.49-.77,.65-.32,.16-.68,.24-1.1,.24-.5,0-.95-.12-1.35-.36-.4-.24-.72-.57-.95-.99-.23-.42-.35-.89-.35-1.43s.11-1.01,.34-1.44c.23-.42,.53-.75,.93-1,.39-.24,.84-.36,1.33-.36,.52,0,.96,.12,1.32,.35,.36,.23,.63,.57,.8,1.02s.25,.99,.21,1.64h-4.07c.04,.35,.13,.66,.29,.92s.36,.47,.62,.62,.55,.22,.88,.22c.36,0,.67-.09,.93-.28,.25-.19,.43-.44,.52-.74h0Zm-1.47-2.93c-.44,0-.81,.13-1.11,.39s-.5,.61-.6,1.05h3.14c-.03-.47-.18-.83-.46-1.07s-.6-.36-.97-.36h0Z" fill="#35374e"></path>
      <path d="M599.23,154.64h.79c.02,.31,.14,.56,.35,.75,.21,.19,.52,.29,.92,.29,.24,0,.43-.03,.57-.1,.14-.06,.24-.15,.31-.26,.06-.11,.1-.23,.1-.37,0-.16-.04-.29-.12-.39s-.19-.18-.33-.24c-.14-.06-.3-.12-.48-.18-.21-.08-.42-.16-.64-.25s-.42-.2-.61-.32c-.19-.12-.34-.28-.46-.46-.12-.18-.17-.4-.17-.66,0-.21,.04-.42,.13-.61,.08-.19,.21-.35,.37-.49s.35-.25,.57-.33c.22-.08,.46-.12,.72-.12,.36,0,.66,.07,.9,.21,.25,.14,.44,.34,.57,.6,.13,.26,.2,.56,.21,.91h-.74c-.05-.32-.15-.55-.31-.7s-.37-.22-.66-.22-.52,.06-.67,.19c-.16,.13-.24,.3-.24,.51,0,.16,.06,.29,.17,.39s.26,.2,.44,.28,.38,.17,.58,.25,.41,.17,.6,.26,.36,.19,.51,.3,.27,.26,.36,.42c.09,.17,.13,.38,.13,.63,0,.3-.07,.57-.21,.8s-.34,.41-.61,.54c-.27,.13-.59,.19-.98,.19-.35,0-.65-.04-.89-.13-.25-.09-.45-.21-.62-.35s-.29-.3-.38-.47-.15-.33-.18-.48c-.03-.16-.04-.29-.02-.4h.02Z" fill="#35374e"></path>
      <path d="M603.95,154.64h.79c.02,.31,.14,.56,.35,.75,.21,.19,.52,.29,.92,.29,.24,0,.43-.03,.57-.1,.14-.06,.24-.15,.31-.26,.06-.11,.1-.23,.1-.37,0-.16-.04-.29-.12-.39s-.19-.18-.33-.24c-.14-.06-.3-.12-.48-.18-.21-.08-.42-.16-.64-.25s-.42-.2-.61-.32c-.19-.12-.34-.28-.46-.46-.12-.18-.17-.4-.17-.66,0-.21,.04-.42,.13-.61,.08-.19,.21-.35,.37-.49s.35-.25,.57-.33c.22-.08,.46-.12,.72-.12,.36,0,.66,.07,.9,.21,.25,.14,.44,.34,.57,.6,.13,.26,.2,.56,.21,.91h-.74c-.05-.32-.15-.55-.31-.7s-.37-.22-.66-.22-.52,.06-.67,.19c-.16,.13-.24,.3-.24,.51,0,.16,.06,.29,.17,.39s.26,.2,.44,.28,.38,.17,.58,.25,.41,.17,.6,.26,.36,.19,.51,.3,.27,.26,.36,.42c.09,.17,.13,.38,.13,.63,0,.3-.07,.57-.21,.8s-.34,.41-.61,.54c-.27,.13-.59,.19-.98,.19-.35,0-.65-.04-.89-.13-.25-.09-.45-.21-.62-.35s-.29-.3-.38-.47-.15-.33-.18-.48c-.03-.16-.04-.29-.02-.4h.02Z" fill="#35374e"></path>
      <path d="M609.99,148.86v1.04h-1.11v-1.04h1.11Zm-.99,2.14h.86v5.36h-.86v-5.36Z" fill="#35374e"></path>
      <path d="M613.66,156.47c-.46,0-.89-.11-1.29-.33-.4-.22-.72-.54-.97-.96s-.37-.91-.37-1.48,.12-1.07,.37-1.48,.57-.74,.97-.97c.4-.23,.83-.34,1.29-.34s.88,.11,1.28,.34,.72,.55,.96,.97c.24,.42,.36,.91,.36,1.48s-.12,1.07-.36,1.48c-.24,.42-.56,.74-.96,.96s-.82,.33-1.28,.33Zm0-.8c.3,0,.58-.08,.85-.22,.26-.15,.48-.37,.65-.67,.17-.3,.25-.66,.25-1.08s-.08-.78-.25-1.08-.38-.52-.65-.68c-.26-.16-.55-.24-.85-.24s-.58,.08-.85,.23-.49,.38-.66,.67c-.17,.3-.26,.66-.26,1.09s.08,.78,.25,1.08,.39,.52,.66,.67c.27,.15,.56,.22,.86,.22h0Z" fill="#35374e"></path>
      <path d="M617.35,151.01h.86v5.36h-.86v-5.36Zm2.7-.11c.29,0,.54,.04,.77,.13,.23,.09,.42,.21,.58,.38s.28,.36,.36,.59c.08,.23,.13,.49,.13,.79v3.58h-.86v-3.36c0-.41-.1-.72-.29-.93-.19-.21-.48-.31-.87-.31-.29,0-.56,.08-.81,.22-.25,.15-.46,.36-.62,.62s-.26,.56-.29,.91v-.62c.02-.3,.1-.57,.21-.81,.11-.24,.25-.45,.42-.63s.36-.31,.58-.4,.45-.14,.69-.14v-.02Z" fill="#35374e"></path>
      <path d="M625.31,156.47c-.42,0-.81-.12-1.16-.36s-.64-.57-.85-.99c-.21-.42-.32-.89-.32-1.43s.11-1.01,.32-1.44c.21-.42,.5-.75,.87-1,.37-.24,.78-.36,1.24-.36,.5,0,.88,.13,1.14,.38s.44,.59,.54,1.01,.14,.89,.14,1.4c0,.27-.03,.57-.09,.88-.06,.32-.16,.62-.29,.91-.14,.29-.33,.53-.58,.71s-.57,.27-.96,.27v.02Zm.21-.81c.36,0,.67-.09,.91-.27s.42-.42,.53-.71c.11-.3,.17-.62,.17-.98,0-.39-.06-.74-.18-1.03-.12-.3-.3-.53-.54-.7s-.54-.25-.89-.25c-.54,0-.95,.19-1.24,.56s-.44,.85-.44,1.42c0,.38,.07,.72,.22,1.01,.15,.3,.35,.53,.6,.7s.54,.25,.86,.25h0Zm1.61-4.65h.86v5.36h-.78c-.02-.26-.04-.47-.05-.64s-.02-.31-.02-.43v-4.28h0Z" fill="#35374e"></path>
      <path d="M629.49,148.86h.86v7.5h-.86v-7.5Z" fill="#35374e"></path>
      <path d="M639.47,155.58h-.21l1.25-4.57h.93l-1.64,5.36h-.8l-1.58-4.69h.21l-1.58,4.69h-.8l-1.63-5.36h.93l1.23,4.56h-.21l1.45-4.56h1.04l1.42,4.57h0Z" fill="#35374e"></path>
      <path d="M644.51,156.47c-.46,0-.89-.11-1.29-.33-.4-.22-.72-.54-.97-.96s-.37-.91-.37-1.48,.12-1.07,.37-1.48,.57-.74,.97-.97c.4-.23,.83-.34,1.29-.34s.88,.11,1.28,.34,.72,.55,.96,.97c.24,.42,.36,.91,.36,1.48s-.12,1.07-.36,1.48c-.24,.42-.56,.74-.96,.96s-.82,.33-1.28,.33Zm0-.8c.3,0,.58-.08,.85-.22,.26-.15,.48-.37,.65-.67,.17-.3,.25-.66,.25-1.08s-.08-.78-.25-1.08-.38-.52-.65-.68c-.26-.16-.55-.24-.85-.24s-.58,.08-.85,.23-.49,.38-.66,.67c-.17,.3-.26,.66-.26,1.09s.08,.78,.25,1.08,.39,.52,.66,.67c.27,.15,.56,.22,.86,.22h0Z" fill="#35374e"></path>
      <path d="M648.21,151.01h.86v5.36h-.86v-5.36Zm2.57,.8c-.36,0-.67,.09-.92,.27-.25,.18-.44,.4-.58,.66-.14,.26-.23,.51-.27,.76v-.62c-.01-.06,0-.17,.03-.32,.03-.15,.08-.32,.16-.51,.08-.19,.18-.37,.32-.55,.13-.17,.3-.32,.51-.43s.46-.17,.75-.17v.91h0Z" fill="#35374e"></path>
      <path d="M651.85,148.86h.86v7.5h-.86v-7.5Z" fill="#35374e"></path>
      <path d="M656.23,156.47c-.43,0-.82-.12-1.17-.36s-.63-.57-.84-.99-.31-.89-.31-1.43,.1-1.01,.3-1.44c.2-.42,.47-.75,.82-1,.35-.24,.75-.36,1.2-.36,.4,0,.73,.07,.98,.22s.45,.35,.58,.61,.23,.55,.28,.89c.05,.34,.08,.7,.08,1.08,0,.27-.03,.57-.09,.88-.06,.32-.16,.62-.29,.91-.14,.29-.33,.53-.58,.71s-.57,.27-.96,.27h0Zm.21-.8c.36,0,.67-.09,.91-.27s.42-.42,.53-.71c.11-.3,.17-.62,.17-.98,0-.39-.06-.74-.18-1.03-.12-.3-.3-.53-.54-.7s-.54-.25-.89-.25c-.54,0-.95,.19-1.24,.56s-.44,.85-.44,1.42c0,.38,.07,.72,.22,1.01,.15,.3,.35,.53,.6,.7s.54,.25,.86,.25h0Zm1.61-6.79h.86v7.5h-.78c-.01-.16-.03-.34-.05-.56-.02-.21-.03-.39-.03-.51v-6.43h0Z" fill="#35374e"></path>
    </g>
    <g>
      <path d="M476.13,289.24v.8h-4.07v2.29h3.33v.8h-3.33v3.06h-.86v-6.96h4.93Z" fill="#35374e"></path>
      <path d="M479.1,296.31c-.46,0-.89-.11-1.29-.33s-.72-.54-.97-.96-.37-.91-.37-1.48,.12-1.07,.37-1.48,.57-.74,.97-.97,.83-.34,1.29-.34,.88,.11,1.28,.34,.72,.55,.96,.97,.36,.91,.36,1.48-.12,1.07-.36,1.48c-.24,.42-.56,.74-.96,.96s-.82,.33-1.28,.33Zm0-.8c.3,0,.58-.08,.85-.22,.26-.15,.48-.37,.65-.67,.17-.3,.25-.66,.25-1.08s-.08-.78-.25-1.08-.38-.52-.65-.68c-.26-.16-.55-.24-.85-.24s-.58,.08-.85,.23-.49,.38-.66,.67c-.17,.3-.26,.66-.26,1.09s.08,.78,.25,1.08,.39,.52,.66,.67c.27,.15,.56,.22,.86,.22h0Z" fill="#35374e"></path>
      <path d="M482.79,290.84h.86v5.36h-.86v-5.36Zm2.57,.8c-.36,0-.67,.09-.92,.27s-.44,.4-.58,.66c-.14,.26-.23,.51-.27,.76v-.62c-.01-.06,0-.17,.03-.32s.08-.32,.16-.51c.08-.19,.18-.37,.32-.55,.13-.17,.3-.32,.51-.43s.46-.17,.75-.17v.91h0Z" fill="#35374e"></path>
      <path d="M488.24,295.35c-.38,0-.74-.09-1.08-.27s-.61-.44-.83-.79c-.21-.34-.32-.75-.32-1.23s.1-.89,.31-1.24c.21-.35,.48-.61,.81-.8,.34-.19,.7-.28,1.09-.28,.12,0,.24,0,.35,.03,.11,.02,.22,.04,.32,.08h2.17v.92c-.31,0-.61-.06-.92-.17s-.56-.23-.78-.35l-.04-.04c.25,.14,.46,.3,.62,.48,.16,.19,.28,.39,.36,.63,.08,.23,.12,.48,.12,.75,0,.48-.1,.89-.31,1.23s-.47,.6-.81,.79c-.34,.18-.7,.27-1.09,.27h.03Zm1.57,2.98v-.24c0-.38-.1-.65-.29-.82-.2-.17-.49-.26-.88-.26h-1.07c-.24,0-.44-.02-.62-.06s-.32-.1-.43-.18-.2-.17-.26-.29c-.06-.11-.09-.24-.09-.39,0-.27,.08-.48,.25-.62,.16-.14,.37-.23,.61-.26,.24-.04,.47-.04,.7,0l.51,.12c-.39,.02-.68,.06-.89,.12-.21,.06-.32,.18-.32,.36,0,.11,.04,.19,.12,.26s.21,.1,.37,.1h1.11c.37,0,.71,.05,1.02,.16,.31,.1,.55,.28,.74,.52,.19,.25,.28,.58,.28,1.01v.45h-.86v.02Zm-1.57-3.79c.24,0,.46-.06,.66-.17,.2-.11,.37-.28,.5-.5s.19-.49,.19-.81-.06-.59-.19-.82c-.12-.22-.29-.4-.5-.51s-.43-.18-.66-.18-.46,.06-.66,.18-.38,.29-.5,.51c-.13,.22-.19,.5-.19,.82s.06,.59,.19,.81,.3,.39,.5,.5c.21,.11,.43,.17,.66,.17Z" fill="#35374e"></path>
      <path d="M494.41,296.31c-.46,0-.89-.11-1.29-.33s-.72-.54-.97-.96-.37-.91-.37-1.48,.12-1.07,.37-1.48,.57-.74,.97-.97,.83-.34,1.29-.34,.88,.11,1.28,.34,.72,.55,.96,.97,.36,.91,.36,1.48-.12,1.07-.36,1.48c-.24,.42-.56,.74-.96,.96s-.82,.33-1.28,.33Zm0-.8c.3,0,.58-.08,.85-.22,.26-.15,.48-.37,.65-.67,.17-.3,.25-.66,.25-1.08s-.08-.78-.25-1.08-.38-.52-.65-.68c-.26-.16-.55-.24-.85-.24s-.58,.08-.85,.23-.49,.38-.66,.67c-.17,.3-.26,.66-.26,1.09s.08,.78,.25,1.08,.39,.52,.66,.67c.27,.15,.56,.22,.86,.22h0Z" fill="#35374e"></path>
      <path d="M497.63,290.84h3.15v.8h-3.15v-.8Zm1.15-1.39h.86v6.75h-.86v-6.75Z" fill="#35374e"></path>
      <path d="M504.04,290.84h.82l.03,1.12v6.37h-.86v-7.5h0Zm2.68,5.47c-.39,0-.71-.09-.96-.27s-.44-.42-.58-.71-.24-.59-.29-.91c-.06-.32-.08-.61-.08-.88,0-.39,.03-.75,.08-1.08s.15-.63,.28-.89,.33-.46,.58-.61,.58-.22,.98-.22c.43,0,.82,.12,1.17,.36s.63,.58,.84,1,.32,.9,.32,1.44-.11,1.01-.32,1.43-.5,.75-.85,.99-.74,.36-1.15,.36h-.02Zm-.21-.82c.33,0,.62-.08,.87-.25s.45-.4,.59-.7c.14-.3,.21-.63,.21-1.01,0-.57-.15-1.04-.44-1.42s-.71-.56-1.24-.56c-.31,0-.59,.08-.84,.25s-.43,.4-.57,.7c-.14,.3-.2,.64-.2,1.03,0,.36,.06,.68,.18,.98,.12,.3,.29,.53,.53,.71s.54,.27,.9,.27h.01Z" fill="#35374e"></path>
      <path d="M512.16,296.31c-.42,0-.81-.12-1.16-.36s-.64-.57-.85-.99c-.21-.42-.32-.89-.32-1.43s.11-1.01,.32-1.44c.21-.42,.5-.75,.87-1,.37-.24,.78-.36,1.24-.36,.5,0,.88,.13,1.14,.38s.44,.59,.54,1.01,.14,.89,.14,1.4c0,.27-.03,.57-.09,.88-.06,.32-.16,.62-.29,.91-.14,.29-.33,.53-.58,.71s-.57,.27-.96,.27v.02Zm.21-.81c.36,0,.67-.09,.91-.27s.42-.42,.53-.71c.11-.3,.17-.62,.17-.98,0-.39-.06-.74-.18-1.03-.12-.3-.3-.53-.54-.7s-.54-.25-.89-.25c-.54,0-.95,.19-1.24,.56s-.44,.85-.44,1.42c0,.38,.07,.72,.22,1.01,.15,.3,.35,.53,.6,.7s.54,.25,.86,.25h0Zm1.61-4.65h.86v5.36h-.78c-.02-.26-.04-.47-.05-.64s-.02-.31-.02-.43v-4.28h0Z" fill="#35374e"></path>
      <path d="M515.97,294.47h.79c.02,.31,.14,.56,.35,.75,.21,.19,.52,.29,.92,.29,.24,0,.43-.03,.57-.1,.14-.06,.24-.15,.31-.26,.06-.11,.1-.23,.1-.37,0-.16-.04-.29-.12-.39s-.19-.18-.33-.24-.3-.12-.48-.18c-.21-.08-.42-.16-.64-.25s-.42-.2-.61-.32-.34-.28-.46-.46-.17-.4-.17-.66c0-.21,.04-.42,.13-.61,.08-.19,.21-.35,.37-.49,.16-.14,.35-.25,.57-.33,.22-.08,.46-.12,.72-.12,.36,0,.66,.07,.9,.21,.25,.14,.44,.34,.57,.6s.2,.56,.21,.91h-.74c-.05-.32-.15-.55-.31-.7s-.37-.22-.66-.22-.52,.06-.67,.19c-.16,.13-.24,.3-.24,.51,0,.16,.06,.29,.17,.39s.26,.2,.44,.28,.38,.17,.58,.25,.41,.17,.6,.26,.36,.19,.51,.3,.27,.26,.36,.42c.09,.17,.13,.38,.13,.63,0,.3-.07,.57-.21,.8-.14,.23-.34,.41-.61,.54-.27,.13-.59,.19-.98,.19-.35,0-.65-.04-.89-.13-.25-.09-.45-.21-.62-.35s-.29-.3-.38-.47-.15-.33-.18-.48c-.03-.16-.04-.29-.02-.4h.02Z" fill="#35374e"></path>
      <path d="M520.7,294.47h.79c.02,.31,.14,.56,.35,.75,.21,.19,.52,.29,.92,.29,.24,0,.43-.03,.57-.1,.14-.06,.24-.15,.31-.26,.06-.11,.1-.23,.1-.37,0-.16-.04-.29-.12-.39s-.19-.18-.33-.24-.3-.12-.48-.18c-.21-.08-.42-.16-.64-.25s-.42-.2-.61-.32-.34-.28-.46-.46-.17-.4-.17-.66c0-.21,.04-.42,.13-.61,.08-.19,.21-.35,.37-.49,.16-.14,.35-.25,.57-.33,.22-.08,.46-.12,.72-.12,.36,0,.66,.07,.9,.21,.25,.14,.44,.34,.57,.6s.2,.56,.21,.91h-.74c-.05-.32-.15-.55-.31-.7s-.37-.22-.66-.22-.52,.06-.67,.19c-.16,.13-.24,.3-.24,.51,0,.16,.06,.29,.17,.39s.26,.2,.44,.28,.38,.17,.58,.25,.41,.17,.6,.26,.36,.19,.51,.3,.27,.26,.36,.42c.09,.17,.13,.38,.13,.63,0,.3-.07,.57-.21,.8-.14,.23-.34,.41-.61,.54-.27,.13-.59,.19-.98,.19-.35,0-.65-.04-.89-.13-.25-.09-.45-.21-.62-.35s-.29-.3-.38-.47-.15-.33-.18-.48c-.03-.16-.04-.29-.02-.4h.02Z" fill="#35374e"></path>
      <path d="M530.95,295.42h-.21l1.25-4.57h.93l-1.64,5.36h-.8l-1.58-4.69h.21l-1.58,4.69h-.8l-1.63-5.36h.93l1.23,4.56h-.21l1.45-4.56h1.04l1.42,4.57h0Z" fill="#35374e"></path>
      <path d="M535.99,296.31c-.46,0-.89-.11-1.29-.33-.4-.22-.72-.54-.97-.96s-.37-.91-.37-1.48,.12-1.07,.37-1.48,.57-.74,.97-.97c.4-.23,.83-.34,1.29-.34s.88,.11,1.28,.34,.72,.55,.96,.97c.24,.42,.36,.91,.36,1.48s-.12,1.07-.36,1.48c-.24,.42-.56,.74-.96,.96s-.82,.33-1.28,.33Zm0-.8c.3,0,.58-.08,.85-.22,.26-.15,.48-.37,.65-.67,.17-.3,.25-.66,.25-1.08s-.08-.78-.25-1.08-.38-.52-.65-.68c-.26-.16-.55-.24-.85-.24s-.58,.08-.85,.23-.49,.38-.66,.67c-.17,.3-.26,.66-.26,1.09s.08,.78,.25,1.08,.39,.52,.66,.67c.27,.15,.56,.22,.86,.22h0Z" fill="#35374e"></path>
      <path d="M539.69,290.84h.86v5.36h-.86v-5.36Zm2.57,.8c-.36,0-.67,.09-.92,.27s-.44,.4-.58,.66-.23,.51-.27,.76v-.62c-.01-.06,0-.17,.03-.32s.08-.32,.16-.51c.08-.19,.18-.37,.32-.55,.13-.17,.3-.32,.51-.43s.46-.17,.75-.17v.91Z" fill="#35374e"></path>
      <path d="M545.25,296.31c-.43,0-.82-.12-1.17-.36s-.63-.57-.84-.99-.31-.89-.31-1.43,.1-1.01,.3-1.44c.2-.42,.47-.75,.82-1,.35-.24,.75-.36,1.2-.36,.4,0,.73,.07,.98,.22s.45,.35,.58,.61,.23,.55,.28,.89c.05,.34,.08,.7,.08,1.08,0,.27-.03,.57-.09,.88-.06,.32-.16,.62-.29,.91-.14,.29-.33,.53-.58,.71s-.57,.27-.96,.27h0Zm.21-.8c.36,0,.67-.09,.91-.27s.42-.42,.53-.71c.11-.3,.17-.62,.17-.98,0-.39-.06-.74-.18-1.03-.12-.3-.3-.53-.54-.7s-.54-.25-.89-.25c-.54,0-.95,.19-1.24,.56s-.44,.85-.44,1.42c0,.38,.07,.72,.22,1.01,.15,.3,.35,.53,.6,.7s.54,.25,.86,.25h0Zm1.61-6.79h.86v7.5h-.78c-.01-.16-.03-.34-.05-.56-.02-.21-.03-.39-.03-.51v-6.43h0Z" fill="#35374e"></path>
      <path d="M550.95,294.05v-1.85h.26c.57,0,1-.13,1.28-.38s.42-.61,.42-1.06c0-.42-.12-.75-.38-1-.25-.24-.57-.36-.95-.36-.25,0-.48,.05-.67,.16-.2,.11-.36,.26-.47,.45s-.17,.42-.17,.68h-.86c0-.24,.03-.46,.1-.67,.07-.21,.17-.4,.3-.58,.13-.17,.29-.33,.47-.45s.39-.22,.61-.29,.47-.11,.73-.11c.33,0,.62,.05,.88,.16,.26,.11,.48,.26,.67,.46,.19,.2,.33,.43,.43,.69s.15,.54,.15,.85c0,.43-.09,.79-.26,1.09s-.41,.54-.7,.71c-.3,.17-.63,.28-1,.32v1.18h-.84Zm-.13,2.15v-1.05h1.1v1.05h-1.1Z" fill="#35374e"></path>
    </g>
    <g>
      <path d="M584.41,369.7c-.64,0-1.21-.15-1.73-.44-.52-.3-.93-.71-1.24-1.25s-.46-1.17-.46-1.9,.15-1.36,.46-1.9,.72-.96,1.24-1.25,1.09-.44,1.73-.44,1.21,.15,1.73,.44c.52,.29,.93,.71,1.24,1.25s.46,1.17,.46,1.9-.15,1.36-.46,1.9-.72,.95-1.24,1.25-1.09,.44-1.73,.44Zm0-.8c.49,0,.92-.11,1.31-.32,.39-.21,.69-.52,.92-.94s.34-.92,.34-1.53-.11-1.12-.34-1.53c-.23-.41-.54-.72-.92-.94-.39-.21-.82-.32-1.31-.32s-.91,.11-1.3,.32c-.39,.21-.7,.53-.93,.94s-.34,.92-.34,1.53,.11,1.12,.34,1.53,.54,.73,.93,.94,.82,.32,1.3,.32Z" fill="#35374e"></path>
      <path d="M589.07,364.23h.86v5.36h-.86v-5.36Zm2.57,.8c-.36,0-.67,.09-.92,.27s-.44,.4-.58,.66-.23,.51-.27,.76v-.62c-.01-.06,0-.17,.03-.32s.08-.32,.16-.51c.08-.19,.18-.37,.32-.55,.13-.17,.3-.32,.51-.43s.46-.17,.75-.17v.91Z" fill="#35374e"></path>
    </g>
    <g>
      <path d="M471.24,131.45h1.79c.05,.7,.26,1.32,.62,1.86,.36,.55,.86,.98,1.5,1.29s1.39,.47,2.25,.47c.74,0,1.37-.11,1.87-.33s.88-.53,1.14-.93,.38-.86,.38-1.39-.13-.98-.4-1.32c-.26-.33-.65-.61-1.14-.84-.5-.23-1.08-.45-1.76-.67-.65-.2-1.3-.43-1.96-.69-.66-.26-1.28-.59-1.85-.97-.57-.38-1.03-.84-1.38-1.38s-.52-1.19-.52-1.95,.2-1.44,.61-2.1c.41-.65,1-1.18,1.79-1.59s1.73-.61,2.84-.61c1.74,0,3.04,.47,3.9,1.42,.86,.94,1.27,2.19,1.24,3.75h-1.79c-.03-1.17-.36-2.02-.99-2.53s-1.45-.77-2.46-.77c-.84,0-1.58,.19-2.21,.58s-.94,1-.94,1.82c0,.36,.07,.68,.21,.96,.14,.27,.37,.53,.69,.76s.76,.46,1.32,.68c.55,.22,1.24,.47,2.05,.73,.53,.17,1.07,.36,1.62,.6s1.07,.52,1.54,.87,.85,.79,1.14,1.33c.29,.54,.43,1.21,.43,2.02s-.19,1.5-.56,2.17-.95,1.21-1.74,1.63c-.79,.41-1.8,.62-3.04,.62-1.06,0-1.96-.14-2.72-.43-.75-.29-1.37-.67-1.85-1.13s-.85-.95-1.1-1.45-.43-.98-.51-1.43c-.08-.45-.09-.79-.02-1.04h.01Z" fill="#35374e"></path>
      <path d="M487.84,119.31v2.41h-2.58v-2.41h2.58Zm-2.28,4.96h1.99v12.41h-1.99s0-12.41,0-12.41Z" fill="#35374e"></path>
      <path d="M495.38,134.72c-.88,0-1.71-.21-2.49-.63-.79-.42-1.42-1.03-1.91-1.82-.49-.79-.73-1.75-.73-2.85s.24-2.06,.72-2.87c.48-.8,1.11-1.42,1.89-1.86,.78-.44,1.62-.66,2.53-.66,.28,0,.55,.02,.81,.06s.5,.1,.73,.19h5.04v2.13c-.71,0-1.42-.13-2.12-.4s-1.3-.54-1.8-.82l-.1-.1c.58,.31,1.05,.69,1.43,1.12,.37,.43,.65,.91,.84,1.45s.29,1.12,.29,1.75c0,1.11-.24,2.06-.71,2.85s-1.1,1.4-1.87,1.82c-.78,.42-1.62,.63-2.53,.63h-.02Zm3.65,6.93v-.55c0-.88-.23-1.51-.68-1.91-.46-.4-1.14-.6-2.05-.6h-2.48c-.55,0-1.02-.05-1.43-.14s-.74-.23-1-.41c-.26-.18-.46-.41-.6-.67-.13-.27-.2-.56-.2-.89,0-.63,.19-1.1,.57-1.43,.38-.32,.85-.53,1.42-.61s1.1-.08,1.61,0l1.19,.27c-.89,.05-1.58,.14-2.07,.27-.49,.13-.73,.41-.73,.84,0,.25,.09,.45,.29,.61s.48,.24,.86,.24h2.58c.86,0,1.65,.12,2.36,.36s1.28,.65,1.71,1.22,.65,1.35,.65,2.34v1.04h-1.99v.02Zm-3.66-8.78c.55,0,1.05-.13,1.53-.4,.47-.26,.86-.65,1.15-1.17s.45-1.14,.45-1.89-.14-1.38-.43-1.9c-.29-.52-.67-.92-1.15-1.19-.48-.27-.99-.41-1.54-.41s-1.06,.14-1.54,.41c-.48,.27-.87,.67-1.17,1.18-.3,.51-.45,1.15-.45,1.91s.15,1.37,.45,1.89,.69,.9,1.17,1.17c.48,.26,.99,.4,1.54,.4h-.01Z" fill="#35374e"></path>
      <path d="M504.29,124.27h1.99v12.41h-1.99s0-12.41,0-12.41Zm6.25-.25c.66,0,1.26,.1,1.79,.3,.53,.2,.98,.49,1.34,.87,.36,.38,.65,.84,.84,1.38,.2,.54,.3,1.15,.3,1.82v8.29h-1.99v-7.79c0-.96-.22-1.68-.67-2.16s-1.12-.72-2.01-.72c-.68,0-1.31,.17-1.89,.52-.58,.35-1.05,.82-1.43,1.43-.37,.6-.6,1.3-.68,2.1l-.03-1.44c.08-.69,.25-1.32,.51-1.89s.58-1.05,.97-1.45c.39-.41,.84-.71,1.34-.93,.5-.21,1.04-.32,1.6-.32h0Z" fill="#35374e"></path>
      <path d="M524.12,120.55h1.99v16.13h-1.99v-16.13Z" fill="#35374e"></path>
      <path d="M530.2,124.27h1.99v12.41h-1.99s0-12.41,0-12.41Zm6.25-.25c.66,0,1.26,.1,1.79,.3s.98,.49,1.34,.87c.36,.38,.65,.84,.84,1.38,.2,.54,.3,1.15,.3,1.82v8.29h-1.99v-7.79c0-.96-.22-1.68-.67-2.16s-1.12-.72-2.01-.72c-.68,0-1.31,.17-1.89,.52s-1.05,.82-1.43,1.43c-.37,.6-.6,1.3-.68,2.1l-.03-1.44c.08-.69,.25-1.32,.51-1.89s.58-1.05,.97-1.45c.39-.41,.84-.71,1.34-.93,.5-.21,1.04-.32,1.6-.32h.01Z" fill="#35374e"></path>
    </g>
    <g>
      <path d="M560.46,336.64h1.04c.03,.41,.15,.77,.36,1.09,.21,.32,.5,.57,.88,.75,.37,.18,.81,.27,1.31,.27,.43,0,.8-.06,1.09-.2,.29-.13,.52-.31,.67-.54,.15-.23,.22-.5,.22-.81s-.08-.57-.23-.77c-.16-.19-.38-.36-.67-.49-.29-.14-.63-.27-1.03-.39-.38-.12-.76-.25-1.14-.41-.39-.15-.75-.34-1.08-.56s-.6-.49-.8-.8-.3-.69-.3-1.14,.12-.84,.35-1.22c.24-.38,.58-.69,1.04-.93,.46-.24,1.01-.36,1.66-.36,1.01,0,1.77,.28,2.27,.83s.74,1.28,.72,2.19h-1.04c-.02-.69-.21-1.18-.58-1.48-.37-.3-.84-.45-1.43-.45-.49,0-.92,.11-1.29,.34s-.55,.58-.55,1.06c0,.21,.04,.4,.12,.56s.22,.31,.41,.44,.44,.27,.77,.4c.32,.13,.72,.27,1.19,.43,.31,.1,.62,.21,.95,.35,.32,.13,.62,.3,.9,.51,.28,.2,.5,.46,.67,.78,.17,.31,.25,.71,.25,1.18s-.11,.88-.33,1.27c-.22,.39-.55,.71-1.01,.95-.46,.24-1.05,.36-1.77,.36-.62,0-1.15-.08-1.59-.25s-.8-.39-1.08-.66-.5-.55-.64-.85c-.15-.29-.25-.57-.3-.83-.05-.26-.05-.46-.01-.61h0Z" fill="#35374e"></path>
      <path d="M570.15,329.56v1.4h-1.51v-1.4h1.51Zm-1.33,2.9h1.16v7.24h-1.16v-7.24Z" fill="#35374e"></path>
      <path d="M574.55,338.55c-.51,0-1-.12-1.46-.37s-.83-.6-1.11-1.06c-.29-.46-.43-1.02-.43-1.66s.14-1.2,.42-1.67c.28-.47,.65-.83,1.1-1.09,.45-.26,.95-.38,1.48-.38,.16,0,.32,.01,.47,.04,.15,.02,.29,.06,.43,.11h2.94v1.25c-.42,0-.83-.08-1.24-.23s-.76-.31-1.05-.48l-.06-.06c.34,.18,.62,.4,.83,.65,.22,.25,.38,.53,.49,.85s.17,.65,.17,1.02c0,.65-.14,1.2-.41,1.66-.27,.46-.64,.82-1.09,1.06-.45,.25-.95,.37-1.48,.37h0Zm2.13,4.03v-.32c0-.51-.13-.88-.4-1.12s-.66-.35-1.19-.35h-1.45c-.32,0-.6-.03-.83-.08-.24-.05-.43-.13-.59-.24s-.27-.24-.35-.39c-.08-.15-.12-.33-.12-.52,0-.37,.11-.64,.33-.83,.22-.19,.5-.31,.83-.35s.64-.05,.94,0l.7,.16c-.52,.03-.92,.08-1.21,.16-.28,.08-.43,.24-.43,.49,0,.14,.06,.26,.17,.35s.28,.14,.5,.14h1.5c.5,0,.96,.07,1.38,.21,.41,.14,.75,.38,1,.71s.38,.79,.38,1.37v.61h-1.16Zm-2.13-5.12c.32,0,.62-.08,.89-.23,.27-.15,.5-.38,.67-.68s.26-.67,.26-1.1-.08-.8-.25-1.11c-.17-.3-.39-.54-.67-.7s-.58-.24-.9-.24-.62,.08-.9,.24-.51,.39-.68,.69-.26,.67-.26,1.12,.09,.8,.26,1.1c.17,.3,.4,.53,.68,.68,.28,.15,.58,.23,.9,.23Z" fill="#35374e"></path>
      <path d="M579.74,332.45h1.16v7.24h-1.16v-7.24Zm3.65-.14c.39,0,.73,.06,1.04,.17,.31,.12,.57,.28,.78,.51,.21,.22,.38,.49,.49,.8,.12,.31,.17,.67,.17,1.06v4.83h-1.16v-4.55c0-.56-.13-.98-.39-1.26s-.65-.42-1.17-.42c-.4,0-.76,.1-1.1,.3-.34,.2-.62,.48-.83,.83-.22,.35-.35,.76-.4,1.22v-.84c.03-.41,.13-.77,.28-1.1s.34-.61,.56-.85c.23-.24,.49-.42,.78-.54,.29-.13,.61-.19,.93-.19l.02,.03Z" fill="#35374e"></path>
      <path d="M591.31,330.28h1.16v9.41h-1.16v-9.41Z" fill="#35374e"></path>
      <path d="M594.86,332.45h1.16v7.24h-1.16v-7.24Zm3.65-.14c.39,0,.73,.06,1.04,.17,.31,.12,.57,.28,.78,.51,.21,.22,.38,.49,.49,.8,.12,.31,.17,.67,.17,1.06v4.83h-1.16v-4.55c0-.56-.13-.98-.39-1.26s-.65-.42-1.17-.42c-.4,0-.76,.1-1.1,.3-.34,.2-.62,.48-.83,.83-.22,.35-.35,.76-.4,1.22v-.84c.03-.41,.13-.77,.28-1.1s.34-.61,.56-.85c.23-.24,.49-.42,.78-.54,.29-.13,.61-.19,.93-.19l.02,.03Z" fill="#35374e"></path>
    </g>
    <g>
      <rect x="470.35" y="383.73" width="231.94" height="33.19" fill="#df7273"></rect>
      <path d="M702.79,417.42h-232.94v-34.19h232.94v34.19Zm-231.94-1h230.94v-32.19h-230.94v32.19Z" fill="#35374e"></path>
    </g>
    <g>
      <path d="M524.26,400.89h1.04c.03,.41,.15,.77,.36,1.09,.21,.32,.5,.57,.88,.75,.37,.18,.81,.27,1.31,.27,.43,0,.8-.06,1.09-.2,.29-.13,.52-.31,.67-.54,.15-.23,.22-.5,.22-.81s-.08-.57-.23-.77c-.16-.19-.38-.36-.67-.49-.29-.14-.63-.27-1.03-.39-.38-.12-.76-.25-1.14-.41-.39-.15-.75-.34-1.08-.56s-.6-.49-.8-.8-.3-.69-.3-1.14,.12-.84,.35-1.22c.24-.38,.58-.69,1.04-.93,.46-.24,1.01-.36,1.66-.36,1.01,0,1.77,.28,2.27,.83s.74,1.28,.72,2.19h-1.04c-.02-.69-.21-1.18-.58-1.48-.37-.3-.84-.45-1.43-.45-.49,0-.92,.11-1.29,.34s-.55,.58-.55,1.06c0,.21,.04,.4,.12,.56s.22,.31,.41,.44,.44,.27,.77,.4c.32,.13,.72,.27,1.19,.43,.31,.1,.62,.21,.95,.35,.32,.13,.62,.3,.9,.51,.28,.2,.5,.46,.67,.78,.17,.31,.25,.71,.25,1.18s-.11,.88-.33,1.27c-.22,.39-.55,.71-1.01,.95-.46,.24-1.05,.36-1.77,.36-.62,0-1.15-.08-1.59-.25s-.8-.39-1.08-.66-.5-.55-.64-.85c-.15-.29-.25-.57-.3-.83-.05-.26-.05-.46-.01-.61h0Z" fill="#35374e"></path>
      <path d="M533.94,393.81v1.4h-1.51v-1.4h1.51Zm-1.33,2.9h1.16v7.24h-1.16v-7.24Z" fill="#35374e"></path>
      <path d="M538.34,402.8c-.51,0-1-.12-1.46-.37s-.83-.6-1.11-1.06c-.29-.46-.43-1.02-.43-1.66s.14-1.2,.42-1.67c.28-.47,.65-.83,1.1-1.09,.45-.26,.95-.38,1.48-.38,.16,0,.32,.01,.47,.04,.15,.02,.29,.06,.43,.11h2.94v1.25c-.42,0-.83-.08-1.24-.23s-.76-.31-1.05-.48l-.06-.06c.34,.18,.62,.4,.83,.65,.22,.25,.38,.53,.49,.85s.17,.65,.17,1.02c0,.65-.14,1.2-.41,1.66-.27,.46-.64,.82-1.09,1.06-.45,.25-.95,.37-1.48,.37h0Zm2.13,4.03v-.32c0-.51-.13-.88-.4-1.12s-.66-.35-1.19-.35h-1.45c-.32,0-.6-.03-.83-.08-.24-.05-.43-.13-.59-.24s-.27-.24-.35-.39c-.08-.15-.12-.33-.12-.52,0-.37,.11-.64,.33-.83,.22-.19,.5-.31,.83-.35s.64-.05,.94,0l.7,.16c-.52,.03-.92,.08-1.21,.16-.28,.08-.43,.24-.43,.49,0,.14,.06,.26,.17,.35s.28,.14,.5,.14h1.5c.5,0,.96,.07,1.38,.21,.41,.14,.75,.38,1,.71s.38,.79,.38,1.37v.61h-1.16Zm-2.13-5.12c.32,0,.62-.08,.89-.23,.27-.15,.5-.38,.67-.68s.26-.67,.26-1.1-.08-.8-.25-1.11c-.17-.3-.39-.54-.67-.7s-.58-.24-.9-.24-.62,.08-.9,.24-.51,.39-.68,.69-.26,.67-.26,1.12,.09,.8,.26,1.1c.17,.3,.4,.53,.68,.68,.28,.15,.58,.23,.9,.23Z" fill="#35374e"></path>
      <path d="M543.54,396.7h1.16v7.24h-1.16v-7.24Zm3.65-.14c.39,0,.73,.06,1.04,.17,.31,.12,.57,.28,.78,.51,.21,.22,.38,.49,.49,.8,.12,.31,.17,.67,.17,1.06v4.83h-1.16v-4.55c0-.56-.13-.98-.39-1.26s-.65-.42-1.17-.42c-.4,0-.76,.1-1.1,.3-.34,.2-.62,.48-.83,.83-.22,.35-.35,.76-.4,1.22v-.84c.03-.41,.13-.77,.28-1.1s.34-.61,.56-.85c.23-.24,.49-.42,.78-.54,.29-.13,.61-.19,.93-.19l.02,.03Z" fill="#35374e"></path>
      <path d="M555.11,394.53h1.16v9.41h-1.16v-9.41Z" fill="#35374e"></path>
      <path d="M558.65,396.7h1.16v7.24h-1.16v-7.24Zm3.65-.14c.39,0,.73,.06,1.04,.17,.31,.12,.57,.28,.78,.51,.21,.22,.38,.49,.49,.8,.12,.31,.17,.67,.17,1.06v4.83h-1.16v-4.55c0-.56-.13-.98-.39-1.26s-.65-.42-1.17-.42c-.4,0-.76,.1-1.1,.3-.34,.2-.62,.48-.83,.83-.22,.35-.35,.76-.4,1.22v-.84c.03-.41,.13-.77,.28-1.1s.34-.61,.56-.85c.23-.24,.49-.42,.78-.54,.29-.13,.61-.19,.93-.19l.02,.03Z" fill="#35374e"></path>
      <path d="M572.45,403.94l-3.39-9.41h1.25l2.91,8.16h-.35l2.79-8.16h1.25l2.79,8.16h-.35l2.91-8.16h1.22l-3.36,9.41h-1.22l-2.78-8.45h.32l-2.78,8.45h-1.21Z" fill="#35374e"></path>
      <path d="M586.14,393.81v1.4h-1.51v-1.4h1.51Zm-1.33,2.9h1.16v7.24h-1.16v-7.24Z" fill="#35374e"></path>
      <path d="M587.45,396.7h4.26v1.09h-4.26v-1.09Zm1.55-1.88h1.16v9.12h-1.16v-9.12Z" fill="#35374e"></path>
      <path d="M593.25,403.94v-10.13h1.16v10.13h-1.16Zm4.98,0v-4.55c0-.38-.06-.69-.17-.93-.12-.25-.29-.43-.52-.56-.23-.13-.52-.19-.87-.19-.4,0-.76,.1-1.1,.3-.34,.2-.62,.48-.83,.83-.22,.35-.35,.76-.4,1.22v-.84c.03-.41,.13-.77,.28-1.1s.34-.61,.56-.85,.49-.42,.78-.54c.29-.13,.61-.19,.93-.19,.39,0,.73,.06,1.04,.17,.31,.12,.57,.28,.78,.51,.21,.22,.38,.49,.49,.8,.12,.31,.17,.67,.17,1.06v4.83h-1.16l.02,.03Z" fill="#35374e"></path>
      <path d="M608.52,404.09c-.69,0-1.3-.12-1.85-.35-.54-.23-1.01-.56-1.4-.98s-.68-.92-.88-1.51-.3-1.24-.3-1.94,.11-1.37,.33-1.98c.22-.6,.54-1.12,.94-1.56,.41-.44,.88-.78,1.44-1.02,.55-.24,1.17-.36,1.83-.36,.72,0,1.37,.14,1.92,.41s1.01,.66,1.36,1.16,.55,1.08,.62,1.74h-.98c-.12-.46-.33-.86-.61-1.19-.28-.33-.62-.59-1.01-.77s-.83-.27-1.31-.27c-.67,0-1.25,.17-1.76,.5s-.91,.79-1.19,1.37c-.29,.58-.43,1.24-.43,1.97s.13,1.38,.39,1.93c.26,.56,.64,.99,1.13,1.3s1.08,.46,1.75,.46c.52,0,.98-.1,1.37-.3,.39-.2,.71-.5,.95-.89s.41-.87,.49-1.44h.71c-.15,1.24-.54,2.18-1.17,2.79-.63,.62-1.41,.93-2.35,.93h0Zm3.29-.14c0-.32,0-.68,.02-1.08,.01-.4,.04-.81,.07-1.22s.05-.79,.07-1.11h-3.18v-1.09h4.15v4.5h-1.13Z" fill="#35374e"></path>
      <path d="M617.89,404.09c-.62,0-1.2-.15-1.74-.45-.54-.3-.98-.73-1.31-1.3s-.5-1.23-.5-2,.17-1.44,.5-2,.77-1,1.31-1.31,1.12-.46,1.74-.46,1.19,.15,1.73,.46,.97,.75,1.29,1.31,.49,1.23,.49,2-.16,1.44-.49,2-.76,1-1.29,1.3c-.54,.3-1.11,.45-1.73,.45Zm0-1.09c.41,0,.79-.1,1.14-.3,.36-.2,.65-.5,.88-.9s.34-.89,.34-1.46-.11-1.05-.34-1.46-.52-.71-.88-.92c-.36-.21-.74-.32-1.14-.32s-.79,.1-1.15,.31c-.36,.21-.66,.51-.89,.91-.23,.4-.35,.89-.35,1.47s.11,1.05,.34,1.46c.23,.4,.52,.7,.89,.9,.37,.2,.75,.3,1.16,.3h0Z" fill="#35374e"></path>
      <path d="M626.02,404.09c-.62,0-1.2-.15-1.74-.45-.54-.3-.98-.73-1.31-1.3s-.5-1.23-.5-2,.17-1.44,.5-2,.77-1,1.31-1.31,1.12-.46,1.74-.46,1.19,.15,1.73,.46,.97,.75,1.29,1.31,.49,1.23,.49,2-.16,1.44-.49,2-.76,1-1.29,1.3c-.54,.3-1.11,.45-1.73,.45Zm0-1.09c.41,0,.79-.1,1.14-.3,.36-.2,.65-.5,.88-.9s.34-.89,.34-1.46-.11-1.05-.34-1.46-.52-.71-.88-.92c-.36-.21-.74-.32-1.14-.32s-.79,.1-1.15,.31c-.36,.21-.66,.51-.89,.91-.23,.4-.35,.89-.35,1.47s.11,1.05,.34,1.46c.23,.4,.52,.7,.89,.9,.37,.2,.75,.3,1.16,.3h0Z" fill="#35374e"></path>
      <path d="M633.61,402.8c-.51,0-1-.12-1.46-.37s-.83-.6-1.11-1.06c-.29-.46-.43-1.02-.43-1.66s.14-1.2,.42-1.67c.28-.47,.65-.83,1.1-1.09,.45-.26,.95-.38,1.48-.38,.16,0,.32,.01,.47,.04,.15,.02,.29,.06,.43,.11h2.94v1.25c-.42,0-.83-.08-1.24-.23s-.76-.31-1.05-.48l-.06-.06c.34,.18,.62,.4,.83,.65,.22,.25,.38,.53,.49,.85s.17,.65,.17,1.02c0,.65-.14,1.2-.41,1.66-.27,.46-.64,.82-1.09,1.06-.45,.25-.95,.37-1.48,.37h0Zm2.13,4.03v-.32c0-.51-.13-.88-.4-1.12s-.66-.35-1.19-.35h-1.45c-.32,0-.6-.03-.83-.08-.24-.05-.43-.13-.59-.24s-.27-.24-.35-.39c-.08-.15-.12-.33-.12-.52,0-.37,.11-.64,.33-.83,.22-.19,.5-.31,.83-.35s.64-.05,.94,0l.7,.16c-.52,.03-.92,.08-1.21,.16-.28,.08-.43,.24-.43,.49,0,.14,.06,.26,.17,.35s.28,.14,.5,.14h1.5c.5,0,.96,.07,1.38,.21,.41,.14,.75,.38,1,.71s.38,.79,.38,1.37v.61h-1.16Zm-2.13-5.12c.32,0,.62-.08,.89-.23,.27-.15,.5-.38,.67-.68s.26-.67,.26-1.1-.08-.8-.25-1.11c-.17-.3-.39-.54-.67-.7s-.58-.24-.9-.24-.62,.08-.9,.24-.51,.39-.68,.69-.26,.67-.26,1.12,.09,.8,.26,1.1c.17,.3,.4,.53,.68,.68,.28,.15,.58,.23,.9,.23Z" fill="#35374e"></path>
      <path d="M638.95,393.81h1.16v10.13h-1.16v-10.13Z" fill="#35374e"></path>
      <path d="M647.26,401.61h1.09c-.08,.47-.25,.9-.51,1.27-.27,.37-.61,.67-1.04,.88-.43,.22-.92,.33-1.48,.33-.68,0-1.28-.16-1.82-.48s-.97-.77-1.28-1.33-.47-1.21-.47-1.93,.15-1.37,.46-1.94c.3-.57,.72-1.02,1.25-1.35,.53-.33,1.13-.49,1.79-.49,.7,0,1.3,.16,1.79,.47s.85,.77,1.08,1.38,.33,1.34,.28,2.22h-5.5c.05,.47,.18,.89,.39,1.25s.49,.63,.84,.83c.35,.2,.74,.3,1.19,.3,.49,0,.91-.13,1.25-.38s.58-.59,.7-1.01v-.02Zm-1.99-3.97c-.6,0-1.1,.17-1.5,.52-.41,.35-.68,.82-.81,1.42h4.24c-.04-.64-.24-1.12-.62-1.45-.37-.33-.81-.49-1.31-.49Z" fill="#35374e"></path>
    </g>
    <path d="M569.76,367.73h-99.42c-.28,0-.5-.22-.5-.5s.22-.5,.5-.5h99.42c.28,0,.5,.22,.5,.5s-.22,.5-.5,.5Z" fill="#35374e"></path>
    <path d="M702.29,367.73h-97.64c-.28,0-.5-.22-.5-.5s.22-.5,.5-.5h97.64c.28,0,.5,.22,.5,.5s-.22,.5-.5,.5Z" fill="#35374e"></path>
  </g>
  <g>
    <rect x="173.09" y="446.69" width="281.37" height="13.92" fill="#35374e"></rect>
    <path d="M454.97,461.11H172.59v-14.92H454.97v14.92Zm-281.38-1H453.97v-12.92H173.59v12.92Z" fill="#35374e"></path>
  </g>
  <g>
    <path d="M456.62,463.1l16.05,102.94c.4,2.55,2.6,4.44,5.18,4.44h0c3.16,0,5.6-2.77,5.2-5.9l-12.84-101.48h-13.59Z" fill="#f0f1f1"></path>
    <path d="M477.85,570.98c-2.85,0-5.24-2.04-5.68-4.86l-16.14-103.52h14.61l.06,.44,12.84,101.48c.21,1.63-.3,3.28-1.39,4.52-1.09,1.24-2.66,1.95-4.31,1.95h.01Zm-20.64-107.39l15.96,102.37c.36,2.33,2.33,4.01,4.69,4.01,1.36,0,2.66-.59,3.56-1.61,.9-1.02,1.32-2.38,1.15-3.73l-12.79-101.04h-12.57Z" fill="#35374e"></path>
  </g>
  <g>
    <path d="M394.36,449.18l16.05,102.94c.4,2.55,2.6,4.44,5.18,4.44h0c3.16,0,5.6-2.77,5.2-5.9l-12.84-101.48h-13.59Z" fill="#f0f1f1"></path>
    <path d="M415.58,557.06c-2.85,0-5.24-2.04-5.67-4.86l-16.14-103.52h14.61l.06,.44,12.84,101.48c.21,1.63-.3,3.28-1.39,4.52-1.09,1.24-2.66,1.95-4.31,1.95h0Zm-20.64-107.39l15.96,102.37c.36,2.33,2.33,4.01,4.69,4.01,1.36,0,2.66-.59,3.56-1.61s1.32-2.38,1.15-3.73l-12.79-101.04h-12.57Z" fill="#35374e"></path>
  </g>
  <g>
    <path d="M220.68,448.43l-13.85,103.26c-.34,2.56,1.23,4.99,3.71,5.73h0c3.03,.9,6.16-1.07,6.66-4.18l16.51-100.95-13.03-3.86Z" fill="#f0f1f1"></path>
    <path d="M212.02,558.13c-.55,0-1.1-.08-1.63-.24-2.73-.81-4.44-3.45-4.06-6.27l13.93-103.84,14.01,4.15-16.58,101.38c-.27,1.63-1.22,3.06-2.62,3.94-.92,.58-1.98,.88-3.05,.88Zm9.08-109.06l-13.78,102.68c-.31,2.33,1.1,4.51,3.36,5.18,1.3,.39,2.72,.19,3.87-.53,1.15-.72,1.94-1.91,2.16-3.25l16.44-100.51-12.05-3.57h0Z" fill="#35374e"></path>
  </g>
  <g>
    <path d="M160.06,461.27l-13.85,103.26c-.34,2.56,1.23,4.99,3.71,5.73h0c3.03,.9,6.16-1.07,6.66-4.18l16.51-100.95-13.03-3.86h0Z" fill="#f0f1f1"></path>
    <path d="M151.41,570.98c-.55,0-1.1-.08-1.63-.24-2.73-.81-4.44-3.45-4.06-6.27l13.93-103.84,14.01,4.15-16.58,101.38c-.27,1.63-1.22,3.06-2.62,3.94-.92,.58-1.98,.88-3.05,.88h0Zm9.08-109.06l-13.78,102.68c-.31,2.33,1.1,4.51,3.35,5.18,1.31,.39,2.72,.19,3.87-.53,1.15-.72,1.94-1.91,2.16-3.25l16.44-100.51-12.05-3.57h0Z" fill="#35374e"></path>
  </g>
  <g>
    <path d="M143.59,348.8c-.15-.62,.26-1.22,.89-1.3,7.88-.91,52.66-7.19,61.81-33.15l19.82-52.82s9.5-36.4,91.16-42.14c0,0,77.59-1.13,95.89,41.69l17.05,41.44c6.85,20.34,25.27,37,49.79,44.28,6.08,1.8,12.74,3.36,19.95,4.46,1.04,.16,1.66,1.24,1.26,2.21l-36.04,85.9-301.09-8.03-20.51-82.53h.02Z" fill="#fff"></path>
    <path d="M465.51,439.88h-.34l-301.47-8.05-.09-.37-20.51-82.53c-.11-.43-.02-.89,.23-1.26s.65-.6,1.09-.66c8.67-1,52.4-7.29,61.39-32.82l19.83-52.83c.08-.33,2.55-9.33,15.12-19.14,11.54-9,34.17-20.35,76.48-23.33,.22,0,19.74-.23,41.23,4.8,19.9,4.65,45.62,14.88,55.16,37.19l17.06,41.44c6.87,20.4,25.35,36.83,49.47,43.99,6.49,1.93,13.19,3.42,19.89,4.44,.66,.1,1.21,.49,1.54,1.06,.32,.57,.36,1.24,.1,1.84l-36.17,86.22h-.01Zm-301.02-9.02l300.36,8.01,35.91-85.59c.13-.31,.11-.67-.05-.96-.17-.3-.47-.51-.82-.56-6.75-1.03-13.48-2.53-20.02-4.47-24.42-7.25-43.16-23.92-50.12-44.6l-17.04-41.41c-17.96-42.02-94.63-41.37-95.42-41.38-41.95,2.95-64.39,14.17-75.82,23.05-12.35,9.61-14.85,18.63-14.87,18.72l-19.84,52.87c-9.19,26.08-53.44,32.46-62.22,33.47-.16,.02-.29,.1-.39,.23-.09,.13-.12,.29-.08,.45h0l20.42,82.17h0Z" fill="#35374e"></path>
  </g>
  <g>
    <path d="M448.16,398.32c-36.2-16.16-80.29-25.82-106.96-30.63-16.85-3.04-34.07-3.57-51.07-1.52-73.9,8.89-108.72,35.6-108.72,35.6l-4.6,12.02,42.01,17.72,201.36-4.58,31.32-8.08-3.33-20.52h-.01Z" fill="#e5e6e7"></path>
    <path d="M218.71,432.01l-.1-.04-42.45-17.91,4.83-12.61,.11-.09c.35-.27,35.77-26.9,108.97-35.7,17.02-2.05,34.26-1.53,51.22,1.53,29.39,5.3,71.82,14.93,107.08,30.67l.25,.11,3.45,21.24-31.87,8.21-201.47,4.58h-.02Zm-41.27-18.48l41.46,17.49,201.2-4.58,30.82-7.96-3.21-19.81c-35.12-15.63-77.34-25.21-106.6-30.49-16.86-3.04-34-3.55-50.92-1.52-70.88,8.52-106.13,33.77-108.37,35.42l-4.38,11.44h0Z" fill="#35374e"></path>
  </g>
  <g>
    <path d="M176.8,413.79v25.92c0,8.97,7.28,16.25,16.25,16.25H456.62v-42.17s-87.34-35.76-279.82,0h0Z" fill="#f0f1f1"></path>
    <path d="M457.12,456.46H193.05c-9.24,0-16.75-7.51-16.75-16.75v-26.34l.41-.08c99.49-18.48,170.33-17.5,212.23-13.42,45.44,4.43,67.65,13.35,67.87,13.44l.31,.13v43.01h0Zm-279.82-42.24v25.5c0,8.68,7.07,15.75,15.75,15.75H456.12v-41.33c-2.83-1.08-24.92-9.13-67.35-13.26-41.77-4.06-112.35-5.04-211.48,13.33h0Z" fill="#35374e"></path>
  </g>
  <g>
    <path d="M402.12,313.38c-12.66,.92-33.16,1.84-33.16,1.84l-8.99,57.57-79.45-6.21,2.07-50.44c-15.42,0-30.4-6.22-30.4-6.22-1.17-19.87,7.77-34.64,14.45-42.78,4.52-5.52,10.51-9.6,17.23-11.95,10.08-3.52,23.67-6.53,31.12-8.05,3.34-.67,5.44-1.06,5.44-1.06,0,4.89,3.97,8.87,8.88,8.87s8.87-3.97,8.87-8.87c1.16,.44,3.1,1.05,5.41,1.75,6.63,1.99,16.4,4.65,20.25,5.69,1.1,.3,2.21,.54,3.31,.78,34.08,7.75,34.97,59.09,34.97,59.09h0Z" fill="#84cae1"></path>
    <path d="M360.4,373.33l-80.4-6.29,2.07-50.4c-15.17-.14-29.92-6.2-30.07-6.26l-.29-.12-.02-.31c-1.15-19.58,7.28-34.26,14.56-43.13,4.5-5.5,10.54-9.69,17.46-12.11,10.2-3.57,23.91-6.59,31.18-8.07,3.35-.68,5.45-1.06,5.45-1.06l.59-.11v.6c0,4.61,3.76,8.37,8.38,8.37s8.37-3.75,8.37-8.37v-.72l.68,.26c1.01,.38,2.71,.93,5.38,1.74,6.66,2,16.37,4.64,20.24,5.68,.93,.25,1.89,.46,2.81,.67l.48,.11c34.07,7.75,35.35,59.05,35.36,59.57v.47l-.46,.04c-11.54,.84-29.81,1.69-32.77,1.82l-8.99,57.62h-.01Zm-79.36-7.21l78.51,6.14,8.98-57.52,.41-.02c.2,0,20.12-.91,32.67-1.81-.21-5.18-3-50.96-34.57-58.14l-.48-.11c-.93-.21-1.9-.42-2.85-.68-3.87-1.04-13.59-3.68-20.27-5.69-2.18-.66-3.73-1.15-4.79-1.52-.36,4.84-4.41,8.66-9.34,8.66s-9.05-3.88-9.36-8.77c-.84,.16-2.55,.49-4.86,.95-7.24,1.48-20.91,4.49-31.05,8.04-6.74,2.36-12.62,6.44-17.01,11.8-7.13,8.68-15.38,23.02-14.35,42.12,2.15,.85,15.94,6.07,29.92,6.07h.52l-.02,.52-2.05,49.96h-.01Z" fill="#35374e"></path>
  </g>
  <path d="M312.75,367.69h-20.18l-.07-.05-24.13-17.8-.02-.09-2.7-12.47c-.05-.26,.01-.52,.18-.72,.16-.2,.4-.31,.66-.31h3.41l1.96,2.38,40.89,29.06h0Zm-20.01-.5h18.45l-39.69-28.22-1.83-2.22h-3.17c-.11,0-.2,.04-.27,.13-.07,.08-.1,.19-.07,.3l2.68,12.37,23.91,17.64h-.01Z" fill="#ec1c24"></path>
  <path d="M357.9,367.69h-15.64l-.06-.04-52.53-31.41h15.12l.06,.04,53.04,31.41h.01Zm-15.5-.5h13.67l-51.41-30.44h-13.18l50.92,30.44h0Z" fill="#ec1c24"></path>
  <path d="M365.59,363.07l-.33-.19-46.43-26.63h10.25l.06,.03,37.06,21-.6,5.79h-.01Zm-44.89-26.32l44.47,25.51,.49-4.7-36.72-20.8h-8.24Z" fill="#ec1c24"></path>
  <path d="M363.35,352.18l-.26-.43c5.95-3.53,16.59-2.47,17.04-2.42l-.05,.5c-.11-.01-10.93-1.09-16.74,2.35h0Z" fill="#ec1c24"></path>
  <path d="M397.03,328.13l-27.78-12.51c-.15-.07-.23-.23-.2-.39s.17-.28,.33-.29l29.06-1.57-.02,.28c0,.06-.42,6.07-1.34,14.13l-.04,.34h0Zm-27.03-12.71l26.61,11.98c.78-6.9,1.19-12.23,1.28-13.48l-27.89,1.5Z" fill="#ec1c24"></path>
  <g>
    <path d="M310.7,336.49l-38.86,28.21c-6.23-1.99-14.6-5.24-18.63-6.83-1.81-.72-3.1-2.32-3.41-4.25-.95-5.86-.32-17.04,.51-26.62,.84-9.29,1.86-17.08,1.86-17.08,3.01,1.27,6.2,2.28,9.35,3.08,.1,.03,.18,.05,.27,.08,10.72,2.72,20.78,3.06,20.78,3.06l-.26,6.39,11.26,.5c11.28,.02,17.12,13.45,17.12,13.45h.01Z" fill="#fff"></path>
    <path d="M271.93,365.26l-.24-.08c-6.46-2.06-15.2-5.47-18.66-6.84-1.99-.79-3.37-2.52-3.71-4.64-.79-4.84-.62-13.83,.51-26.74,.83-9.19,1.86-17.03,1.87-17.11l.09-.65,.61,.26c2.73,1.16,5.85,2.19,9.28,3.06,.12,.04,.19,.06,.26,.07,10.55,2.68,20.58,3.04,20.67,3.05l.5,.02-.26,6.4,10.76,.48c11.45,.02,17.49,13.62,17.55,13.75l.16,.37-39.39,28.6h0Zm-19.33-54.63c-.26,2.06-1.09,8.77-1.78,16.42-1.12,12.82-1.29,21.73-.52,26.49,.29,1.77,1.44,3.21,3.1,3.87,3.41,1.35,11.95,4.68,18.35,6.74l38.32-27.82c-1.03-2.12-6.7-12.77-16.49-12.79l-11.78-.53,.26-6.4c-2.18-.11-11.08-.69-20.38-3.05-.1-.02-.19-.05-.3-.08-3.19-.81-6.15-1.77-8.78-2.85h0Z" fill="#35374e"></path>
  </g>
  <path d="M304.73,336.99c-.18,0-.36-.1-.45-.28-2.87-5.78-12.63-8.44-12.72-8.47-.27-.07-.42-.35-.35-.61,.07-.27,.34-.43,.61-.35,.42,.11,10.29,2.8,13.36,8.99,.12,.25,.02,.55-.23,.67-.07,.04-.15,.05-.22,.05h0Z" fill="#35374e"></path>
  <path d="M297.26,336.99c-.12,0-.24-.04-.34-.13-.03-.03-2.96-2.66-9.33-2.79-.28,0-.5-.23-.49-.51,0-.28,.23-.5,.51-.49,6.78,.14,9.86,2.93,9.99,3.05,.2,.19,.21,.5,.03,.71-.1,.11-.23,.16-.37,.16h0Z" fill="#35374e"></path>
  <g>
    <path d="M371.67,372.08s11.66,57.45-24.27,57.56l-58.47-28.78-17.08-36.15,99.82,7.37h0Z" fill="#fff"></path>
    <path d="M347.29,430.14l-.11-.05-58.63-28.86-17.52-37.08,.86,.06,100.2,7.4,.08,.37c.28,1.38,6.73,34.07-6.18,49.91-4.44,5.45-10.69,8.22-18.58,8.25h-.12Zm-57.98-29.65l58.21,28.65c7.52-.05,13.47-2.7,17.69-7.88,11.89-14.59,6.73-45,6.04-48.71l-98.59-7.28,16.64,35.22h.01Z" fill="#35374e"></path>
  </g>
  <g>
    <path d="M240.81,408.09s20.57,21.13,47.06,26.25c1.57,.3,2.7,1.68,2.7,3.29v133.59c0,1.35,.86,2.55,2.15,2.97,7.33,2.4,32.14,9.23,54.46,.28,1.44-.58,2.39-1.98,2.39-3.54v-155.86l-108.76-6.97h0Z" fill="#fff"></path>
    <path d="M322.26,579.42c-13.59,0-25.19-3.3-29.69-4.77-1.49-.49-2.49-1.87-2.49-3.45v-133.59c0-1.36-.97-2.54-2.3-2.79-26.34-5.09-47.12-26.17-47.33-26.39l-.91-.93,110.53,7.08v156.33c0,1.77-1.06,3.34-2.71,4-8.36,3.35-17.08,4.5-25.1,4.5h0Zm-80.13-170.74c4.35,4.13,22.99,20.75,45.84,25.17,1.8,.35,3.11,1.94,3.11,3.78v133.59c0,1.14,.72,2.14,1.8,2.5,7.08,2.32,31.92,9.19,54.11,.29,1.26-.51,2.08-1.71,2.08-3.08v-155.39l-106.95-6.85h.01Z" fill="#35374e"></path>
  </g>
  <g>
    <path d="M344.56,432.89s8.47,2.58,11.68,6.48l7.26-10.74-6.11-32.87-12.84,37.14h0Z" fill="#fff"></path>
    <path d="M356.28,440.2l-.42-.52c-3.07-3.73-11.36-6.29-11.44-6.32l-.5-.15,13.62-39.42,6.49,34.93-7.75,11.47h0Zm-11.08-7.62c1.8,.59,7.94,2.79,10.99,5.98l6.79-10.04-5.72-30.81-12.05,34.86h-.01Z" fill="#35374e"></path>
  </g>
  <g>
    <path d="M285.01,631.98l16.96-55.32s16.51,4.7,36.29,.55l8.31,54.76h-61.56Z" fill="#df7273"></path>
    <path d="M347.15,632.48h-62.81l.2-.65,17.1-55.78,.47,.13c.16,.05,16.64,4.62,36.05,.54l.52-.11,8.48,55.86h-.01Zm-61.46-.99h60.3l-8.14-53.67c-17.6,3.56-32.71,.17-35.54-.54l-16.62,54.21h0Z" fill="#35374e"></path>
  </g>
  <g>
    <rect x="285.01" y="631.98" width="61.55" height="12.35" rx=".12" ry=".12" fill="#fff"></rect>
    <path d="M346.44,644.83h-61.31c-.34,0-.62-.28-.62-.62v-12.1c0-.34,.28-.62,.62-.62h61.31c.34,0,.62,.28,.62,.62v12.1c0,.34-.28,.62-.62,.62Zm-60.93-1h60.55v-11.35h-60.55v11.35Z" fill="#35374e"></path>
  </g>
  <g>
    <path d="M410.82,414.69l-27.33,80.77c-.25,.74-1.07,1.12-1.8,.84l-10.44-4.01,27.87-81.55,11.7,3.95h0Z" fill="#fff"></path>
    <path d="M382.19,496.9c-.23,0-.45-.04-.67-.13l-10.89-4.18,.16-.46,28.03-82.02,12.64,4.27-27.49,81.24c-.17,.49-.51,.88-.98,1.1-.25,.12-.52,.18-.8,.18Zm-10.3-4.89l9.99,3.83c.22,.09,.47,.08,.69-.02,.22-.1,.38-.28,.46-.51l27.17-80.29-10.75-3.63-27.55,80.62h-.01Z" fill="#35374e"></path>
  </g>
  <g>
    <path d="M285.1,631.74c.7-1.78,5.59-13.03,18.89-19.02,9.95-4.48,21.65-3.48,30.25,3.24,4.24,3.31,8.59,8.26,12.14,15.63,.08,.18-.04,.39-.24,.39h-60.87c-.13,0-.22-.12-.17-.24Z" fill="#fff"></path>
    <path d="M346.15,632.48h-60.87c-.23,0-.44-.11-.57-.3-.12-.18-.15-.42-.07-.62h0c.86-2.17,5.81-13.29,19.15-19.29,10.38-4.68,22.17-3.41,30.76,3.3,4.97,3.89,9.1,9.21,12.29,15.81,.12,.24,.1,.51-.04,.74s-.38,.36-.65,.36Zm-.21-.67h0s0,0,0,0Zm-60.18-.33h60.02c-3.09-6.31-7.07-11.4-11.84-15.13-8.29-6.48-19.69-7.7-29.73-3.18-12.24,5.51-17.22,15.42-18.45,18.3h0Z" fill="#35374e"></path>
  </g>
  <g>
    <path d="M134.57,347.99s-23.81,2.69-15.46,32.23c0,0,15.46,85.96,43.91,86.27,0,0,26.25-.43,23.67-25.72-.09-.87-.18-1.74-.24-2.61-.5-8-4.06-53.82-20.96-78.04,0,0-10.82-14.98-30.92-12.13h0Z" fill="#fff"></path>
    <path d="M163.03,466.99c-28.55-.31-43.77-83.16-44.41-86.68-2.85-10.09-2.29-18.22,1.67-24.13,5.06-7.53,13.75-8.63,14.22-8.69,20.16-2.86,31.28,12.18,31.39,12.33,16.87,24.19,20.5,69.47,21.05,78.3,.05,.75,.12,1.49,.2,2.23l.04,.36c.76,7.46-.88,13.53-4.89,18.04-7.05,7.94-18.77,8.22-19.27,8.23h0Zm-23.48-118.85c-1.57,0-3.2,.11-4.9,.35h0c-.09,.01-8.69,1.07-13.51,8.26-3.79,5.65-4.3,13.5-1.52,23.33,.17,.9,15.72,85.61,43.43,85.91,.1,0,11.77-.29,18.53-7.9,3.81-4.29,5.37-10.1,4.64-17.27l-.04-.36c-.08-.76-.16-1.51-.2-2.27-.55-8.79-4.15-53.82-20.87-77.78-.09-.13-9.09-12.27-25.54-12.27h-.01Z" fill="#35374e"></path>
  </g>
  <g>
    <path d="M493.98,349.02s23.81,2.69,15.46,32.23c0,0-15.46,85.96-43.91,86.27,0,0-26.25-.43-23.67-25.72,.09-.87,.18-1.74,.24-2.61,.5-8,4.06-53.82,20.96-78.04,0,0,10.82-14.98,30.92-12.13h0Z" fill="#fff"></path>
    <path d="M465.53,468.02c-.51,0-12.23-.29-19.28-8.23-4.01-4.51-5.65-10.58-4.89-18.05l.04-.36c.08-.74,.15-1.48,.2-2.23,.55-8.83,4.18-54.11,21.05-78.29,.11-.16,11.23-15.2,31.4-12.34,.47,.05,9.16,1.16,14.22,8.69,3.97,5.91,4.53,14.04,1.66,24.17-.62,3.48-15.85,86.33-44.38,86.64h-.02Zm23.47-118.86c-16.45,0-25.45,12.14-25.54,12.28-16.71,23.95-20.31,68.99-20.86,77.78-.05,.76-.12,1.51-.2,2.27l-.04,.36c-.73,7.17,.83,12.99,4.64,17.28,6.76,7.61,18.42,7.89,18.54,7.89,27.7-.3,43.26-85,43.41-85.86,2.79-9.89,2.28-17.74-1.52-23.39-4.83-7.2-13.42-8.24-13.5-8.25h-.01c-1.7-.24-3.34-.35-4.9-.35h-.02Z" fill="#35374e"></path>
  </g>
  <path d="M238.48,363.16c-.18,0-.36-.1-.45-.28-10.74-21.99-37.55-38.06-37.82-38.22-.24-.14-.32-.45-.17-.69,.14-.24,.45-.31,.68-.18,.27,.16,27.34,16.38,38.21,38.64,.12,.25,.02,.55-.23,.67-.07,.03-.15,.05-.22,.05h0Z" fill="#35374e"></path>
  <path d="M402.12,382.32h0c-.28,0-.5-.23-.5-.5,.31-45.35,39.5-59.72,39.9-59.86,.26-.09,.54,.04,.64,.3,.09,.26-.04,.55-.3,.64-.39,.14-38.92,14.28-39.23,58.92,0,.28-.23,.5-.5,.5h-.01Z" fill="#35374e"></path>
  <g>
    <path d="M368.06,337.16l-.17,1.65-1.96,18.6-.55,5.25-.5,4.78h-92.45l-3.83-17.75-2.36-10.88-.34-1.59c-.07-.37,.2-.73,.59-.73h100.98c.35,0,.62,.31,.59,.66h0Z" fill="#df7273"></path>
    <path d="M365.33,367.94h-93.3l-6.62-30.61c-.07-.34,.02-.67,.23-.93,.21-.26,.52-.4,.85-.4h100.98c.3,0,.6,.13,.8,.35,.21,.23,.31,.54,.29,.86h0l-3.23,30.73h0Zm-92.49-1h91.59l3.13-29.83s-.02-.08-.03-.09l-101.04-.03-.59,.23,.49-.11,6.45,29.82h0Z" fill="#35374e"></path>
  </g>
  <g>
    <path d="M368.06,337.16l-.17,1.65h-101.65l-.34-1.59c-.07-.37,.2-.73,.59-.73h100.98c.35,0,.62,.31,.59,.66h0Z" fill="#fff"></path>
    <path d="M368.34,339.31h-102.5l-.43-1.98c-.07-.34,.02-.67,.23-.93,.21-.26,.52-.4,.85-.4h100.98c.3,0,.6,.13,.8,.35,.21,.23,.31,.54,.29,.86h0l-.22,2.1h0Zm-101.69-1h100.79l.12-1.2s-.02-.08-.03-.09l-101.04-.03-.59,.23,.49-.11,.26,1.19h0Z" fill="#35374e"></path>
  </g>
  <g>
    <path d="M398.16,313.65s-.41,5.97-1.34,14.12c-1.24,10.9-3.43,25.71-6.83,35.27-.95,2.7-3.15,4.77-5.91,5.55l-44.58,12.55s-11.66,3.23-20.46-.89c0,0-30.91-11.29-35.66-16.3-.59-.62-.2-1.61,.65-1.66,1.02-.06,2.78,.23,5.64,1.68,.1,.05,.2-.08,.11-.15-1.95-1.57-6.9-5.74-8.34-8.73-.39-.81,.31-1.74,1.2-1.59,1.87,.31,5.6,1.85,12.24,7.82,.18,.16,.45-.06,.31-.26-1.79-2.56-5.14-7.62-5.98-10.71-.33-1.25,.93-2.32,2.11-1.78,2.43,1.12,7.3,4.43,15.05,14.17,.25,.31,.75,.04,.63-.33l-3.85-11.8c-.44-1.35,.46-2.77,1.87-2.96,.1-.01,.19-.02,.28-.02,.76,0,1.48,.39,1.91,1.03l10,15.21c.24,.37,.75,.45,1.09,.16,3.11-2.65,16.87-14.09,20.83-12.06,0,0,2.63,1.66-2.16,6.68-1.59,1.66-2.22,4.01-1.78,6.27l.49,2.52h29.19l3.18-30.28s.09-.66-.59-.66h-1.83l3.32-21.27,29.2-1.57h.01Z" fill="#fff"></path>
    <path d="M329.77,382.86c-3.49,0-7.43-.5-10.95-2.16-1.23-.45-31.04-11.37-35.81-16.41-.41-.43-.53-1.04-.31-1.58,.21-.54,.71-.89,1.3-.92,.9-.05,2.02,.15,3.3,.61-2.3-2.01-5.24-4.85-6.31-7.09-.26-.55-.19-1.19,.18-1.67s.96-.72,1.56-.62c1.86,.31,5.19,1.7,10.74,6.41-1.84-2.77-4.06-6.45-4.74-8.94-.21-.77,.05-1.57,.65-2.08,.61-.51,1.43-.61,2.15-.28,2.72,1.26,7.47,4.66,14.76,13.73l-3.61-11.08c-.26-.79-.15-1.64,.29-2.34,.44-.7,1.17-1.16,1.99-1.27,.13-.01,.24-.03,.34-.03,.93,0,1.8,.47,2.32,1.25l10.01,15.21c.05,.08,.13,.1,.17,.11,.05,0,.12,0,.18-.05,5.08-4.33,17.34-14.19,21.39-12.13,.12,.07,.83,.55,.97,1.68,.19,1.56-.82,3.51-3,5.8-1.45,1.52-2.07,3.7-1.65,5.83l.41,2.11h28.33l3.13-29.83s0-.09-.02-.11h-2.49l3.47-22.25,30.17-1.63-.04,.56c0,.06-.42,6.07-1.34,14.14-1.23,10.82-3.42,25.74-6.86,35.38-1,2.85-3.34,5.04-6.25,5.86l-44.58,12.55c-.29,.08-4.57,1.24-9.86,1.24h0Zm-45.5-20.08h-.21c-.29,.02-.39,.21-.43,.29-.07,.18-.03,.37,.11,.52,4.61,4.87,35.16,16.06,35.47,16.18,8.56,4.01,20.04,.91,20.15,.88l44.58-12.55c2.59-.73,4.68-2.69,5.58-5.23,3.4-9.56,5.58-24.4,6.81-35.16,.76-6.63,1.17-11.86,1.3-13.53l-28.23,1.52-3.17,20.29h1.25c.44,0,.69,.19,.83,.34,.31,.35,.27,.8,.26,.88l-3.23,30.71h-30.05l-.57-2.92c-.48-2.45,.23-4.96,1.91-6.71,2.42-2.54,2.82-4.09,2.73-4.95-.07-.68-.47-.96-.49-.97-2.81-1.43-12.67,5.58-20.24,12.02-.27,.23-.62,.33-.97,.28s-.67-.25-.86-.55l-10-15.21c-.37-.56-.96-.86-1.71-.79-.52,.07-.99,.36-1.27,.81s-.35,.99-.19,1.49l3.84,11.8c.13,.4-.05,.82-.42,1.02-.38,.2-.82,.11-1.08-.22-7.83-9.84-12.67-13.01-14.87-14.03-.37-.17-.78-.12-1.09,.14s-.44,.66-.33,1.06c.81,2.98,4.05,7.89,5.91,10.55,.21,.3,.16,.68-.11,.92-.28,.24-.67,.24-.94,0-6.77-6.09-10.41-7.44-11.98-7.7-.23-.04-.45,.05-.6,.24-.14,.19-.17,.43-.07,.64,1.38,2.87,6.19,6.94,8.2,8.56,.24,.19,.29,.52,.12,.78s-.5,.35-.78,.21c-2.62-1.33-4.24-1.63-5.17-1.63v.02Zm5.21,1.43h0Zm.43-.69h0Z" fill="#35374e"></path>
  </g>
  <g>
    <polygon points="335.69 367.44 336.55 370.96 356.98 367.44 335.69 367.44" fill="#35374e"></polygon>
    <path d="M336.18,371.53l-1.12-4.6h21.93l.08,.99-20.89,3.6h0Zm.15-3.59l.6,2.45,14.22-2.45h-14.82Z" fill="#35374e"></path>
  </g>
  <g>
    <path d="M358.66,394.88l-15.82,47.32-125.89-43.39c-12.86-4.43-19.96-18.21-16.1-31.25h0c4.13-13.96,19.12-21.61,32.85-16.77l124.95,44.1h.01Z" fill="#fff"></path>
    <path d="M343.16,442.83l-.48-.16-125.89-43.39c-13.15-4.53-20.36-18.53-16.42-31.87,2.04-6.89,6.68-12.48,13.08-15.74,6.4-3.27,13.65-3.75,20.42-1.36l125.42,44.26-16.13,48.26h0Zm-117.95-93.02c-3.88,0-7.73,.92-11.3,2.74-6.15,3.14-10.62,8.51-12.57,15.13-3.79,12.82,3.14,26.28,15.78,30.64l125.41,43.23,15.5-46.37-124.49-43.94c-2.73-.96-5.54-1.44-8.33-1.44h0Z" fill="#35374e"></path>
  </g>
  <path d="M282.59,316.64h-.05c-.27-.02-.48-.27-.45-.54l1.86-20.68c.02-.28,.26-.48,.54-.45,.27,.02,.48,.27,.45,.54l-1.86,20.68c-.02,.26-.24,.46-.5,.46h0Z" fill="#35374e"></path>
  <path d="M274.74,336.99c-.21,0-.4-.13-.47-.34-.88-2.65,.96-5.49,2.13-6.95,.28-.34,.45-.73,.5-1.13,.56-4.7,5.07-6.44,5.26-6.51,.26-.09,.55,.04,.64,.29s-.03,.55-.29,.64c-.04,.02-4.12,1.6-4.62,5.69-.07,.58-.31,1.14-.71,1.63-.84,1.05-2.72,3.72-1.96,6,.09,.26-.05,.54-.32,.63-.05,.02-.11,.03-.16,.03v.02Z" fill="#35374e"></path>
  <g>
    <path d="M358.66,395.95l40.46,14.69-27.81,81.49c-.03,.08-.13,.12-.2,.07-1.36-.94-12.02-9-9.38-28.65,0,0,1.41-9.52-4.06-15.87,0,0-4.06-4.23-1.06-8.99,0,0,4.26-4.41,2.04-17.64,0,0-2.54-15.09,0-25.1h.01Z" fill="#df7273"></path>
    <path d="M371.19,492.72c-.12,0-.25-.04-.36-.11-1.26-.88-12.28-9.13-9.59-29.13,.01-.1,1.31-9.38-3.94-15.48-.03-.03-4.27-4.55-1.1-9.59l.06-.08s4.05-4.45,1.91-17.21c-.03-.15-2.53-15.31,0-25.3l.14-.54,41.44,15.04-27.97,81.96c-.07,.19-.22,.34-.41,.4-.06,.02-.13,.03-.2,.03h.02Zm-14.17-53.73c-2.7,4.35,.87,8.18,1.02,8.34,5.57,6.47,4.25,15.89,4.19,16.29-2.42,18.01,6.51,26.13,8.77,27.88l27.49-80.56-39.48-14.33c-2.27,9.78,.11,24.2,.14,24.35,2.15,12.8-1.67,17.51-2.14,18.03h.01Z" fill="#35374e"></path>
  </g>
  <path d="M368.96,315.72h-.08c-.27-.04-.46-.3-.42-.57l2.71-17.19c.04-.27,.3-.46,.57-.42,.27,.04,.46,.3,.42,.57l-2.71,17.19c-.04,.25-.25,.42-.49,.42h0Z" fill="#35374e"></path>
  <g>
    <g>
      <path d="M339.57,234.97v11.64c0,3.88-4.58,7.03-10.23,7.03s-10.24-3.15-10.24-7.03v-11.64h20.47Z" fill="#fff"></path>
      <path d="M329.34,254.04c-5.96,0-10.82-3.33-10.82-7.42v-12.04h21.62v12.04c0,4.09-4.85,7.42-10.8,7.42Zm-9.66-18.67v11.25c0,3.66,4.33,6.63,9.66,6.63s9.65-2.97,9.65-6.63v-11.25h-19.31Z" fill="#35374e"></path>
    </g>
    <g>
      <path d="M345.85,248.58c0,4.18-7.44,7.57-16.6,7.57s-16.6-3.39-16.6-7.57c0-.38,.06-.76,.17-1.12,3.85-.53,6.27-.84,6.27-.84,0,3.88,4.58,7.03,10.24,7.03s10.23-3.15,10.23-7.03c1.33,.35,3.57,.83,6.24,1.38,.04,.19,.05,.38,.05,.58h0Z" fill="#fff"></path>
      <path d="M329.25,256.54c-9.47,0-17.18-3.57-17.18-7.97,0-.4,.06-.8,.18-1.2l.08-.26,.37-.05c3.86-.54,6.28-.84,6.28-.84l.68-.09v.48c0,3.66,4.33,6.63,9.66,6.63s9.65-2.97,9.65-6.63v-.57l.78,.2c1.16,.3,3.13,.74,6.2,1.37l.35,.07,.05,.25c.04,.2,.06,.42,.06,.63,0,4.39-7.7,7.97-17.18,7.97h.02Zm-15.93-8.74c-.06,.26-.09,.53-.09,.78,0,3.96,7.19,7.17,16.02,7.17s16.02-3.22,16.02-7.17c0-.09,0-.18-.01-.27-2.32-.48-4-.85-5.15-1.13-.42,3.83-5.09,6.86-10.77,6.86s-10.44-3.08-10.79-6.95c-.92,.12-2.75,.36-5.22,.7h0Z" fill="#35374e"></path>
    </g>
    <g>
      <path d="M319.1,242.21v7.06s10.09,2.12,18.48-7.06h-18.48Z" fill="#35374e"></path>
      <path d="M321.67,250.04h-1.64l-.93-3.42,.67-6.19,19.11,1.2-.88,.97c-5.88,6.44-12.67,7.44-16.34,7.44h.01Zm-1.99-1.27c1.94,.25,9.7,.72,16.54-5.99h-16.54v5.99Z" fill="#35374e"></path>
    </g>
    <g>
      <path d="M354.81,199.09v18.02c0,3.06-.48,6.02-1.4,8.78-1.25,3.84-3.3,7.31-5.95,10.24-5.16,5.68-12.62,9.24-20.91,9.24-2.58,0-5.08-.35-7.45-1-.01,0-.01,0-.02,0-9.3-2.53-16.67-9.71-19.51-18.87-.82-2.66-1.26-5.46-1.26-8.37v-18.02c0-15.6,12.65-28.25,28.25-28.25,7.81,0,14.87,3.16,19.98,8.28,5.11,5.11,8.28,12.17,8.28,19.97h0Z" fill="#fff"></path>
      <path d="M326.55,245.95c-2.56,0-5.09-.34-7.53-1h-.16l-.07-.07c-9.33-2.59-16.9-9.94-19.78-19.22-.85-2.78-1.29-5.65-1.29-8.54v-18.02c0-15.89,12.93-28.82,28.82-28.82,7.7,0,14.95,3,20.39,8.44,5.45,5.44,8.44,12.68,8.44,20.38v18.02c0,3.08-.48,6.1-1.43,8.96-1.26,3.87-3.3,7.39-6.07,10.45-5.44,5.99-13.22,9.43-21.34,9.43h.02Zm-7.16-2.11c2.31,.62,4.72,.94,7.16,.94,7.79,0,15.26-3.3,20.48-9.05,2.66-2.93,4.62-6.31,5.83-10.03,.91-2.75,1.37-5.64,1.37-8.6v-18.02c0-7.39-2.88-14.34-8.11-19.56-5.23-5.23-12.18-8.11-19.58-8.11-15.26,0-27.67,12.41-27.67,27.67v18.02c0,2.78,.42,5.54,1.23,8.2,2.77,8.92,10.06,15.99,19.04,18.47h.16l.07,.07h.02Z" fill="#35374e"></path>
    </g>
    <g>
      <path d="M299.56,225.48c-.77,.23-1.59,.35-2.43,.35-4.89,0-8.86-3.96-8.86-8.86s3.96-8.87,8.86-8.87c.4,0,.79,.02,1.17,.09v8.92c0,2.91,.44,5.72,1.26,8.37h0Z" fill="#fff"></path>
      <path d="M297.13,226.41c-5.2,0-9.43-4.23-9.43-9.43s4.23-9.44,9.43-9.44c.45,0,.88,.03,1.27,.09l.48,.08v9.41c0,2.78,.42,5.54,1.23,8.2l.17,.55-.55,.17c-.8,.25-1.68,.37-2.6,.37h0Zm0-17.72c-4.57,0-8.28,3.72-8.28,8.29s3.71,8.28,8.28,8.28c.6,0,1.17-.06,1.71-.18-.74-2.6-1.11-5.28-1.11-7.97v-8.41c-.19,0-.39-.02-.6-.02h0Z" fill="#35374e"></path>
    </g>
    <g>
      <path d="M365.41,217.6c0,4.9-3.98,8.87-8.87,8.87-1.1,0-2.16-.2-3.12-.58,.91-2.77,1.4-5.72,1.4-8.78v-8.19c.56-.11,1.14-.17,1.73-.17,4.89,0,8.87,3.96,8.87,8.86h-.01Z" fill="#fff"></path>
      <path d="M356.54,227.05c-1.18,0-2.3-.21-3.34-.62l-.51-.2,.17-.52c.91-2.74,1.37-5.64,1.37-8.6v-8.66l.46-.09c.61-.12,1.23-.18,1.84-.18,5.21,0,9.44,4.23,9.44,9.43s-4.24,9.44-9.44,9.44h.01Zm-2.41-1.51c.76,.24,1.57,.36,2.41,.36,4.57,0,8.29-3.72,8.29-8.29s-3.72-8.28-8.29-8.28c-.38,0-.77,.03-1.15,.08v7.7c0,2.89-.42,5.72-1.25,8.43h-.01Z" fill="#35374e"></path>
    </g>
    <path d="M360.85,209.87c-.89,.91-1.91,1.62-3.03,2.1h-.01c-1.79,.78-3.79,.98-5.76,.51-4-.96-9.51-4.71-11.44-17.56-.07-.48-.65-.67-.98-.31-2.49,2.7-10.23,10.59-15.77,10.73-3.89,.53-2.47-6.52-2.47-6.52,.35-6.18-2.22-2.77-2.22-2.77,0,0-14.25,20.02-23.38,14.74,0,0-1.93-1.07-2.77-4.21,0,0-.01,0-.01,0-.63-2.28-.67-5.66,1.01-10.51,0,0-19.21,3.04,.16-12.97,0,0,2.57-17.29,18.74-18.9,0,0-4.56-4.78-5.06-8.13-.17-1.16,.58-2.22,1.75-2.38,1.8-.23,5.35,.52,11.04,6.55,.47,.49,1.26,.51,1.73,0,.21-.22,.31-.52,.31-.8,0-.21-.05-.42-.17-.62-.94-1.51-2.9-5.03-3.04-8.39-.06-1.41,.68-2.68,1.83-3.32h.01c.44-.26,.95-.41,1.51-.44,3.72-.23,10.51,1.73,17.32,15.95,0,0,16.25,2.1,22.84,17.07,.01,0,.01,0,.01,0,1.14,2.57,1.98,5.52,2.41,8.91,0,0,1.99,14.57-4.56,21.29v-.02Z" fill="#35374e"></path>
    <g opacity=".2">
      <path d="M362.99,179.66c-10.24-14.54-23.71-15.3-23.71-15.3-7-16.81-17.51-17.25-17.95-17.27,.44-.26,.95-.41,1.51-.44,3.72-.23,10.51,1.73,17.32,15.95,0,0,16.25,2.1,22.84,17.07h-.01Z"></path>
    </g>
    <path d="M341.16,211.02c-.13,0-.26-.04-.37-.13-.15-.13-3.81-3.1-7.55-.6-.27,.18-.62,.11-.8-.16s-.1-.62,.16-.8c4.47-2.97,8.89,.64,8.93,.68,.24,.2,.28,.57,.07,.81-.11,.14-.28,.21-.44,.21h0Z" fill="#35374e"></path>
    <path d="M311.53,209.38c-.16,0-.32-.07-.44-.2-.21-.24-.18-.6,.06-.81,4.65-4.02,9.37-.04,9.41,0,.24,.21,.27,.57,.06,.81-.21,.24-.57,.27-.81,.06-.16-.14-4.02-3.36-7.91,0-.11,.09-.24,.14-.38,.14h.01Z" fill="#35374e"></path>
    <ellipse cx="336.47" cy="216.17" rx="4.2" ry="2.53" transform="translate(94.79 534.81) rotate(-85.54)" fill="#35374e"></ellipse>
    <ellipse cx="315.2" cy="214.81" rx="4.2" ry="2.53" transform="translate(76.53 512.35) rotate(-85.54)" fill="#35374e"></ellipse>
    <path d="M327.62,224.06h-4.12c-.18,0-.35-.08-.46-.23-.11-.14-.14-.33-.09-.5l3.06-10.75c.09-.31,.4-.49,.71-.4,.31,.09,.48,.41,.4,.71l-2.85,10.02h3.36c.32,0,.58,.26,.58,.58s-.26,.58-.58,.58h0Z" fill="#35374e"></path>
    <path d="M325.18,234.74c-4.96,0-7.87-3.56-7.91-3.61-.2-.25-.16-.61,.09-.81s.61-.16,.81,.09c.22,.28,5.56,6.77,14.42,.44,.26-.18,.62-.12,.81,.13,.18,.26,.12,.62-.13,.81-3.08,2.2-5.8,2.95-8.08,2.95h-.01Z" fill="#35374e"></path>
    <path d="M294.67,220.42c-.22,0-.43-.13-.53-.34-1.64-3.65-.04-6.4,.03-6.52,.16-.27,.52-.36,.79-.2,.27,.16,.36,.52,.2,.79-.06,.1-1.36,2.37,.03,5.45,.13,.29,0,.63-.29,.76-.08,.03-.16,.05-.24,.05h0Z" fill="#35374e"></path>
    <path d="M358.73,221.18c-.1,0-.2-.03-.3-.08-.27-.16-.36-.52-.2-.79,.06-.1,1.36-2.37-.03-5.45-.13-.29,0-.63,.29-.76,.29-.13,.63,0,.76,.29,1.64,3.65,.04,6.4-.03,6.52-.11,.18-.3,.28-.49,.28h0Z" fill="#35374e"></path>
  </g>
</svg>
